<svg width="12" height="12" viewBox="0 0 12 12" fill="none" xmlns="http://www.w3.org/2000/svg">
<path d="M5.75364 9.59064L3.08259 11.6174C2.95024 11.725 2.80586 11.7757 2.64944 11.7695C2.49303 11.7637 2.35467 11.719 2.23435 11.6353C2.11403 11.5516 2.02091 11.438 1.95497 11.2945C1.88856 11.151 1.88543 10.9956 1.94559 10.8282L2.9743 7.5101L0.357395 5.66273C0.213014 5.56707 0.122776 5.44152 0.0866806 5.28608C0.0505854 5.13064 0.0566013 4.98715 0.104728 4.85563C0.152855 4.7241 0.237078 4.6074 0.357395 4.50552C0.477713 4.40413 0.622094 4.35343 0.790538 4.35343H4.02107L5.06783 0.909782C5.12799 0.742383 5.22135 0.613725 5.34793 0.523807C5.47402 0.434368 5.60926 0.389648 5.75364 0.389648C5.89802 0.389648 6.03326 0.434368 6.15935 0.523807C6.28592 0.613725 6.37929 0.742383 6.43945 0.909782L7.48621 4.35343H10.7167C10.8852 4.35343 11.0296 4.40413 11.1499 4.50552C11.2702 4.6074 11.3544 4.7241 11.4025 4.85563C11.4507 4.98715 11.4567 5.13064 11.4206 5.28608C11.3845 5.44152 11.2943 5.56707 11.1499 5.66273L8.53298 7.5101L9.56169 10.8282C9.62185 10.9956 9.61896 11.151 9.55303 11.2945C9.48661 11.438 9.39325 11.5516 9.27293 11.6353C9.15261 11.719 9.01424 11.7637 8.85783 11.7695C8.70142 11.7757 8.55704 11.725 8.42469 11.6174L5.75364 9.59064Z" fill="#DFCD26"/>
</svg>
