<svg width="137" height="28" viewBox="0 0 137 28" fill="none" xmlns="http://www.w3.org/2000/svg">
<g opacity="0.6">
<path d="M68.6266 20.0861L64.4474 23.2588C64.2403 23.4273 64.0144 23.5067 63.7697 23.4969C63.525 23.4879 63.3085 23.4179 63.1202 23.2869C62.932 23.1559 62.7863 22.9781 62.6831 22.7534C62.5792 22.5288 62.5743 22.2855 62.6684 22.0234L64.278 16.8292L60.1835 13.9373C59.9576 13.7875 59.8164 13.591 59.7599 13.3476C59.7035 13.1043 59.7129 12.8797 59.7882 12.6738C59.8635 12.4679 59.9953 12.2852 60.1835 12.1257C60.3718 11.967 60.5977 11.8876 60.8612 11.8876H65.9158L67.5536 6.49685C67.6477 6.2348 67.7938 6.03339 67.9918 5.89263C68.1891 5.75262 68.4007 5.68262 68.6266 5.68262C68.8525 5.68262 69.0641 5.75262 69.2614 5.89263C69.4594 6.03339 69.6055 6.2348 69.6996 6.49685L71.3374 11.8876H76.392C76.6555 11.8876 76.8814 11.967 77.0697 12.1257C77.2579 12.2852 77.3897 12.4679 77.465 12.6738C77.5403 12.8797 77.5497 13.1043 77.4933 13.3476C77.4368 13.591 77.2956 13.7875 77.0697 13.9373L72.9752 16.8292L74.5848 22.0234C74.6789 22.2855 74.6744 22.5288 74.5712 22.7534C74.4673 22.9781 74.3212 23.1559 74.133 23.2869C73.9447 23.4179 73.7282 23.4879 73.4835 23.4969C73.2388 23.5067 73.0129 23.4273 72.8058 23.2588L68.6266 20.0861Z" fill="#DFCD26"/>
<path d="M95.734 20.0861L91.5548 23.2588C91.3478 23.4273 91.1219 23.5067 90.8771 23.4969C90.6324 23.4879 90.4159 23.4179 90.2277 23.2869C90.0394 23.1559 89.8937 22.9781 89.7905 22.7534C89.6866 22.5288 89.6817 22.2855 89.7759 22.0234L91.3854 16.8292L87.2909 13.9373C87.065 13.7875 86.9238 13.591 86.8674 13.3476C86.8109 13.1043 86.8203 12.8797 86.8956 12.6738C86.9709 12.4679 87.1027 12.2852 87.2909 12.1257C87.4792 11.967 87.7051 11.8876 87.9686 11.8876H93.0232L94.661 6.49685C94.7551 6.2348 94.9012 6.03339 95.0992 5.89263C95.2965 5.75262 95.5081 5.68262 95.734 5.68262C95.9599 5.68262 96.1715 5.75262 96.3688 5.89263C96.5669 6.03339 96.7129 6.2348 96.8071 6.49685L98.4448 11.8876H103.499C103.763 11.8876 103.989 11.967 104.177 12.1257C104.365 12.2852 104.497 12.4679 104.572 12.6738C104.648 12.8797 104.657 13.1043 104.601 13.3476C104.544 13.591 104.403 13.7875 104.177 13.9373L100.083 16.8292L101.692 22.0234C101.786 22.2855 101.782 22.5288 101.679 22.7534C101.575 22.9781 101.429 23.1559 101.24 23.2869C101.052 23.4179 100.836 23.4879 100.591 23.4969C100.346 23.5067 100.12 23.4273 99.9132 23.2588L95.734 20.0861Z" fill="#DFCD26"/>
<path d="M41.5182 20.0861L37.339 23.2588C37.1319 23.4273 36.906 23.5067 36.6613 23.4969C36.4166 23.4879 36.2001 23.4179 36.0118 23.2869C35.8236 23.1559 35.6779 22.9781 35.5747 22.7534C35.4708 22.5288 35.4659 22.2855 35.56 22.0234L37.1696 16.8292L33.0751 13.9373C32.8492 13.7875 32.708 13.591 32.6515 13.3476C32.5951 13.1043 32.6045 12.8797 32.6798 12.6738C32.7551 12.4679 32.8869 12.2852 33.0751 12.1257C33.2634 11.967 33.4893 11.8876 33.7528 11.8876H38.8074L40.4452 6.49685C40.5393 6.2348 40.6854 6.03339 40.8834 5.89263C41.0807 5.75262 41.2923 5.68262 41.5182 5.68262C41.7441 5.68262 41.9557 5.75262 42.153 5.89263C42.351 6.03339 42.4971 6.2348 42.5912 6.49685L44.229 11.8876H49.2836C49.5471 11.8876 49.773 11.967 49.9613 12.1257C50.1496 12.2852 50.2813 12.4679 50.3566 12.6738C50.4319 12.8797 50.4413 13.1043 50.3849 13.3476C50.3284 13.591 50.1872 13.7875 49.9613 13.9373L45.8668 16.8292L47.4764 22.0234C47.5705 22.2855 47.566 22.5288 47.4628 22.7534C47.3589 22.9781 47.2128 23.1559 47.0246 23.2869C46.8363 23.4179 46.6198 23.4879 46.3751 23.4969C46.1304 23.5067 45.9045 23.4273 45.6974 23.2588L41.5182 20.0861Z" fill="#DFCD26"/>
<path d="M116.899 22.7534L116.744 22.8247C116.859 23.0748 117.023 23.2772 117.239 23.427C117.455 23.5779 117.704 23.6573 117.979 23.6675C118.268 23.679 118.533 23.584 118.769 23.3931L122.842 20.3004L126.916 23.3931C127.152 23.584 127.417 23.679 127.706 23.6675C127.981 23.6573 128.229 23.5779 128.446 23.427C128.661 23.2773 128.826 23.075 128.942 22.8251L128.942 22.8247C129.066 22.5553 129.068 22.2664 128.963 21.9694L127.391 16.8971L131.382 14.0781C131.64 13.9066 131.808 13.675 131.875 13.3862C131.938 13.1152 131.929 12.8564 131.841 12.6152C131.754 12.3781 131.604 12.1716 131.396 11.9955L131.396 11.9952C131.174 11.8086 130.909 11.7169 130.608 11.7169H125.68L124.079 6.44723L124.079 6.44717L124.076 6.43914C123.972 6.14923 123.807 5.9173 123.576 5.75349L123.576 5.75342C123.352 5.59446 123.106 5.51191 122.842 5.51191C122.579 5.51191 122.333 5.59446 122.109 5.75342L122.109 5.75349C121.878 5.9173 121.713 6.14923 121.609 6.43914L121.609 6.43907L121.606 6.44723L120.005 11.7169H115.077C114.776 11.7169 114.511 11.8086 114.289 11.9952L114.289 11.9955C114.081 12.1716 113.93 12.3781 113.844 12.6152C113.755 12.8564 113.747 13.1152 113.809 13.3862C113.877 13.675 114.045 13.9066 114.303 14.0781L118.294 16.8971L116.722 21.9694C116.616 22.2666 116.619 22.5557 116.744 22.8251L116.899 22.7534ZM116.899 22.7534C116.795 22.5288 116.79 22.2855 116.884 22.0234L118.663 23.2588C118.456 23.4273 118.23 23.5067 117.986 23.4969C117.741 23.4879 117.524 23.4179 117.336 23.2869C117.148 23.1559 117.002 22.9781 116.899 22.7534Z" fill="#DFCD26" stroke="#F9EBE4" stroke-width="0.34141"/>
<path d="M14.4088 20.0861L10.2296 23.2588C10.0226 23.4273 9.79666 23.5067 9.55193 23.4969C9.3072 23.4879 9.09071 23.4179 8.90246 23.2869C8.71421 23.1559 8.5685 22.9781 8.46534 22.7534C8.36142 22.5288 8.35653 22.2855 8.45066 22.0234L10.0602 16.8292L5.96573 13.9373C5.73983 13.7875 5.59864 13.591 5.54217 13.3476C5.48569 13.1043 5.4951 12.8797 5.5704 12.6738C5.6457 12.4679 5.77748 12.2852 5.96573 12.1257C6.15398 11.967 6.37989 11.8876 6.64344 11.8876H11.698L13.3358 6.49685C13.4299 6.2348 13.576 6.03339 13.774 5.89263C13.9713 5.75262 14.1829 5.68262 14.4088 5.68262C14.6347 5.68262 14.8463 5.75262 15.0436 5.89263C15.2417 6.03339 15.3877 6.2348 15.4819 6.49685L17.1197 11.8876H22.1742C22.4378 11.8876 22.6637 11.967 22.8519 12.1257C23.0402 12.2852 23.172 12.4679 23.2473 12.6738C23.3226 12.8797 23.332 13.1043 23.2755 13.3476C23.219 13.591 23.0778 13.7875 22.8519 13.9373L18.7574 16.8292L20.367 22.0234C20.4611 22.2855 20.4566 22.5288 20.3534 22.7534C20.2495 22.9781 20.1034 23.1559 19.9152 23.2869C19.7269 23.4179 19.5105 23.4879 19.2657 23.4969C19.021 23.5067 18.7951 23.4273 18.588 23.2588L14.4088 20.0861Z" fill="#DFCD26"/>
</g>
</svg>
