<svg width="17" height="16" viewBox="0 0 17 16" fill="none" xmlns="http://www.w3.org/2000/svg">
<path d="M8.88687 0.869141C4.4754 0.869141 0.898438 4.21813 0.898438 8.34844C0.898438 12.4788 4.4754 15.8277 8.88687 15.8277C13.2983 15.8277 16.8753 12.4788 16.8753 8.34844C16.8753 4.21813 13.2983 0.869141 8.88687 0.869141ZM8.88687 14.5589C5.22432 14.5589 2.25362 11.7776 2.25362 8.34844C2.25362 4.91932 5.22432 2.13795 8.88687 2.13795C12.5494 2.13795 15.5201 4.91932 15.5201 8.34844C15.5201 11.7776 12.5494 14.5589 8.88687 14.5589ZM8.98673 5.66558C9.93179 5.66558 10.5737 6.22987 10.645 7.05793C10.6504 7.12805 10.7128 7.18147 10.7877 7.18147H11.7987C11.8451 7.18147 11.8825 7.14641 11.8825 7.10301C11.8825 5.65556 10.6629 4.64218 8.98138 4.64218C7.02172 4.64218 5.89121 5.88094 5.89121 7.92773V8.80088C5.89121 10.8326 7.02172 12.0547 8.98138 12.0547C10.6575 12.0547 11.8825 11.073 11.8825 9.69405C11.8825 9.65064 11.8451 9.61559 11.7987 9.61559H10.7859C10.711 9.61559 10.6504 9.66901 10.6433 9.73746C10.5684 10.5071 9.92822 11.0363 8.98494 11.0363C7.82056 11.0363 7.16437 10.2366 7.16437 8.80588V7.92773C7.16615 6.47528 7.82412 5.66558 8.98673 5.66558Z" fill="#DAF7F9"/>
</svg>
