<svg width="36" height="35" viewBox="0 0 36 35" fill="none" xmlns="http://www.w3.org/2000/svg">
<path fill-rule="evenodd" clip-rule="evenodd" d="M0 0V27.17H22.3278V25.2293H1.99471V1.94071H28.9233V3.99787H30.918V0H0ZM30.918 9.70357C30.918 10.2183 30.7079 10.7119 30.3338 11.0759C29.9597 11.4398 29.4523 11.6443 28.9233 11.6443C28.3943 11.6443 27.8869 11.4398 27.5128 11.0759C27.1388 10.7119 26.9286 10.2183 26.9286 9.70357C26.9286 9.18886 27.1388 8.69523 27.5128 8.33128C27.8869 7.96732 28.3943 7.76286 28.9233 7.76286C29.4523 7.76286 29.9597 7.96732 30.3338 8.33128C30.7079 8.69523 30.918 9.18886 30.918 9.70357ZM32.9127 9.70357C32.9127 10.733 32.4924 11.7202 31.7443 12.4482C30.9961 13.1761 29.9814 13.585 28.9233 13.585C27.8653 13.585 26.8505 13.1761 26.1024 12.4482C25.3542 11.7202 24.9339 10.733 24.9339 9.70357C24.9339 8.67415 25.3542 7.6869 26.1024 6.95899C26.8505 6.23108 27.8653 5.82214 28.9233 5.82214C29.9814 5.82214 30.9961 6.23108 31.7443 6.95899C32.4924 7.6869 32.9127 8.67415 32.9127 9.70357Z" fill="#0D6784"/>
<path fill-rule="evenodd" clip-rule="evenodd" d="M24.0287 15.3611C24.585 14.8445 25.3243 14.556 26.0933 14.5557H30.1645C31.6246 14.5557 32.984 15.0389 34.0312 16.0015C35.0385 16.9272 35.5632 18.114 35.7776 19.2386C36.1147 21.0066 35.7656 22.9386 34.9069 24.6513V32.5073C34.9069 33.116 34.6717 33.7026 34.2479 34.1504C33.8241 34.5983 33.2427 34.8748 32.6192 34.925C31.9956 34.9752 31.3754 34.7955 30.8817 34.4215C30.388 34.0475 30.0569 33.5066 29.954 32.9061L29.4214 29.7971L28.8889 32.9061C28.786 33.5066 28.4549 34.0475 27.9612 34.4215C27.4675 34.7955 26.8473 34.9752 26.2237 34.925C25.6001 34.8748 25.0188 34.5983 24.595 34.1504C24.1712 33.7026 23.936 33.116 23.936 32.5073V23.3791C23.4811 23.6346 22.9652 23.7692 22.4399 23.7692H17.3514C16.5579 23.7692 15.7969 23.4625 15.2357 22.9166C14.6746 22.3706 14.3594 21.6302 14.3594 20.8581C14.3594 20.0861 14.6746 19.3456 15.2357 18.7997C15.7969 18.2538 16.5579 17.9471 17.3514 17.9471H21.2411L24.0287 15.3611ZM25.9307 26.6609V32.5073C25.931 32.6288 25.9782 32.7458 26.063 32.8351C26.1477 32.9244 26.2638 32.9795 26.3883 32.9895C26.5128 32.9995 26.6366 32.9637 26.7353 32.8891C26.8339 32.8145 26.9002 32.7067 26.9211 32.5868L27.9613 26.5163C28 26.2897 28.1201 26.0838 28.3002 25.9353C28.4802 25.7868 28.7086 25.7052 28.9447 25.7051H29.8982C30.1343 25.7052 30.3626 25.7868 30.5427 25.9353C30.7228 26.0838 30.8428 26.2897 30.8816 26.5163L31.9218 32.5868C31.9426 32.7067 32.0089 32.8145 32.1076 32.8891C32.2062 32.9637 32.3301 32.9995 32.4545 32.9895C32.579 32.9795 32.6951 32.9244 32.7799 32.8351C32.8646 32.7458 32.9118 32.6288 32.9122 32.5073V24.4213C32.9122 24.2659 32.9505 24.1129 33.0239 23.9749C33.7938 22.5281 34.0741 20.9435 33.8168 19.5928C33.6602 18.7719 33.2942 17.9936 32.6618 17.4124C32.0166 16.8195 31.1608 16.4964 30.1645 16.4964H26.0943C25.8379 16.4964 25.5906 16.5924 25.4051 16.7642L22.3292 19.619C22.1439 19.7913 21.8974 19.8876 21.6411 19.8878H17.3514C17.0869 19.8878 16.8332 19.99 16.6462 20.172C16.4592 20.354 16.3541 20.6008 16.3541 20.8581C16.3541 21.1155 16.4592 21.3623 16.6462 21.5443C16.8332 21.7263 17.0869 21.8285 17.3514 21.8285H22.4399C22.6963 21.8283 22.9428 21.732 23.1281 21.5597L24.2452 20.5234C24.3865 20.3923 24.5642 20.3045 24.7564 20.2708C24.9485 20.237 25.1466 20.259 25.3261 20.3338C25.5056 20.4086 25.6585 20.533 25.766 20.6916C25.8735 20.8501 25.9307 21.0359 25.9307 21.2259V26.6609Z" fill="#0D6784"/>
</svg>
