<svg width="33" height="28" viewBox="0 0 33 28" fill="none" xmlns="http://www.w3.org/2000/svg">
<path d="M30.197 1.26953H2.86364C2.36937 1.26953 1.89535 1.46038 1.54585 1.8001C1.19635 2.13982 1 2.60057 1 3.081V24.8186C1 25.2991 1.19635 25.7598 1.54585 26.0995C1.89535 26.4393 2.36937 26.6301 2.86364 26.6301H4.94314C5.06066 26.6299 5.17572 26.5974 5.27496 26.5362C5.3742 26.475 5.45355 26.3877 5.50379 26.2844C6.15812 24.9409 7.19148 23.8055 8.48366 23.0104C9.77584 22.2154 11.2737 21.7933 12.803 21.7933C14.3323 21.7933 15.8302 22.2154 17.1224 23.0104C18.4146 23.8055 19.4479 24.9409 20.1023 26.2844C20.1525 26.3877 20.2319 26.475 20.3311 26.5362C20.4303 26.5974 20.5454 26.6299 20.6629 26.6301H30.197C30.6912 26.6301 31.1653 26.4393 31.5148 26.0995C31.8643 25.7598 32.0606 25.2991 32.0606 24.8186V3.081C32.0606 2.60057 31.8643 2.13982 31.5148 1.8001C31.1653 1.46038 30.6912 1.26953 30.197 1.26953ZM30.8182 24.8186C30.8182 24.9788 30.7527 25.1324 30.6362 25.2456C30.5197 25.3589 30.3617 25.4225 30.197 25.4225H21.0465C19.9043 23.3364 17.9733 21.763 15.6606 21.0342C16.7132 20.4258 17.5311 19.4983 17.9888 18.3943C18.4465 17.2902 18.5186 16.0707 18.194 14.9229C17.8694 13.7752 17.1662 12.7628 16.1923 12.0412C15.2183 11.3196 14.0276 10.9288 12.803 10.9288C11.5784 10.9288 10.3877 11.3196 9.4138 12.0412C8.43987 12.7628 7.73661 13.7752 7.41206 14.9229C7.0875 16.0707 7.1596 17.2902 7.61728 18.3943C8.07496 19.4983 8.8929 20.4258 9.94545 21.0342C7.63279 21.763 5.70172 23.3364 4.55955 25.4225H2.86364C2.69888 25.4225 2.54087 25.3589 2.42437 25.2456C2.30787 25.1324 2.24242 24.9788 2.24242 24.8186V3.081C2.24242 2.92086 2.30787 2.76727 2.42437 2.65403C2.54087 2.5408 2.69888 2.47718 2.86364 2.47718H30.197C30.3617 2.47718 30.5197 2.5408 30.6362 2.65403C30.7527 2.76727 30.8182 2.92086 30.8182 3.081V24.8186ZM12.803 20.5919C11.943 20.5919 11.1022 20.344 10.3871 19.8795C9.67204 19.4151 9.11468 18.755 8.78555 17.9826C8.45643 17.2103 8.37031 16.3604 8.5381 15.5405C8.70589 14.7206 9.12004 13.9675 9.72819 13.3763C10.3363 12.7852 11.1112 12.3827 11.9547 12.2196C12.7982 12.0565 13.6725 12.1402 14.4671 12.4601C15.2617 12.78 15.9408 13.3218 16.4187 14.0169C16.8965 14.7119 17.1515 15.5291 17.1515 16.3651C17.1515 16.9202 17.039 17.4698 16.8205 17.9826C16.602 18.4954 16.2817 18.9614 15.8779 19.3539C15.4741 19.7464 14.9947 20.0577 14.4671 20.2701C13.9395 20.4826 13.3741 20.5919 12.803 20.5919ZM27.0909 6.70394V21.1957C27.0909 21.3559 27.0255 21.5094 26.909 21.6227C26.7925 21.7359 26.6345 21.7995 26.4697 21.7995H23.9848C23.8201 21.7995 23.6621 21.7359 23.5456 21.6227C23.4291 21.5094 23.3636 21.3559 23.3636 21.1957C23.3636 21.0356 23.4291 20.882 23.5456 20.7687C23.6621 20.6555 23.8201 20.5919 23.9848 20.5919H25.8485V7.30777H7.21212V9.11924C7.21212 9.27938 7.14667 9.43297 7.03017 9.5462C6.91367 9.65944 6.75566 9.72306 6.59091 9.72306C6.42615 9.72306 6.26815 9.65944 6.15165 9.5462C6.03515 9.43297 5.9697 9.27938 5.9697 9.11924V6.70394C5.9697 6.5438 6.03515 6.39021 6.15165 6.27697C6.26815 6.16374 6.42615 6.10012 6.59091 6.10012H26.4697C26.6345 6.10012 26.7925 6.16374 26.909 6.27697C27.0255 6.39021 27.0909 6.5438 27.0909 6.70394Z" stroke="#0D6784" stroke-width="1.1"/>
</svg>
