<svg width="38" height="38" viewBox="0 0 38 38" fill="none" xmlns="http://www.w3.org/2000/svg">
<path d="M25.9633 37.0604V22.718H30.8474L31.578 17.1425H25.9633V13.5847C25.9633 11.9705 26.4197 10.869 28.7728 10.869H31.7748V5.88231C30.3215 5.73066 28.8609 5.65712 27.3994 5.66201C23.0722 5.66201 20.11 8.26036 20.11 13.0329V17.1425H15.2154V22.718H20.11V37.0604H2.09348C1.53825 37.0604 1.00577 36.8435 0.613166 36.4574C0.220562 36.0713 0 35.5476 0 35.0015V2.05891C0 1.51285 0.220562 0.989162 0.613166 0.603041C1.00577 0.21692 1.53825 0 2.09348 0H35.5891C36.1444 0 36.6768 0.21692 37.0695 0.603041C37.4621 0.989162 37.6826 1.51285 37.6826 2.05891V35.0015C37.6826 35.5476 37.4621 36.0713 37.0695 36.4574C36.6768 36.8435 36.1444 37.0604 35.5891 37.0604H25.9633Z" fill="#E3F8F5"/>
</svg>
