<svg width="32" height="31" viewBox="0 0 32 31" fill="none" xmlns="http://www.w3.org/2000/svg">
<path d="M31.2889 15.3861C31.2889 6.88866 24.2846 0 15.6444 0C7.00431 0 0 6.88854 0 15.3861C0 23.0657 5.72097 29.4311 13.2 30.5853V19.8337H9.22777V15.3861H13.2V11.9964C13.2 8.14022 15.5357 6.01021 19.1091 6.01021C20.8208 6.01021 22.6111 6.31072 22.6111 6.31072V10.0971H20.6384C18.6949 10.0971 18.0889 11.2832 18.0889 12.5V15.3861H22.4278L21.7342 19.8337H18.0889V30.5853C25.5679 29.4311 31.2889 23.0658 31.2889 15.3861Z" fill="#1877F2"/>
<path d="M21.7339 19.8342L22.4275 15.3867H18.0886V12.5006C18.0886 11.2836 18.6947 10.0977 20.6382 10.0977H22.6109V6.31125C22.6109 6.31125 20.8206 6.01074 19.1088 6.01074C15.5354 6.01074 13.1998 8.14076 13.1998 11.9969V15.3867H9.22754V19.8342H13.1998V30.5859C14.0084 30.7105 14.8257 30.773 15.6442 30.7728C16.4627 30.773 17.28 30.7105 18.0886 30.5859V19.8342H21.7339Z" fill="white"/>
</svg>
