<svg width="144" height="144" viewBox="0 0 144 144" fill="none" xmlns="http://www.w3.org/2000/svg">
<rect width="144" height="144" rx="72" fill="#F6FAF9"/>
<path d="M49.3235 41.7842C46.6027 41.7842 44.3984 44.6043 44.3984 48.079V95.8945C44.3984 99.3692 46.6066 102.189 49.3235 102.189H51.2951C54.016 102.189 56.2202 99.3692 56.2202 95.8945V48.074C56.2202 44.5992 54.012 41.7842 51.2912 41.7842H49.3275H49.3235ZM65.0846 41.7842C62.3638 41.7842 60.1556 44.6043 60.1556 48.079V95.8945C60.1556 99.3692 62.3638 102.189 65.0846 102.189H67.0562C68.3621 102.187 69.6138 101.522 70.5365 100.342C71.4591 99.1618 71.9774 97.5622 71.9774 95.8945V48.074C71.9763 46.4062 71.4571 44.8072 70.5337 43.6279C69.6103 42.4486 68.3582 41.7855 67.0523 41.7842H65.0807H65.0846ZM87.6635 55.7688C87.1908 54.2676 86.2832 53.0568 85.1295 52.3881C83.9758 51.7194 82.6647 51.6442 81.4687 52.1782L79.1738 53.2055C78.5458 53.4871 77.969 53.9281 77.4781 54.5021C76.9872 55.076 76.5924 55.771 76.3175 56.5451C76.0426 57.3192 75.8933 58.1564 75.8787 59.0062C75.864 59.8559 75.9842 60.7007 76.2321 61.4895L87.8134 98.2714C88.7952 101.394 91.52 102.97 94.0082 101.862L96.3031 100.835C96.9316 100.553 97.5089 100.112 98.0001 99.5376C98.4913 98.9633 98.8863 98.2678 99.1612 97.4931C99.4362 96.7185 99.5853 95.8806 99.5997 95.0303C99.614 94.18 99.4933 93.3347 99.2448 92.5457L87.6635 55.7688Z" fill="#267A95"/>
</svg>
