<svg width="144" height="144" viewBox="0 0 144 144" fill="none" xmlns="http://www.w3.org/2000/svg">
<rect width="144" height="144" rx="72" fill="#F6FAF9"/>
<path d="M108.375 55.4024L74.8149 41.5655C72.9861 40.8115 71.013 40.8115 69.1854 41.5655L35.6241 55.4024C32.792 56.5697 32.792 61.5959 35.6241 62.7632L41.4749 65.1754C40.1912 67.305 39.402 69.9029 39.3237 72.7478C38.1651 73.639 37.3494 75.2471 37.3494 77.1668C37.3494 78.9073 38.0328 80.3718 39.017 81.3082L35.9454 99.8564C35.6783 101.469 36.5926 103 37.8234 103H44.5742C45.8062 103 46.7206 101.469 46.4535 99.8564L43.3819 81.3082C44.3661 80.3718 45.0494 78.9073 45.0494 77.1668C45.0494 75.2988 44.271 73.7359 43.1653 72.8285C43.2568 70.4034 44.1808 68.2592 45.6546 66.8998L69.1842 76.6017C70.2743 77.0506 72.3653 77.6108 74.8137 76.6017L108.375 62.7648C111.208 61.5959 111.208 56.5713 108.375 55.4024ZM75.9446 81.5407C72.5121 82.9551 69.5873 82.1736 68.0533 81.5407L50.6055 74.3478L48.8995 92.6667C48.8995 98.3742 59.2416 103 71.9995 103C84.7575 103 95.0996 98.3742 95.0996 92.6667L93.3936 74.3462L75.9446 81.5407Z" fill="#267A95"/>
</svg>
