<svg width="144" height="144" viewBox="0 0 144 144" fill="none" xmlns="http://www.w3.org/2000/svg">
<rect width="144" height="144" rx="72" fill="#F6FAF9"/>
<path d="M43.8073 89.155H36.2725C35.9964 89.1555 35.7229 89.1016 35.4676 88.9961C35.2124 88.8907 34.9805 88.7359 34.7853 88.5407C34.59 88.3454 34.4352 88.1135 34.3298 87.8583C34.2244 87.6031 34.1704 87.3295 34.1709 87.0534V38.7159C34.1709 37.5495 35.1081 36.6143 36.2725 36.6143H107.728C108.894 36.6143 109.83 37.5515 109.83 38.7159V87.0534C109.83 88.2198 108.892 89.155 107.728 89.155H76.6169" fill="#A3C7D1"/>
<path d="M43.8073 89.155H36.2725C35.9964 89.1555 35.7229 89.1016 35.4676 88.9961C35.2124 88.8907 34.9805 88.7359 34.7853 88.5407C34.59 88.3454 34.4352 88.1135 34.3298 87.8583C34.2244 87.603 34.1704 87.3295 34.1709 87.0534V38.7159C34.1709 37.5495 35.1081 36.6143 36.2725 36.6143H107.728C108.894 36.6143 109.83 37.5515 109.83 38.7159V87.0534C109.83 88.2198 108.892 89.155 107.728 89.155H76.6169" stroke="#267A95" stroke-width="1.58429" stroke-linecap="round" stroke-linejoin="round"/>
<path d="M60.5287 78.1258C67.4929 78.1258 73.1385 72.4802 73.1385 65.516C73.1385 58.5518 67.4929 52.9062 60.5287 52.9062C53.5645 52.9062 47.9189 58.5518 47.9189 65.516C47.9189 72.4802 53.5645 78.1258 60.5287 78.1258Z" fill="#267A95" stroke="#267A95" stroke-width="1.58429" stroke-linecap="round" stroke-linejoin="round"/>
<path d="M39.3892 107.386H81.166C83.2042 72.2969 37.6886 70.799 39.3892 107.386ZM58.9505 36.6143V52.9996V36.6143ZM83.6769 36.6143V89.155V36.6143ZM109.83 62.8836H72.8761H109.83ZM34.1709 62.8836H48.0576H34.1709ZM83.8181 75.7942H109.83H83.8181Z" fill="#267A95"/>
<path d="M58.9505 36.6143V52.9996M83.6769 36.6143V89.155M109.83 62.8836H72.8761M34.1709 62.8836H48.0576M83.8181 75.7942H109.83M39.3892 107.386H81.166C83.2042 72.2969 37.6886 70.799 39.3892 107.386Z" stroke="#267A95" stroke-width="1.58429" stroke-linecap="round" stroke-linejoin="round"/>
</svg>
