<svg width="61" height="40" viewBox="0 0 61 40" fill="none" xmlns="http://www.w3.org/2000/svg">
<path d="M46.4628 3.42944H40.3955L39.6675 7.56795C40.8767 6.92078 41.9922 6.59719 43.014 6.59719C43.8315 6.59719 44.5937 6.75047 45.3004 7.05702C46.0157 7.36358 46.6416 7.78935 47.1781 8.33434C47.7146 8.87082 48.1361 9.50948 48.4427 10.2503C48.7492 10.9912 48.9025 11.7874 48.9025 12.6389C48.9025 13.8737 48.6257 14.9977 48.0722 16.011C47.5187 17.0244 46.7183 17.8291 45.6709 18.4252C44.632 19.0212 43.4313 19.3193 42.0688 19.3193C40.5446 19.3193 39.3056 19.0383 38.3518 18.4763C37.4066 17.9142 36.7339 17.2713 36.3337 16.5475C35.9419 15.8152 35.7461 15.1765 35.7461 14.6315C35.7461 14.2994 35.8823 13.9844 36.1548 13.6863C36.4358 13.3883 36.785 13.2393 37.2022 13.2393C37.9175 13.2393 38.4498 13.6523 38.7989 14.4783C39.1395 15.2361 39.5993 15.828 40.1784 16.2537C40.7574 16.671 41.4046 16.8796 42.1199 16.8796C42.7756 16.8796 43.3504 16.7093 43.8443 16.3687C44.3382 16.0281 44.7171 15.5597 44.9811 14.9636C45.2536 14.3675 45.3899 13.6906 45.3899 12.9327C45.3899 12.1152 45.2451 11.4169 44.9556 10.8379C44.666 10.2588 44.2786 9.82881 43.7932 9.5478C43.3078 9.25827 42.7671 9.11351 42.171 9.11351C41.4387 9.11351 40.915 9.20292 40.5999 9.38175C40.2848 9.56057 39.8293 9.87564 39.2332 10.327C38.6456 10.7698 38.1602 10.9912 37.777 10.9912C37.3598 10.9912 36.9894 10.8421 36.6658 10.5441C36.3422 10.2375 36.1804 9.89267 36.1804 9.50948C36.1804 9.4669 36.2272 9.17737 36.3209 8.6409L37.3938 2.52254C37.5131 1.79021 37.7345 1.25799 38.058 0.925889C38.3816 0.593786 38.9096 0.427734 39.6419 0.427734H46.3862C47.7146 0.427734 48.3788 0.934404 48.3788 1.94774C48.3788 2.39055 48.217 2.7482 47.8934 3.02069C47.5698 3.29319 47.0929 3.42944 46.4628 3.42944Z" fill="#267A95"/>
<path d="M30.2662 19.3193C29.7383 19.3193 29.2827 19.149 28.8995 18.8084C28.5163 18.4678 28.3247 17.9909 28.3247 17.3778C28.3247 16.8584 28.5078 16.4113 28.874 16.0366C29.2401 15.662 29.6914 15.4746 30.2279 15.4746C30.7644 15.4746 31.22 15.662 31.5946 16.0366C31.9778 16.4028 32.1694 16.8499 32.1694 17.3778C32.1694 17.9824 31.9778 18.4593 31.5946 18.8084C31.22 19.149 30.7772 19.3193 30.2662 19.3193Z" fill="#267A95"/>
<path d="M19.7541 17.3782V15.0024H13.3419C12.533 15.0024 11.9241 14.8193 11.5154 14.4532C11.1152 14.087 10.915 13.5888 10.915 12.9587C10.915 12.7969 10.9448 12.6351 11.0045 12.4733C11.0641 12.303 11.1535 12.1284 11.2727 11.9496C11.3919 11.7623 11.5154 11.5835 11.6431 11.4131C11.7708 11.2428 11.9284 11.0342 12.1157 10.7873L18.8855 1.73106C19.3283 1.13498 19.6902 0.704948 19.9712 0.440969C20.2608 0.168474 20.6056 0.0322266 21.0059 0.0322266C22.3002 0.0322266 22.9474 0.773072 22.9474 2.25476V12.1412H23.4966C24.1523 12.1412 24.676 12.2306 25.0677 12.4095C25.468 12.5883 25.6681 12.98 25.6681 13.5846C25.6681 14.0785 25.5063 14.4404 25.1827 14.6703C24.8591 14.8917 24.3737 15.0024 23.7266 15.0024H22.9474V17.3782C22.9474 18.0339 22.8026 18.5236 22.5131 18.8471C22.2236 19.1622 21.8361 19.3198 21.3507 19.3198C20.8739 19.3198 20.4864 19.158 20.1884 18.8344C19.8989 18.5023 19.7541 18.0169 19.7541 17.3782ZM14.2616 12.1412H19.7541V4.71999L14.2616 12.1412Z" fill="#267A95"/>
<path d="M57.671 39.3787C57.2106 39.3787 56.7711 39.3159 56.3525 39.1903C55.941 39.0648 55.6166 38.9113 55.3794 38.7299L55.7979 37.9347C56.0351 38.0951 56.3281 38.2312 56.6769 38.3428C57.0257 38.4544 57.3815 38.5102 57.7442 38.5102C58.2116 38.5102 58.5464 38.4439 58.7487 38.3114C58.958 38.1788 59.0627 37.994 59.0627 37.7568C59.0627 37.5824 58.9999 37.4464 58.8743 37.3487C58.7487 37.2511 58.5813 37.1778 58.372 37.129C58.1697 37.0801 57.943 37.0383 57.6919 37.0034C57.4408 36.9616 57.1896 36.9127 56.9385 36.8569C56.6874 36.7941 56.4572 36.7104 56.2479 36.6058C56.0386 36.4942 55.8712 36.3442 55.7456 36.1558C55.6201 35.9605 55.5573 35.7024 55.5573 35.3815C55.5573 35.0467 55.6515 34.7537 55.8398 34.5026C56.0282 34.2514 56.2932 34.0596 56.635 33.927C56.9838 33.7875 57.3954 33.7178 57.8698 33.7178C58.2325 33.7178 58.5988 33.7631 58.9685 33.8538C59.3452 33.9375 59.6521 34.0596 59.8893 34.22L59.4603 35.0153C59.2091 34.8479 58.9476 34.7328 58.6755 34.67C58.4034 34.6072 58.1314 34.5758 57.8593 34.5758C57.4198 34.5758 57.092 34.6491 56.8757 34.7955C56.6595 34.9351 56.5513 35.1164 56.5513 35.3397C56.5513 35.528 56.6141 35.6745 56.7397 35.7791C56.8722 35.8768 57.0397 35.9535 57.242 36.0093C57.4512 36.0652 57.6814 36.114 57.9326 36.1558C58.1837 36.1907 58.4348 36.2396 58.686 36.3023C58.9371 36.3581 59.1638 36.4384 59.3661 36.543C59.5754 36.6476 59.7428 36.7941 59.8684 36.9825C60.0009 37.1708 60.0672 37.422 60.0672 37.7359C60.0672 38.0707 59.9695 38.3602 59.7742 38.6044C59.5789 38.8485 59.3033 39.0404 58.9476 39.1799C58.5918 39.3124 58.1663 39.3787 57.671 39.3787Z" fill="#5E6978"/>
<path d="M47.9129 39.3153L45.8516 33.7695H46.8038L48.6349 38.7922H48.185L50.0894 33.7695H50.937L52.7995 38.7922H52.3601L54.2331 33.7695H55.133L53.0611 39.3153H52.0985L50.351 34.7322H50.644L48.8756 39.3153H47.9129Z" fill="#5E6978"/>
<path d="M42.9055 39.3787C42.3126 39.3787 41.7894 39.2566 41.336 39.0125C40.8895 38.7683 40.5407 38.4335 40.2896 38.0079C40.0454 37.5824 39.9233 37.0941 39.9233 36.543C39.9233 35.9919 40.0419 35.5036 40.2791 35.0781C40.5233 34.6525 40.8546 34.3212 41.2732 34.084C41.6987 33.8399 42.1765 33.7178 42.7067 33.7178C43.2439 33.7178 43.7182 33.8364 44.1298 34.0735C44.5414 34.3107 44.8623 34.6456 45.0925 35.0781C45.3296 35.5036 45.4482 36.0024 45.4482 36.5744C45.4482 36.6162 45.4447 36.6651 45.4378 36.7209C45.4378 36.7767 45.4343 36.829 45.4273 36.8778H40.7081V36.1558H44.9041L44.496 36.407C44.503 36.0512 44.4298 35.7338 44.2763 35.4548C44.1228 35.1757 43.91 34.9595 43.638 34.806C43.3729 34.6456 43.0625 34.5653 42.7067 34.5653C42.3579 34.5653 42.0475 34.6456 41.7754 34.806C41.5034 34.9595 41.2906 35.1792 41.1371 35.4652C40.9837 35.7443 40.9069 36.0652 40.9069 36.4279V36.5953C40.9069 36.965 40.9906 37.2964 41.1581 37.5894C41.3325 37.8754 41.5731 38.0986 41.8801 38.2591C42.187 38.4195 42.5393 38.4997 42.9369 38.4997C43.2648 38.4997 43.5613 38.4439 43.8263 38.3323C44.0984 38.2207 44.3356 38.0533 44.5379 37.83L45.0925 38.4788C44.8413 38.7718 44.5274 38.995 44.1507 39.1485C43.781 39.302 43.3659 39.3787 42.9055 39.3787Z" fill="#5E6978"/>
<path d="M37.5133 39.3156V33.7698H38.5179V39.3156H37.5133ZM38.0156 32.7025C37.8203 32.7025 37.6563 32.6397 37.5238 32.5142C37.3982 32.3886 37.3354 32.2351 37.3354 32.0538C37.3354 31.8654 37.3982 31.7084 37.5238 31.5829C37.6563 31.4573 37.8203 31.3945 38.0156 31.3945C38.2109 31.3945 38.3714 31.4573 38.4969 31.5829C38.6295 31.7015 38.6957 31.8515 38.6957 32.0328C38.6957 32.2212 38.633 32.3816 38.5074 32.5142C38.3818 32.6397 38.2179 32.7025 38.0156 32.7025Z" fill="#5E6978"/>
<path d="M33.1229 39.3153L30.6953 33.7695H31.7417L33.8972 38.7922H33.395L35.5924 33.7695H36.576L34.1484 39.3153H33.1229Z" fill="#5E6978"/>
<path d="M27.8333 39.3787C27.2403 39.3787 26.7171 39.2566 26.2637 39.0125C25.8172 38.7683 25.4684 38.4335 25.2173 38.0079C24.9732 37.5824 24.8511 37.0941 24.8511 36.543C24.8511 35.9919 24.9697 35.5036 25.2068 35.0781C25.451 34.6525 25.7824 34.3212 26.2009 34.084C26.6264 33.8399 27.1043 33.7178 27.6344 33.7178C28.1716 33.7178 28.6459 33.8364 29.0575 34.0735C29.4691 34.3107 29.79 34.6456 30.0202 35.0781C30.2574 35.5036 30.376 36.0024 30.376 36.5744C30.376 36.6162 30.3725 36.6651 30.3655 36.7209C30.3655 36.7767 30.362 36.829 30.355 36.8778H25.6359V36.1558H29.8318L29.4238 36.407C29.4307 36.0512 29.3575 35.7338 29.204 35.4548C29.0505 35.1757 28.8378 34.9595 28.5657 34.806C28.3006 34.6456 27.9902 34.5653 27.6344 34.5653C27.2857 34.5653 26.9752 34.6456 26.7032 34.806C26.4311 34.9595 26.2183 35.1792 26.0649 35.4652C25.9114 35.7443 25.8347 36.0652 25.8347 36.4279V36.5953C25.8347 36.965 25.9184 37.2964 26.0858 37.5894C26.2602 37.8754 26.5009 38.0986 26.8078 38.2591C27.1147 38.4195 27.467 38.4997 27.8646 38.4997C28.1925 38.4997 28.489 38.4439 28.7541 38.3323C29.0261 38.2207 29.2633 38.0533 29.4656 37.83L30.0202 38.4788C29.7691 38.7718 29.4551 38.995 29.0785 39.1485C28.7087 39.302 28.2937 39.3787 27.8333 39.3787Z" fill="#5E6978"/>
<path d="M21.1943 39.3159V33.7701H22.157V35.2769L22.0628 34.9002C22.2163 34.5165 22.4744 34.2235 22.8372 34.0212C23.1999 33.8189 23.6464 33.7178 24.1765 33.7178V34.6909C24.1347 34.6839 24.0928 34.6804 24.051 34.6804C24.0161 34.6804 23.9812 34.6804 23.9463 34.6804C23.4092 34.6804 22.9836 34.8409 22.6697 35.1618C22.3558 35.4827 22.1989 35.9466 22.1989 36.5535V39.3159H21.1943Z" fill="#5E6978"/>
<path d="M12.7527 37.9765L12.7736 36.6895L15.9651 33.7701H17.1789L14.7304 36.1768L14.1862 36.6372L12.7527 37.9765ZM11.9365 39.3159V31.5518H12.941V39.3159H11.9365ZM16.1744 39.3159L13.9979 36.6162L14.6466 35.8105L17.4091 39.3159H16.1744Z" fill="#5E6978"/>
<path d="M7.49997 39.3993C6.92795 39.3993 6.41522 39.2528 5.96179 38.9598C5.51534 38.6668 5.15957 38.2413 4.89448 37.6832C4.63638 37.1252 4.50732 36.4485 4.50732 35.6533C4.50732 34.858 4.63638 34.1814 4.89448 33.6233C5.15957 33.0652 5.51534 32.6397 5.96179 32.3467C6.41522 32.0537 6.92795 31.9072 7.49997 31.9072C8.06502 31.9072 8.57426 32.0537 9.02769 32.3467C9.48112 32.6397 9.83689 33.0652 10.095 33.6233C10.3531 34.1814 10.4822 34.858 10.4822 35.6533C10.4822 36.4485 10.3531 37.1252 10.095 37.6832C9.83689 38.2413 9.48112 38.6668 9.02769 38.9598C8.57426 39.2528 8.06502 39.3993 7.49997 39.3993ZM7.49997 38.468C7.88365 38.468 8.21849 38.3634 8.5045 38.1541C8.79748 37.9448 9.0242 37.6309 9.18465 37.2124C9.35207 36.7938 9.43578 36.2741 9.43578 35.6533C9.43578 35.0324 9.35207 34.5127 9.18465 34.0942C9.0242 33.6756 8.79748 33.3617 8.5045 33.1524C8.21849 32.9431 7.88365 32.8385 7.49997 32.8385C7.1163 32.8385 6.77797 32.9431 6.48498 33.1524C6.192 33.3617 5.96179 33.6756 5.79437 34.0942C5.63393 34.5127 5.5537 35.0324 5.5537 35.6533C5.5537 36.2741 5.63393 36.7938 5.79437 37.2124C5.96179 37.6309 6.192 37.9448 6.48498 38.1541C6.77797 38.3634 7.1163 38.468 7.49997 38.468Z" fill="#5E6978"/>
<path d="M1.8691 39.3159V32.4098L2.31904 32.9016H0.21582V31.9912H2.90502V39.3159H1.8691Z" fill="#5E6978"/>
</svg>
