<svg width="95" height="41" viewBox="0 0 95 41" fill="none" xmlns="http://www.w3.org/2000/svg">
<path d="M65.7297 18.7236L62.6514 13.6654L60.7609 15.4536V18.2254C60.7609 18.8981 60.5821 19.4176 60.2245 19.7837C59.8753 20.1414 59.4708 20.3202 59.011 20.3202C58.4745 20.3202 58.053 20.1414 57.7465 19.7837C57.4399 19.4261 57.2866 18.8981 57.2866 18.1999V3.33187C57.2866 2.55696 57.4356 1.96939 57.7337 1.56917C58.0317 1.16043 58.4575 0.956055 59.011 0.956055C59.5475 0.956055 59.9733 1.13914 60.2883 1.5053C60.6034 1.87147 60.7609 2.4122 60.7609 3.1275V11.5834L64.6823 7.47039C65.1677 6.95946 65.5381 6.61032 65.7936 6.42298C66.049 6.23564 66.3598 6.14197 66.726 6.14197C67.1603 6.14197 67.5222 6.28248 67.8117 6.56349C68.1013 6.83598 68.246 7.18086 68.246 7.59812C68.246 8.10905 67.7734 8.79028 66.8282 9.64183L64.9761 11.3407L68.5526 16.9609C68.8166 17.3781 69.0039 17.6975 69.1146 17.9189C69.2338 18.1317 69.2934 18.3361 69.2934 18.532C69.2934 19.0855 69.1401 19.524 68.8336 19.8476C68.5356 20.1627 68.1396 20.3202 67.6457 20.3202C67.2199 20.3202 66.8921 20.2053 66.6621 19.9753C66.4322 19.7454 66.1214 19.3282 65.7297 18.7236Z" fill="#267A95"/>
<path d="M53.9909 10.8168C53.9909 12.2134 53.9057 13.4141 53.7354 14.4189C53.5651 15.4237 53.25 16.3349 52.7902 17.1524C52.2112 18.1572 51.4618 18.9321 50.5421 19.4771C49.6225 20.0221 48.6006 20.2946 47.4766 20.2946C46.1822 20.2946 45.0198 19.9284 43.9895 19.1961C42.9676 18.4637 42.197 17.4504 41.6775 16.156C41.4135 15.4493 41.2177 14.6701 41.09 13.8186C40.9707 12.9585 40.9111 12.0303 40.9111 11.034C40.9111 9.74816 40.9793 8.59005 41.1155 7.55968C41.2518 6.52931 41.4646 5.6437 41.7542 4.90286C42.2566 3.67663 42.9846 2.74419 43.9384 2.10553C44.9006 1.45835 46.046 1.13477 47.3744 1.13477C48.2515 1.13477 49.0477 1.27953 49.763 1.56905C50.4783 1.85006 51.1041 2.26732 51.6406 2.82083C52.1856 3.36582 52.6454 4.0428 53.0201 4.85177C53.6673 6.25682 53.9909 8.24518 53.9909 10.8168ZM50.491 10.5614C50.491 9.00305 50.3974 7.72999 50.21 6.7422C50.0227 5.74589 49.7076 4.99653 49.2648 4.49412C48.822 3.98319 48.2089 3.72772 47.4255 3.72772C46.3014 3.72772 45.518 4.294 45.0752 5.42656C44.6409 6.55912 44.4238 8.30479 44.4238 10.6636C44.4238 12.2645 44.5174 13.5759 44.7048 14.5977C44.8921 15.6196 45.2072 16.3945 45.65 16.9224C46.0928 17.4419 46.6931 17.7016 47.451 17.7016C48.2344 17.7016 48.8475 17.4291 49.2903 16.8841C49.7332 16.3391 50.044 15.56 50.2228 14.5466C50.4016 13.5333 50.491 12.2049 50.491 10.5614Z" fill="#267A95"/>
<path d="M31.5101 18.2507V6.62709C29.3471 8.2876 27.891 9.11786 27.1416 9.11786C26.784 9.11786 26.4647 8.97735 26.1836 8.69634C25.9111 8.40682 25.7749 8.07471 25.7749 7.70003C25.7749 7.26575 25.9111 6.94641 26.1836 6.74204C26.4561 6.53767 26.9373 6.27369 27.627 5.95011C28.6574 5.46472 29.4791 4.9538 30.0922 4.41732C30.7139 3.88085 31.2631 3.28051 31.74 2.6163C32.2169 1.95209 32.5277 1.54335 32.6724 1.39007C32.8172 1.2368 33.0897 1.16016 33.4899 1.16016C33.9412 1.16016 34.3031 1.33472 34.5756 1.68386C34.8481 2.03299 34.9844 2.51412 34.9844 3.12723V17.7525C34.9844 19.4641 34.4011 20.32 33.2344 20.32C32.715 20.32 32.2977 20.1454 31.9827 19.7963C31.6676 19.4471 31.5101 18.9319 31.5101 18.2507Z" fill="#267A95"/>
<path d="M91.8643 40.3787C91.4039 40.3787 90.9644 40.3159 90.5459 40.1903C90.1343 40.0648 89.8099 39.9113 89.5728 39.7299L89.9913 38.9347C90.2285 39.0951 90.5215 39.2312 90.8703 39.3428C91.2191 39.4544 91.5748 39.5102 91.9376 39.5102C92.405 39.5102 92.7398 39.4439 92.9421 39.3114C93.1514 39.1788 93.256 38.994 93.256 38.7568C93.256 38.5824 93.1932 38.4464 93.0677 38.3487C92.9421 38.2511 92.7747 38.1778 92.5654 38.129C92.3631 38.0801 92.1364 38.0383 91.8853 38.0034C91.6341 37.9616 91.383 37.9127 91.1319 37.8569C90.8807 37.7941 90.6505 37.7104 90.4413 37.6058C90.232 37.4942 90.0646 37.3442 89.939 37.1558C89.8134 36.9605 89.7506 36.7024 89.7506 36.3815C89.7506 36.0467 89.8448 35.7537 90.0332 35.5026C90.2215 35.2514 90.4866 35.0596 90.8284 34.927C91.1772 34.7875 91.5888 34.7178 92.0631 34.7178C92.4259 34.7178 92.7921 34.7631 93.1618 34.8538C93.5385 34.9375 93.8455 35.0596 94.0827 35.22L93.6536 36.0153C93.4025 35.8479 93.1409 35.7328 92.8689 35.67C92.5968 35.6072 92.3247 35.5758 92.0527 35.5758C91.6132 35.5758 91.2853 35.6491 91.0691 35.7955C90.8528 35.9351 90.7447 36.1164 90.7447 36.3397C90.7447 36.528 90.8075 36.6745 90.9331 36.7791C91.0656 36.8768 91.233 36.9535 91.4353 37.0093C91.6446 37.0652 91.8748 37.114 92.1259 37.1558C92.3771 37.1907 92.6282 37.2396 92.8793 37.3023C93.1304 37.3581 93.3572 37.4384 93.5595 37.543C93.7687 37.6476 93.9362 37.7941 94.0617 37.9825C94.1943 38.1708 94.2605 38.422 94.2605 38.7359C94.2605 39.0707 94.1629 39.3602 93.9676 39.6044C93.7722 39.8485 93.4967 40.0404 93.1409 40.1799C92.7851 40.3124 92.3596 40.3787 91.8643 40.3787Z" fill="#5E6978"/>
<path d="M87.8457 40.379C87.2876 40.379 86.8551 40.2291 86.5481 39.9291C86.2412 39.6291 86.0877 39.2001 86.0877 38.642V33.5566H87.0923V38.6002C87.0923 38.9002 87.1655 39.1304 87.312 39.2908C87.4655 39.4513 87.6817 39.5315 87.9608 39.5315C88.2747 39.5315 88.5363 39.4443 88.7455 39.2699L89.0595 39.9919C88.906 40.1244 88.7211 40.2221 88.5049 40.2849C88.2956 40.3476 88.0759 40.379 87.8457 40.379ZM85.146 35.5971V34.7704H88.6828V35.5971H85.146Z" fill="#5E6978"/>
<path d="M81.7801 34.7178C82.2335 34.7178 82.6312 34.805 82.973 34.9794C83.3218 35.1538 83.5938 35.4188 83.7892 35.7746C83.9845 36.1304 84.0821 36.5803 84.0821 37.1244V40.3159H83.0776V37.2396C83.0776 36.7024 82.9451 36.2978 82.68 36.0257C82.4219 35.7537 82.0557 35.6177 81.5813 35.6177C81.2255 35.6177 80.9151 35.6874 80.65 35.8269C80.3849 35.9665 80.1791 36.1722 80.0326 36.4443C79.8931 36.7164 79.8234 37.0547 79.8234 37.4593V40.3159H78.8188V34.7701H79.7815V36.2664L79.6246 35.8688C79.8059 35.506 80.085 35.2235 80.4617 35.0212C80.8384 34.8189 81.2778 34.7178 81.7801 34.7178Z" fill="#5E6978"/>
<path d="M74.8816 40.3787C74.2887 40.3787 73.7655 40.2566 73.312 40.0125C72.8656 39.7683 72.5168 39.4335 72.2656 39.0079C72.0215 38.5824 71.8994 38.0941 71.8994 37.543C71.8994 36.9919 72.018 36.5036 72.2552 36.0781C72.4993 35.6525 72.8307 35.3212 73.2492 35.084C73.6748 34.8399 74.1526 34.7178 74.6828 34.7178C75.2199 34.7178 75.6943 34.8364 76.1059 35.0735C76.5174 35.3107 76.8383 35.6456 77.0685 36.0781C77.3057 36.5036 77.4243 37.0024 77.4243 37.5744C77.4243 37.6162 77.4208 37.6651 77.4138 37.7209C77.4138 37.7767 77.4104 37.829 77.4034 37.8778H72.6842V37.1558H76.8802L76.4721 37.407C76.4791 37.0512 76.4058 36.7338 76.2524 36.4548C76.0989 36.1757 75.8861 35.9595 75.6141 35.806C75.349 35.6456 75.0386 35.5653 74.6828 35.5653C74.334 35.5653 74.0236 35.6456 73.7515 35.806C73.4795 35.9595 73.2667 36.1792 73.1132 36.4652C72.9598 36.7443 72.883 37.0652 72.883 37.4279V37.5953C72.883 37.965 72.9667 38.2964 73.1341 38.5894C73.3085 38.8754 73.5492 39.0986 73.8561 39.2591C74.1631 39.4195 74.5154 39.4997 74.913 39.4997C75.2409 39.4997 75.5373 39.4439 75.8024 39.3323C76.0745 39.2207 76.3117 39.0533 76.514 38.83L77.0685 39.4788C76.8174 39.7718 76.5035 39.995 76.1268 40.1485C75.7571 40.302 75.342 40.3787 74.8816 40.3787Z" fill="#5E6978"/>
<path d="M67.5709 40.3787C67.0338 40.3787 66.5524 40.2601 66.1269 40.0229C65.7083 39.7857 65.377 39.4544 65.1328 39.0289C64.8887 38.6033 64.7666 38.108 64.7666 37.543C64.7666 36.9779 64.8887 36.4861 65.1328 36.0676C65.377 35.6421 65.7083 35.3107 66.1269 35.0735C66.5524 34.8364 67.0338 34.7178 67.5709 34.7178C68.0383 34.7178 68.4603 34.8224 68.837 35.0317C69.2137 35.241 69.5137 35.5549 69.7369 35.9734C69.9671 36.392 70.0822 36.9152 70.0822 37.543C70.0822 38.1708 69.9706 38.694 69.7474 39.1126C69.5311 39.5311 69.2347 39.8485 68.858 40.0648C68.4813 40.274 68.0522 40.3787 67.5709 40.3787ZM67.6546 39.4997C68.0034 39.4997 68.3173 39.4195 68.5964 39.2591C68.8824 39.0986 69.1056 38.8719 69.266 38.5789C69.4335 38.2789 69.5172 37.9336 69.5172 37.543C69.5172 37.1454 69.4335 36.8035 69.266 36.5175C69.1056 36.2246 68.8824 35.9978 68.5964 35.8374C68.3173 35.6769 68.0034 35.5967 67.6546 35.5967C67.2988 35.5967 66.9814 35.6769 66.7024 35.8374C66.4234 35.9978 66.2001 36.2246 66.0327 36.5175C65.8653 36.8035 65.7816 37.1454 65.7816 37.543C65.7816 37.9336 65.8653 38.2789 66.0327 38.5789C66.2001 38.8719 66.4234 39.0986 66.7024 39.2591C66.9814 39.4195 67.2988 39.4997 67.6546 39.4997ZM69.5486 40.3159V38.8196L69.6113 37.5325L69.5067 36.2455V32.5518H70.5112V40.3159H69.5486Z" fill="#5E6978"/>
<path d="M60.5313 40.3791C60.0569 40.3791 59.6383 40.2919 59.2756 40.1175C58.9198 39.9431 58.6408 39.678 58.4385 39.3223C58.2432 38.9595 58.1455 38.5061 58.1455 37.962V34.7705H59.15V37.8469C59.15 38.391 59.2791 38.7991 59.5372 39.0711C59.8023 39.3432 60.172 39.4792 60.6464 39.4792C60.9952 39.4792 61.2986 39.4095 61.5567 39.2699C61.8148 39.1235 62.0136 38.9142 62.1531 38.6421C62.2927 38.3631 62.3624 38.0282 62.3624 37.6376V34.7705H63.3669V40.3163H62.4147V38.82L62.5717 39.2176C62.3903 39.5873 62.1183 39.8734 61.7555 40.0757C61.3928 40.278 60.9847 40.3791 60.5313 40.3791Z" fill="#5E6978"/>
<path d="M55.7695 40.379C55.2114 40.379 54.7789 40.2291 54.472 39.9291C54.165 39.6291 54.0116 39.2001 54.0116 38.642V33.5566H55.0161V38.6002C55.0161 38.9002 55.0893 39.1304 55.2358 39.2908C55.3893 39.4513 55.6056 39.5315 55.8846 39.5315C56.1985 39.5315 56.4601 39.4443 56.6694 39.2699L56.9833 39.9919C56.8298 40.1244 56.645 40.2221 56.4287 40.2849C56.2194 40.3476 55.9997 40.379 55.7695 40.379ZM53.0698 35.5971V34.7704H56.6066V35.5971H53.0698Z" fill="#5E6978"/>
<path d="M49.6476 40.3993C49.0895 40.3993 48.5558 40.3156 48.0466 40.1482C47.5374 39.9738 47.1362 39.7506 46.8433 39.4785L47.2304 38.6623C47.5095 38.9065 47.8652 39.1088 48.2977 39.2692C48.7302 39.4297 49.1802 39.5099 49.6476 39.5099C50.0731 39.5099 50.4184 39.4611 50.6835 39.3634C50.9486 39.2657 51.1439 39.1332 51.2695 38.9658C51.395 38.7914 51.4578 38.596 51.4578 38.3798C51.4578 38.1287 51.3741 37.9264 51.2067 37.7729C51.0462 37.6194 50.8335 37.4973 50.5684 37.4067C50.3103 37.309 50.0243 37.2253 49.7103 37.1555C49.3964 37.0858 49.079 37.0055 48.7581 36.9149C48.4442 36.8172 48.1547 36.6951 47.8896 36.5486C47.6315 36.4021 47.4223 36.2068 47.2618 35.9627C47.1014 35.7115 47.0211 35.3906 47.0211 35C47.0211 34.6233 47.1188 34.278 47.3141 33.9641C47.5164 33.6432 47.8234 33.3886 48.2349 33.2002C48.6535 33.0049 49.1837 32.9072 49.8254 32.9072C50.251 32.9072 50.673 32.963 51.0916 33.0746C51.5101 33.1863 51.8729 33.3467 52.1798 33.556L51.8345 34.3931C51.5206 34.1838 51.1892 34.0338 50.8404 33.9431C50.4916 33.8455 50.1533 33.7966 49.8254 33.7966C49.4139 33.7966 49.0755 33.849 48.8105 33.9536C48.5454 34.0582 48.35 34.1978 48.2245 34.3722C48.1059 34.5466 48.0466 34.7419 48.0466 34.9581C48.0466 35.2162 48.1268 35.422 48.2873 35.5755C48.4547 35.729 48.6675 35.851 48.9256 35.9417C49.1906 36.0324 49.4801 36.1161 49.7941 36.1929C50.108 36.2626 50.4219 36.3428 50.7358 36.4335C51.0567 36.5242 51.3462 36.6428 51.6043 36.7893C51.8694 36.9358 52.0821 37.1311 52.2426 37.3753C52.403 37.6194 52.4833 37.9333 52.4833 38.317C52.4833 38.6867 52.3821 39.032 52.1798 39.3529C51.9775 39.6668 51.6636 39.9215 51.2381 40.1168C50.8195 40.3051 50.2893 40.3993 49.6476 40.3993Z" fill="#5E6978"/>
<path d="M39.7149 40.3787C39.1778 40.3787 38.6965 40.2601 38.2709 40.0229C37.8524 39.7857 37.521 39.4544 37.2769 39.0289C37.0327 38.6033 36.9106 38.108 36.9106 37.543C36.9106 36.9779 37.0327 36.4861 37.2769 36.0676C37.521 35.6421 37.8524 35.3107 38.2709 35.0735C38.6965 34.8364 39.1778 34.7178 39.7149 34.7178C40.1823 34.7178 40.6044 34.8224 40.9811 35.0317C41.3578 35.241 41.6577 35.5549 41.881 35.9734C42.1112 36.392 42.2263 36.9152 42.2263 37.543C42.2263 38.1708 42.1146 38.694 41.8914 39.1126C41.6752 39.5311 41.3787 39.8485 41.002 40.0648C40.6253 40.274 40.1963 40.3787 39.7149 40.3787ZM39.7987 39.4997C40.1474 39.4997 40.4614 39.4195 40.7404 39.2591C41.0264 39.0986 41.2496 38.8719 41.4101 38.5789C41.5775 38.2789 41.6612 37.9336 41.6612 37.543C41.6612 37.1454 41.5775 36.8035 41.4101 36.5175C41.2496 36.2246 41.0264 35.9978 40.7404 35.8374C40.4614 35.6769 40.1474 35.5967 39.7987 35.5967C39.4429 35.5967 39.1255 35.6769 38.8464 35.8374C38.5674 35.9978 38.3442 36.2246 38.1768 36.5175C38.0093 36.8035 37.9256 37.1454 37.9256 37.543C37.9256 37.9336 38.0093 38.2789 38.1768 38.5789C38.3442 38.8719 38.5674 39.0986 38.8464 39.2591C39.1255 39.4195 39.4429 39.4997 39.7987 39.4997ZM41.6926 40.3159V38.8196L41.7554 37.5325L41.6507 36.2455V32.5518H42.6553V40.3159H41.6926Z" fill="#5E6978"/>
<path d="M33.4861 40.3787C32.8931 40.3787 32.37 40.2566 31.9165 40.0125C31.4701 39.7683 31.1213 39.4335 30.8701 39.0079C30.626 38.5824 30.5039 38.0941 30.5039 37.543C30.5039 36.9919 30.6225 36.5036 30.8597 36.0781C31.1038 35.6525 31.4352 35.3212 31.8537 35.084C32.2793 34.8399 32.7571 34.7178 33.2873 34.7178C33.8244 34.7178 34.2988 34.8364 34.7104 35.0735C35.1219 35.3107 35.4428 35.6456 35.673 36.0781C35.9102 36.5036 36.0288 37.0024 36.0288 37.5744C36.0288 37.6162 36.0253 37.6651 36.0183 37.7209C36.0183 37.7767 36.0148 37.829 36.0079 37.8778H31.2887V37.1558H35.4847L35.0766 37.407C35.0836 37.0512 35.0103 36.7338 34.8568 36.4548C34.7034 36.1757 34.4906 35.9595 34.2186 35.806C33.9535 35.6456 33.643 35.5653 33.2873 35.5653C32.9385 35.5653 32.6281 35.6456 32.356 35.806C32.0839 35.9595 31.8712 36.1792 31.7177 36.4652C31.5642 36.7443 31.4875 37.0652 31.4875 37.4279V37.5953C31.4875 37.965 31.5712 38.2964 31.7386 38.5894C31.913 38.8754 32.1537 39.0986 32.4606 39.2591C32.7676 39.4195 33.1199 39.4997 33.5175 39.4997C33.8453 39.4997 34.1418 39.4439 34.4069 39.3323C34.679 39.2207 34.9161 39.0533 35.1184 38.83L35.673 39.4788C35.4219 39.7718 35.108 39.995 34.7313 40.1485C34.3616 40.302 33.9465 40.3787 33.4861 40.3787Z" fill="#5E6978"/>
<path d="M28.0942 40.3159V32.5518H29.0988V40.3159H28.0942Z" fill="#5E6978"/>
<path d="M25.1714 40.3159V32.5518H26.1759V40.3159H25.1714Z" fill="#5E6978"/>
<path d="M20.9046 40.3787C20.3465 40.3787 19.8513 40.2566 19.4188 40.0125C18.9862 39.7683 18.6444 39.4335 18.3933 39.0079C18.1422 38.5754 18.0166 38.0871 18.0166 37.543C18.0166 36.9919 18.1422 36.5036 18.3933 36.0781C18.6444 35.6525 18.9862 35.3212 19.4188 35.084C19.8513 34.8399 20.3465 34.7178 20.9046 34.7178C21.4557 34.7178 21.9475 34.8399 22.38 35.084C22.8195 35.3212 23.1613 35.6525 23.4055 36.0781C23.6566 36.4966 23.7822 36.9849 23.7822 37.543C23.7822 38.0941 23.6566 38.5824 23.4055 39.0079C23.1613 39.4335 22.8195 39.7683 22.38 40.0125C21.9475 40.2566 21.4557 40.3787 20.9046 40.3787ZM20.9046 39.4997C21.2604 39.4997 21.5778 39.4195 21.8568 39.2591C22.1428 39.0986 22.3661 38.8719 22.5265 38.5789C22.6869 38.279 22.7672 37.9336 22.7672 37.543C22.7672 37.1454 22.6869 36.8036 22.5265 36.5175C22.3661 36.2246 22.1428 35.9978 21.8568 35.8374C21.5778 35.677 21.2604 35.5967 20.9046 35.5967C20.5488 35.5967 20.2314 35.677 19.9524 35.8374C19.6734 35.9978 19.4501 36.2246 19.2827 36.5175C19.1153 36.8036 19.0316 37.1454 19.0316 37.543C19.0316 37.9336 19.1153 38.279 19.2827 38.5789C19.4501 38.8719 19.6734 39.0986 19.9524 39.2591C20.2314 39.4195 20.5488 39.4997 20.9046 39.4997Z" fill="#5E6978"/>
<path d="M14.3604 40.3159V34.7701H15.323V36.2769L15.2288 35.9002C15.3823 35.5165 15.6404 35.2235 16.0032 35.0212C16.3659 34.8189 16.8124 34.7178 17.3425 34.7178V35.6909C17.3007 35.6839 17.2588 35.6804 17.217 35.6804C17.1821 35.6804 17.1472 35.6804 17.1123 35.6804C16.5752 35.6804 16.1497 35.8409 15.8357 36.1618C15.5218 36.4827 15.3649 36.9466 15.3649 37.5535V40.3159H14.3604Z" fill="#5E6978"/>
<path d="M10.199 34.7178C10.6525 34.7178 11.0501 34.805 11.3919 34.9794C11.7407 35.1538 12.0128 35.4188 12.2081 35.7746C12.4034 36.1304 12.5011 36.5803 12.5011 37.1244V40.3159H11.4966V37.2396C11.4966 36.7024 11.364 36.2978 11.0989 36.0257C10.8408 35.7537 10.4746 35.6177 10.0002 35.6177C9.64447 35.6177 9.33404 35.6874 9.06896 35.8269C8.80388 35.9665 8.59809 36.1722 8.45159 36.4443C8.31208 36.7164 8.24232 37.0547 8.24232 37.4593V40.3159H7.23779V34.7701H8.20046V36.2664L8.04351 35.8688C8.22488 35.506 8.50391 35.2235 8.88061 35.0212C9.25731 34.8189 9.69679 34.7178 10.199 34.7178Z" fill="#5E6978"/>
<path d="M1.32672 36.1513H5.09369V37.0407H1.32672V36.1513ZM1.42089 39.4055H5.69012V40.3159H0.374512V32.9912H5.54363V33.9016H1.42089V39.4055Z" fill="#5E6978"/>
</svg>
