<svg width="70" height="43" viewBox="0 0 70 43" fill="none" xmlns="http://www.w3.org/2000/svg">
<path d="M54.5905 17.3045H51.295V12.4379H46.4028V9.09135H51.295V4.19922H54.5905V9.09135H59.5081V12.4379H54.5905V17.3045Z" fill="#267A95"/>
<path d="M40.821 18.7226L37.7427 13.6644L35.8522 15.4527V18.2244C35.8522 18.8972 35.6734 19.4166 35.3158 19.7828C34.9666 20.1404 34.5621 20.3192 34.1023 20.3192C33.5658 20.3192 33.1443 20.1404 32.8378 19.7828C32.5312 19.4251 32.3779 18.8972 32.3779 18.1989V3.33089C32.3779 2.55599 32.527 1.96842 32.825 1.56819C33.123 1.15945 33.5488 0.955078 34.1023 0.955078C34.6388 0.955078 35.0646 1.13816 35.3796 1.50433C35.6947 1.87049 35.8522 2.41122 35.8522 3.12652V11.5824L39.7736 7.46941C40.259 6.95848 40.6294 6.60935 40.8849 6.42201C41.1403 6.23467 41.4512 6.141 41.8173 6.141C42.2516 6.141 42.6135 6.2815 42.903 6.56251C43.1926 6.83501 43.3373 7.17988 43.3373 7.59714C43.3373 8.10807 42.8647 8.78931 41.9195 9.64085L40.0674 11.3397L43.6439 16.9599C43.9079 17.3772 44.0952 17.6965 44.2059 17.9179C44.3251 18.1308 44.3847 18.3351 44.3847 18.531C44.3847 19.0845 44.2315 19.5231 43.9249 19.8466C43.6269 20.1617 43.2309 20.3192 42.737 20.3192C42.3112 20.3192 41.9834 20.2043 41.7535 19.9744C41.5235 19.7445 41.2127 19.3272 40.821 18.7226Z" fill="#267A95"/>
<path d="M22.1595 18.2497V6.62611C19.9966 8.28662 18.5404 9.11688 17.791 9.11688C17.4334 9.11688 17.1141 8.97638 16.8331 8.69537C16.5606 8.40584 16.4243 8.07374 16.4243 7.69906C16.4243 7.26477 16.5606 6.94544 16.8331 6.74107C17.1056 6.5367 17.5867 6.27272 18.2764 5.94913C19.3068 5.46375 20.1285 4.95282 20.7417 4.41635C21.3633 3.87987 21.9125 3.27953 22.3894 2.61532C22.8663 1.95112 23.1771 1.54238 23.3218 1.3891C23.4666 1.23582 23.7391 1.15918 24.1393 1.15918C24.5906 1.15918 24.9526 1.33375 25.225 1.68288C25.4975 2.03201 25.6338 2.51314 25.6338 3.12625V17.7516C25.6338 19.4632 25.0505 20.319 23.8839 20.319C23.3644 20.319 22.9472 20.1444 22.6321 19.7953C22.317 19.4461 22.1595 18.931 22.1595 18.2497Z" fill="#267A95"/>
<path d="M67.5743 40.3777C67.1139 40.3777 66.6744 40.3149 66.2559 40.1894C65.8443 40.0638 65.5199 39.9103 65.2827 39.729L65.7013 38.9337C65.9385 39.0942 66.2314 39.2302 66.5802 39.3418C66.929 39.4534 67.2848 39.5092 67.6475 39.5092C68.1149 39.5092 68.4498 39.4429 68.6521 39.3104C68.8613 39.1779 68.966 38.993 68.966 38.7558C68.966 38.5814 68.9032 38.4454 68.7776 38.3477C68.6521 38.2501 68.4846 38.1768 68.2754 38.128C68.0731 38.0792 67.8463 38.0373 67.5952 38.0024C67.3441 37.9606 67.093 37.9117 66.8418 37.8559C66.5907 37.7932 66.3605 37.7094 66.1512 37.6048C65.9419 37.4932 65.7745 37.3432 65.6489 37.1549C65.5234 36.9595 65.4606 36.7014 65.4606 36.3805C65.4606 36.0457 65.5548 35.7527 65.7431 35.5016C65.9315 35.2505 66.1966 35.0586 66.5384 34.9261C66.8872 34.7866 67.2987 34.7168 67.7731 34.7168C68.1358 34.7168 68.5021 34.7621 68.8718 34.8528C69.2485 34.9365 69.5554 35.0586 69.7926 35.2191L69.3636 36.0143C69.1125 35.8469 68.8509 35.7318 68.5788 35.669C68.3068 35.6062 68.0347 35.5748 67.7626 35.5748C67.3232 35.5748 66.9953 35.6481 66.779 35.7946C66.5628 35.9341 66.4547 36.1155 66.4547 36.3387C66.4547 36.527 66.5174 36.6735 66.643 36.7782C66.7756 36.8758 66.943 36.9526 67.1453 37.0084C67.3545 37.0642 67.5848 37.113 67.8359 37.1549C68.087 37.1897 68.3381 37.2386 68.5893 37.3014C68.8404 37.3572 69.0671 37.4374 69.2694 37.542C69.4787 37.6467 69.6461 37.7932 69.7717 37.9815C69.9042 38.1699 69.9705 38.421 69.9705 38.7349C69.9705 39.0697 69.8728 39.3592 69.6775 39.6034C69.4822 39.8475 69.2066 40.0394 68.8509 40.1789C68.4951 40.3114 68.0696 40.3777 67.5743 40.3777Z" fill="#5E6978"/>
<path d="M61.7021 40.3149V34.7691H62.6648V36.2759L62.5706 35.8992C62.7241 35.5155 62.9822 35.2225 63.345 35.0202C63.7077 34.8179 64.1542 34.7168 64.6843 34.7168V35.6899C64.6425 35.683 64.6006 35.6795 64.5588 35.6795C64.5239 35.6795 64.489 35.6795 64.4541 35.6795C63.917 35.6795 63.4915 35.8399 63.1775 36.1608C62.8636 36.4817 62.7067 36.9456 62.7067 37.5525V40.3149H61.7021Z" fill="#5E6978"/>
<path d="M57.4354 40.3777C56.8773 40.3777 56.382 40.2556 55.9495 40.0115C55.517 39.7673 55.1752 39.4325 54.9241 39.007C54.6729 38.5745 54.5474 38.0861 54.5474 37.542C54.5474 36.9909 54.6729 36.5026 54.9241 36.0771C55.1752 35.6516 55.517 35.3202 55.9495 35.083C56.382 34.8389 56.8773 34.7168 57.4354 34.7168C57.9865 34.7168 58.4783 34.8389 58.9108 35.083C59.3503 35.3202 59.6921 35.6516 59.9362 36.0771C60.1874 36.4956 60.3129 36.984 60.3129 37.542C60.3129 38.0931 60.1874 38.5814 59.9362 39.007C59.6921 39.4325 59.3503 39.7673 58.9108 40.0115C58.4783 40.2556 57.9865 40.3777 57.4354 40.3777ZM57.4354 39.4988C57.7911 39.4988 58.1085 39.4185 58.3876 39.2581C58.6736 39.0976 58.8968 38.8709 59.0573 38.5779C59.2177 38.278 59.2979 37.9327 59.2979 37.542C59.2979 37.1444 59.2177 36.8026 59.0573 36.5166C58.8968 36.2236 58.6736 35.9969 58.3876 35.8364C58.1085 35.676 57.7911 35.5958 57.4354 35.5958C57.0796 35.5958 56.7622 35.676 56.4832 35.8364C56.2041 35.9969 55.9809 36.2236 55.8135 36.5166C55.6461 36.8026 55.5624 37.1444 55.5624 37.542C55.5624 37.9327 55.6461 38.278 55.8135 38.5779C55.9809 38.8709 56.2041 39.0976 56.4832 39.2581C56.7622 39.4185 57.0796 39.4988 57.4354 39.4988Z" fill="#5E6978"/>
<path d="M52.8159 40.3781C52.2578 40.3781 51.8253 40.2281 51.5184 39.9281C51.2114 39.6282 51.058 39.1991 51.058 38.6411V33.5557H52.0625V38.5992C52.0625 38.8992 52.1357 39.1294 52.2822 39.2898C52.4357 39.4503 52.6519 39.5305 52.931 39.5305C53.2449 39.5305 53.5065 39.4433 53.7158 39.2689L54.0297 39.9909C53.8762 40.1234 53.6913 40.2211 53.4751 40.2839C53.2658 40.3467 53.0461 40.3781 52.8159 40.3781ZM50.1162 35.5961V34.7695H53.653V35.5961H50.1162Z" fill="#5E6978"/>
<path d="M46.1636 40.3781C45.6892 40.3781 45.2707 40.2909 44.9079 40.1165C44.5522 39.9421 44.2731 39.6771 44.0708 39.3213C43.8755 38.9585 43.7778 38.5051 43.7778 37.961V34.7695H44.7824V37.8459C44.7824 38.39 44.9114 38.7981 45.1695 39.0702C45.4346 39.3422 45.8043 39.4782 46.2787 39.4782C46.6275 39.4782 46.9309 39.4085 47.189 39.269C47.4471 39.1225 47.646 38.9132 47.7855 38.6411C47.925 38.3621 47.9947 38.0273 47.9947 37.6366V34.7695H48.9993V40.3153H48.0471V38.819L48.204 39.2166C48.0226 39.5864 47.7506 39.8724 47.3878 40.0747C47.0251 40.277 46.617 40.3781 46.1636 40.3781Z" fill="#5E6978"/>
<path d="M39.4224 40.3149V33.9006H36.9111V32.9902H42.9697V33.9006H40.4584V40.3149H39.4224Z" fill="#5E6978"/>
<path d="M32.583 40.3781C32.0249 40.3781 31.5924 40.2281 31.2854 39.9281C30.9785 39.6282 30.825 39.1991 30.825 38.6411V33.5557H31.8296V38.5992C31.8296 38.8992 31.9028 39.1294 32.0493 39.2898C32.2028 39.4503 32.419 39.5305 32.6981 39.5305C33.012 39.5305 33.2736 39.4433 33.4828 39.2689L33.7968 39.9909C33.6433 40.1234 33.4584 40.2211 33.2422 40.2839C33.0329 40.3467 32.8132 40.3781 32.583 40.3781ZM29.8833 35.5961V34.7695H33.4201V35.5961H29.8833Z" fill="#5E6978"/>
<path d="M26.2334 40.3149V34.7691H27.1961V36.2759L27.1019 35.8992C27.2554 35.5155 27.5135 35.2225 27.8762 35.0202C28.239 34.8179 28.6854 34.7168 29.2156 34.7168V35.6899C29.1737 35.683 29.1319 35.6795 29.09 35.6795C29.0551 35.6795 29.0203 35.6795 28.9854 35.6795C28.4482 35.6795 28.0227 35.8399 27.7088 36.1608C27.3949 36.4817 27.2379 36.9456 27.2379 37.5525V40.3149H26.2334Z" fill="#5E6978"/>
<path d="M22.2961 40.3777C21.7032 40.3777 21.18 40.2556 20.7266 40.0115C20.2801 39.7673 19.9313 39.4325 19.6802 39.007C19.436 38.5814 19.314 38.0931 19.314 37.542C19.314 36.9909 19.4326 36.5026 19.6697 36.0771C19.9139 35.6516 20.2452 35.3202 20.6638 35.083C21.0893 34.8389 21.5672 34.7168 22.0973 34.7168C22.6345 34.7168 23.1088 34.8354 23.5204 35.0726C23.932 35.3097 24.2529 35.6446 24.4831 36.0771C24.7203 36.5026 24.8389 37.0014 24.8389 37.5734C24.8389 37.6153 24.8354 37.6641 24.8284 37.7199C24.8284 37.7757 24.8249 37.828 24.8179 37.8769H20.0987V37.1549H24.2947L23.8866 37.406C23.8936 37.0502 23.8204 36.7328 23.6669 36.4538C23.5134 36.1748 23.3007 35.9585 23.0286 35.805C22.7635 35.6446 22.4531 35.5644 22.0973 35.5644C21.7485 35.5644 21.4381 35.6446 21.1661 35.805C20.894 35.9585 20.6812 36.1782 20.5278 36.4643C20.3743 36.7433 20.2976 37.0642 20.2976 37.4269V37.5943C20.2976 37.9641 20.3813 38.2954 20.5487 38.5884C20.7231 38.8744 20.9638 39.0976 21.2707 39.2581C21.5776 39.4185 21.9299 39.4988 22.3275 39.4988C22.6554 39.4988 22.9519 39.4429 23.217 39.3313C23.489 39.2197 23.7262 39.0523 23.9285 38.8291L24.4831 39.4778C24.232 39.7708 23.918 39.994 23.5413 40.1475C23.1716 40.301 22.7566 40.3777 22.2961 40.3777Z" fill="#5E6978"/>
<path d="M15.6342 40.3777C15.1738 40.3777 14.7517 40.2731 14.3681 40.0638C13.9914 39.8475 13.6879 39.5301 13.4577 39.1116C13.2345 38.693 13.1229 38.1699 13.1229 37.542C13.1229 36.9142 13.231 36.391 13.4472 35.9725C13.6705 35.5539 13.9704 35.24 14.3471 35.0307C14.7308 34.8214 15.1598 34.7168 15.6342 34.7168C16.1783 34.7168 16.6596 34.8354 17.0782 35.0726C17.4967 35.3097 17.8281 35.6411 18.0722 36.0666C18.3164 36.4852 18.4385 36.977 18.4385 37.542C18.4385 38.1071 18.3164 38.6024 18.0722 39.0279C17.8281 39.4534 17.4967 39.7848 17.0782 40.0219C16.6596 40.2591 16.1783 40.3777 15.6342 40.3777ZM12.6938 42.3449V34.7691H13.6565V36.2654L13.5937 37.5525L13.6984 38.8395V42.3449H12.6938ZM15.5505 39.4988C15.9062 39.4988 16.2236 39.4185 16.5027 39.2581C16.7887 39.0976 17.0119 38.8709 17.1724 38.5779C17.3398 38.278 17.4235 37.9327 17.4235 37.542C17.4235 37.1444 17.3398 36.8026 17.1724 36.5166C17.0119 36.2236 16.7887 35.9969 16.5027 35.8364C16.2236 35.676 15.9062 35.5958 15.5505 35.5958C15.2017 35.5958 14.8843 35.676 14.5983 35.8364C14.3192 35.9969 14.096 36.2236 13.9286 36.5166C13.7681 36.8026 13.6879 37.1444 13.6879 37.542C13.6879 37.9327 13.7681 38.278 13.9286 38.5779C14.096 38.8709 14.3192 39.0976 14.5983 39.2581C14.8843 39.4185 15.2017 39.4988 15.5505 39.4988Z" fill="#5E6978"/>
<path d="M6.11475 40.3153L8.50049 37.2181L8.49003 37.7308L6.21938 34.7695H7.33901L9.076 37.0506H8.64699L10.384 34.7695H11.4827L9.18064 37.7517L9.1911 37.2181L11.5978 40.3153H10.4572L8.62606 37.8877L9.03415 37.9505L7.23437 40.3153H6.11475Z" fill="#5E6978"/>
<path d="M1.13189 36.1503H4.89886V37.0397H1.13189V36.1503ZM1.22607 39.4045H5.4953V40.3149H0.179688V32.9902H5.34881V33.9006H1.22607V39.4045Z" fill="#5E6978"/>
</svg>
