<svg width="43" height="42" viewBox="0 0 43 42" fill="none" xmlns="http://www.w3.org/2000/svg">
<path d="M31.5527 16.2051C31.5527 16.3712 31.5139 16.6701 31.4365 17.1018C31.359 17.5335 31.2538 18.0482 31.121 18.646C30.9992 19.2327 30.8553 19.8747 30.6893 20.5721C30.5232 21.2695 30.3516 21.9724 30.1745 22.6808C29.9974 23.3782 29.8203 24.059 29.6432 24.7232C29.4661 25.3763 29.3 25.9574 29.1451 26.4666C29.0012 26.9648 28.8739 27.3688 28.7632 27.6787C28.6635 27.9776 28.5916 28.1271 28.5473 28.1271C28.4587 28.1271 28.3702 28.0717 28.2816 27.961C28.2041 27.8614 28.1322 27.7396 28.0658 27.5957C27.9994 27.4518 27.944 27.3024 27.8997 27.1474C27.8665 26.9924 27.8499 26.8651 27.8499 26.7655C28.1267 25.1161 28.3647 23.738 28.5639 22.631C28.7742 21.513 28.9513 20.6053 29.0952 19.9079C29.2613 19.0998 29.4052 18.4578 29.527 17.9818C29.2945 17.9597 29.0565 17.9486 28.813 17.9486C28.5694 17.9486 28.3314 17.9265 28.099 17.8822C27.8112 17.8711 27.5455 17.849 27.302 17.8158C27.0917 17.7936 26.8869 17.7659 26.6876 17.7327C26.4884 17.6885 26.35 17.6386 26.2725 17.5833C26.2282 17.5612 26.1895 17.4892 26.1563 17.3674C26.1231 17.2457 26.0899 17.1128 26.0567 16.9689C26.0345 16.825 26.0179 16.6922 26.0068 16.5704C25.9958 16.4376 25.9902 16.3435 25.9902 16.2882C25.9902 16.2549 26.1231 16.2217 26.3887 16.1885C26.6544 16.1443 26.9865 16.1055 27.385 16.0723C27.7835 16.028 28.2152 15.9948 28.6801 15.9727C29.1561 15.9395 29.5989 15.9173 30.0085 15.9063C30.4181 15.8841 30.7612 15.873 31.038 15.873C31.3147 15.873 31.4641 15.8841 31.4863 15.9063C31.5084 15.9616 31.525 16.017 31.5361 16.0723C31.5472 16.1276 31.5527 16.1719 31.5527 16.2051Z" fill="#0D6784"/>
<path d="M26.0654 15.7564C26.0654 15.8007 25.9989 15.9999 25.8661 16.3541C25.7443 16.7084 25.5728 17.1622 25.3514 17.7157C25.141 18.2692 24.892 18.8946 24.6042 19.592C24.3274 20.2783 24.0396 20.9812 23.7407 21.7007C23.4419 22.4203 23.143 23.1232 22.8441 23.8095C22.5563 24.4958 22.2906 25.1157 22.0471 25.6692C21.8036 26.2227 21.5988 26.682 21.4327 27.0473C21.2667 27.4016 21.156 27.6008 21.1007 27.6451C20.9235 27.8111 20.7464 27.9108 20.5693 27.944C20.3922 27.9661 20.2594 27.9661 20.1708 27.944C20.1376 27.9329 20.1653 27.7724 20.2538 27.4624C20.3424 27.1414 20.4697 26.7208 20.6357 26.2005C20.8018 25.6692 20.9955 25.0714 21.2169 24.4072C21.4493 23.732 21.6873 23.0457 21.9309 22.3483C22.1744 21.6399 22.4179 20.9425 22.6615 20.2562C22.9161 19.5588 23.1485 18.9333 23.3588 18.3799C23.5692 17.8264 23.7463 17.367 23.8902 17.0017C24.0341 16.6253 24.1337 16.3984 24.1891 16.3209C24.2887 16.166 24.4381 16.0276 24.6374 15.9058C24.8477 15.7841 25.058 15.6955 25.2683 15.6401C25.4787 15.5737 25.6613 15.5516 25.8163 15.5737C25.9823 15.5848 26.0654 15.6457 26.0654 15.7564Z" fill="#0D6784"/>
<path d="M19.8806 22.9458C19.9138 22.979 19.9138 23.0897 19.8806 23.2779C19.8585 23.4661 19.8197 23.6708 19.7644 23.8922C19.7201 24.1026 19.6703 24.3018 19.6149 24.49C19.5707 24.6671 19.5319 24.7778 19.4987 24.8221C19.3991 24.8221 19.2884 24.8221 19.1666 24.8221C19.0559 24.811 18.9508 24.8055 18.8511 24.8055C18.7294 24.8055 18.6131 24.7999 18.5024 24.7889C18.4692 25.2759 18.4305 25.7298 18.3862 26.1504C18.3419 26.56 18.2977 26.9198 18.2534 27.2297C18.2091 27.5286 18.1704 27.7666 18.1372 27.9437C18.1039 28.1319 18.0707 28.226 18.0375 28.226C17.949 28.237 17.8549 28.1983 17.7553 28.1097C17.6556 28.0212 17.5615 27.916 17.473 27.7943C17.3844 27.6614 17.3014 27.523 17.2239 27.3791C17.1575 27.2352 17.1188 27.1135 17.1077 27.0138V24.7058C16.7756 24.6948 16.4601 24.6782 16.1612 24.656C15.7406 24.6339 15.3974 24.6118 15.1318 24.5896C14.8661 24.5564 14.6558 24.5287 14.5008 24.5066C14.3569 24.4845 14.2517 24.4678 14.1853 24.4568C14.13 24.4346 14.1023 24.4236 14.1023 24.4236C14.0137 24.4014 13.9363 24.3405 13.8698 24.2409C13.8034 24.1302 13.7481 24.0085 13.7038 23.8756C13.6595 23.7428 13.6263 23.61 13.6042 23.4771C13.5931 23.3332 13.5986 23.217 13.6208 23.1284C14.2296 21.623 14.7277 20.4219 15.1152 19.5253C15.5137 18.6287 15.8292 17.9423 16.0616 17.4663C16.3384 16.9129 16.5487 16.5365 16.6926 16.3373C16.8143 16.1933 16.9859 16.0771 17.2073 15.9886C17.4398 15.9 17.6722 15.8391 17.9047 15.8059C18.1372 15.7727 18.3419 15.7616 18.5191 15.7727C18.7072 15.7727 18.8179 15.7948 18.8511 15.8391C18.9286 15.9166 18.9618 16.0384 18.9508 16.2044C18.9508 16.3705 18.9508 16.5752 18.9508 16.8188C18.9508 17.1509 18.9397 17.5494 18.9176 18.0143C18.9065 18.4792 18.8843 18.9829 18.8511 19.5253C18.829 20.0566 18.8013 20.6156 18.7681 21.2023C18.7349 21.7779 18.6962 22.3536 18.6519 22.9292C19.0061 22.9181 19.2939 22.9126 19.5153 22.9126C19.7367 22.9126 19.8585 22.9236 19.8806 22.9458ZM15.0653 23.1118C15.3532 23.0897 15.6742 23.0675 16.0284 23.0454C16.3937 23.0233 16.7535 23.0011 17.1077 22.979C17.1077 22.2705 17.1132 21.5621 17.1243 20.8536C17.1354 20.1452 17.152 19.5087 17.1741 18.9441C16.7977 19.6747 16.4214 20.4164 16.045 21.1691C15.6797 21.9108 15.3532 22.5583 15.0653 23.1118Z" fill="#0D6784"/>
<path d="M9.4613 26.3998C10.0259 26.3445 10.5018 26.3002 10.8893 26.267C11.2767 26.2227 11.5867 26.1895 11.8191 26.1674C12.0626 26.1341 12.2342 26.1175 12.3339 26.1175C12.4446 26.1175 12.511 26.1231 12.5331 26.1341C12.5774 26.1895 12.5774 26.3002 12.5331 26.4662C12.4888 26.6212 12.4224 26.7928 12.3339 26.981C12.2453 27.1691 12.1457 27.3518 12.035 27.5289C11.9353 27.706 11.8523 27.8278 11.7859 27.8942C11.7638 27.9163 11.6752 27.9329 11.5202 27.944C11.3653 27.9662 11.1716 27.9828 10.9391 27.9938C10.7177 28.0049 10.4686 28.016 10.1919 28.027C9.92622 28.0381 9.67162 28.0436 9.42809 28.0436C9.18456 28.0547 8.97424 28.0602 8.79713 28.0602C8.62002 28.0602 8.50379 28.0547 8.44844 28.0436C8.37095 28.0326 8.29346 27.9883 8.21598 27.9108C8.14956 27.8223 8.08314 27.7282 8.01672 27.6285C7.96138 27.5178 7.91156 27.4016 7.86728 27.2798C7.82301 27.1581 7.79533 27.0474 7.78426 26.9478C7.77319 26.9145 7.80087 26.7928 7.86728 26.5825C7.9337 26.3611 8.01119 26.0954 8.09975 25.7855C8.19937 25.4755 8.31007 25.1434 8.43183 24.7892C8.5536 24.4239 8.66983 24.0752 8.78052 23.7431C8.90229 23.411 9.00745 23.1177 9.09601 22.8631C9.18456 22.5974 9.24545 22.4148 9.27865 22.3151C9.45577 21.817 9.62181 21.3244 9.77678 20.8374C9.94283 20.3392 10.0812 19.8909 10.1919 19.4924C10.3137 19.0828 10.4022 18.7397 10.4576 18.4629C10.5129 18.1751 10.5184 17.998 10.4742 17.9316C10.441 17.8873 10.3469 17.8929 10.1919 17.9482C10.048 17.9925 9.86534 18.0755 9.64395 18.1973C9.43363 18.308 9.2067 18.4353 8.96317 18.5792C8.73071 18.7231 8.50378 18.8614 8.28239 18.9943C8.07207 19.1271 7.88942 19.2433 7.73445 19.343C7.57948 19.4315 7.48538 19.4758 7.45218 19.4758C7.39683 19.4869 7.35255 19.4149 7.31934 19.2599C7.2972 19.105 7.28613 18.9279 7.28613 18.7286C7.28613 18.5294 7.2972 18.3356 7.31934 18.1475C7.34148 17.9482 7.37469 17.8098 7.41897 17.7323C7.44111 17.677 7.52413 17.5829 7.66803 17.4501C7.82301 17.3172 8.01119 17.1678 8.23258 17.0018C8.45397 16.8357 8.6975 16.6641 8.96317 16.487C9.22884 16.3099 9.48898 16.1549 9.74358 16.0221C10.0092 15.8893 10.2528 15.7841 10.4742 15.7066C10.7066 15.6291 10.9003 15.6015 11.0553 15.6236C11.1549 15.6457 11.2988 15.7288 11.487 15.8727C11.6863 16.0055 11.88 16.1605 12.0682 16.3376C12.2564 16.5036 12.4224 16.6752 12.5663 16.8523C12.7213 17.0184 12.8098 17.1346 12.832 17.201C12.8431 17.2564 12.8043 17.4335 12.7158 17.7323C12.6383 18.0202 12.522 18.3854 12.3671 18.8282C12.2232 19.2599 12.0516 19.747 11.8523 20.2894C11.6531 20.8208 11.4428 21.3632 11.2214 21.9166C11.011 22.4701 10.8007 23.0125 10.5904 23.5439C10.3911 24.0752 10.2085 24.5512 10.0425 24.9718C9.87641 25.3814 9.73804 25.719 9.62735 25.9847C9.52772 26.2393 9.47237 26.3777 9.4613 26.3998Z" fill="#0D6784"/>
<path fill-rule="evenodd" clip-rule="evenodd" d="M21.1227 2C10.5504 2 2 10.4671 2 20.887C2 31.3069 10.5504 39.774 21.1227 39.774C31.695 39.774 40.2454 31.3069 40.2454 20.887C40.2454 10.4671 31.695 2 21.1227 2ZM0 20.887C0 9.34036 9.4681 0 21.1227 0C32.7773 0 42.2454 9.34036 42.2454 20.887C42.2454 32.4337 32.7773 41.774 21.1227 41.774C9.4681 41.774 0 32.4337 0 20.887Z" fill="#21787D"/>
</svg>
