<svg width="44" height="36" viewBox="0 0 44 36" fill="none" xmlns="http://www.w3.org/2000/svg">
<path fill-rule="evenodd" clip-rule="evenodd" d="M38.3648 23.8201L39.6114 22.2561C37.6217 20.6702 34.9058 19.3888 31.4464 18.8695C35.0731 17.4554 37.641 13.8839 37.641 9.75825C37.641 4.4143 33.3325 0 27.9953 0C22.6582 0 18.3497 4.4143 18.3497 9.75825C18.3497 13.8839 20.9176 17.4554 24.5443 18.8695C22.2397 19.2155 20.2651 19.8996 18.6153 20.7867C19.0503 19.7818 19.2914 18.6748 19.2914 17.5165C19.2914 13.0272 15.6698 9.3099 11.1748 9.3099C6.67989 9.3099 3.05828 13.0272 3.05828 17.5165C3.05828 19.6177 3.85163 21.5497 5.15655 23.0107C4.2662 23.4438 3.48779 23.9674 2.82634 24.5516C1.0665 26.106 0 27.9387 0 30.0752V31.4814C0 33.4129 1.55489 35.033 3.52914 35.033C4.2382 35.033 5.57867 35.0607 7.34213 35.097C11.6088 35.185 18.3518 35.3241 24.6189 35.2462C29.0861 35.1907 33.4616 35.0261 36.7457 34.6462C38.3697 34.4583 39.84 34.2059 40.9477 33.8452C41.4899 33.6686 42.0846 33.4228 42.582 33.0514C43.077 32.6818 43.7576 31.9604 43.7576 30.8511C43.7576 29.7225 43.6415 28.7716 43.4335 27.9721L42.6085 28.1867L43.4335 27.9721C43.2987 27.4537 42.7748 26.1152 42.2566 25.1098C41.8984 24.4149 41.3762 23.8342 40.9301 23.3994C40.4712 22.952 39.9826 22.5553 39.6201 22.2631L38.3648 23.8201ZM41.1588 27.5332C40.9708 27.0648 40.7275 26.5086 40.4788 26.0261C40.0505 25.1952 39.0926 24.4068 38.3648 23.8201C36.1368 22.0442 32.7261 20.6198 27.9953 20.6198C23.2646 20.6198 19.8539 22.0442 17.6259 23.8201C17.1898 24.1716 16.8255 24.5232 16.479 24.8868C16.1688 24.7385 15.8369 24.5967 15.4827 24.4662C14.3025 24.0315 12.8747 23.7231 11.1748 23.7231C12.6745 23.7231 14.0529 23.1675 15.1201 22.2491C16.446 21.1081 17.2914 19.4072 17.2914 17.5165C17.2914 14.1041 14.5377 11.3099 11.1748 11.3099C7.81192 11.3099 5.05828 14.1041 5.05828 17.5165C5.05828 19.4005 5.89759 21.096 7.21536 22.2369C8.28448 23.1625 9.66853 23.7231 11.1748 23.7231C9.49469 23.7231 8.05457 24.0031 6.8519 24.4566C5.75423 24.8704 4.85437 25.4288 4.15035 26.0506C2.67497 27.3537 2 28.6811 2 30.0752V31.4814C2 32.336 2.68692 33.033 3.52914 33.033C4.30767 33.033 5.70949 33.062 7.53059 33.0998C17.8771 33.3141 41.7576 33.8088 41.7576 30.8511C41.7576 30.5205 41.7462 30.2139 41.7253 29.9297C41.6833 29.3588 41.6028 28.8785 41.498 28.4756C41.457 28.3182 41.3311 27.9626 41.1588 27.5332ZM27.9953 2C23.7902 2 20.3497 5.49121 20.3497 9.75825C20.3497 14.0253 23.7902 17.5165 27.9953 17.5165C32.2005 17.5165 35.641 14.0253 35.641 9.75825C35.641 5.49121 32.2005 2 27.9953 2Z" fill="#0D6784"/>
</svg>
