<svg width="41" height="39" viewBox="0 0 41 39" fill="none" xmlns="http://www.w3.org/2000/svg">
<path d="M20.6215 24.1455C19.6879 24.1452 18.7753 23.8726 17.9993 23.3622C17.2232 22.8519 16.6184 22.1266 16.2613 21.2782C15.9043 20.4299 15.8111 19.4964 15.9934 18.5959C16.1758 17.6954 16.6255 16.8683 17.2858 16.2192C17.9461 15.57 18.7872 15.128 19.7029 14.949C20.6186 14.77 21.5677 14.8621 22.4302 15.2135C23.2927 15.565 24.0299 16.1601 24.5485 16.9235C25.0672 17.687 25.344 18.5846 25.344 19.5027C25.343 20.7341 24.8451 21.9147 23.9596 22.7853C23.0742 23.6558 21.8735 24.1451 20.6215 24.1455ZM31.6586 27.7142C31.4183 28.3132 31.0554 28.8572 30.5924 29.3126C30.1295 29.7679 29.5763 30.1248 28.9673 30.3611C27.1087 31.0827 22.6836 30.9208 20.6215 30.9208C18.5594 30.9208 14.1386 31.0888 12.2748 30.3611C11.6657 30.1248 11.1126 29.7679 10.6496 29.3126C10.1866 28.8572 9.82374 28.3132 9.58342 27.7142C8.85062 25.8863 9.01435 21.5299 9.01435 19.5036C9.01435 17.4773 8.85062 13.1261 9.58696 11.2921C9.82728 10.6931 10.1902 10.1491 10.6532 9.69379C11.1161 9.23846 11.6693 8.88155 12.2783 8.6452C14.1369 7.92363 18.562 8.08552 20.625 8.08552C22.688 8.08552 27.1069 7.91753 28.9708 8.6452C29.5798 8.88155 30.133 9.23846 30.596 9.69379C31.059 10.1491 31.4219 10.6931 31.6622 11.2921C32.4012 13.12 32.2312 17.4764 32.2312 19.5027C32.2312 21.5291 32.4012 25.8794 31.6622 27.7133L31.6586 27.7142ZM20.6215 12.3653C19.1861 12.3653 17.783 12.7839 16.5896 13.5682C15.3961 14.3525 14.466 15.4672 13.9167 16.7714C13.3674 18.0756 13.2237 19.5107 13.5037 20.8952C13.7837 22.2797 14.4749 23.5515 15.4898 24.5496C16.5048 25.5478 17.7979 26.2276 19.2057 26.503C20.6134 26.7784 22.0726 26.637 23.3987 26.0968C24.7248 25.5566 25.8582 24.6418 26.6556 23.4681C27.4531 22.2943 27.8787 20.9144 27.8787 19.5027C27.8799 18.5651 27.6929 17.6365 27.3286 16.77C26.9643 15.9036 26.4298 15.1163 25.7557 14.4533C25.0816 13.7903 24.2811 13.2646 23.4001 12.9063C22.5191 12.548 21.5748 12.3642 20.6215 12.3653ZM28.1778 25.2736C27.8428 25.2734 27.5152 25.371 27.2365 25.5539C26.9578 25.7369 26.7405 25.997 26.6122 26.3014C26.4839 26.6058 26.4502 26.9408 26.5154 27.264C26.5807 27.5873 26.742 27.8842 26.9788 28.1173C27.2157 28.3503 27.5175 28.5091 27.8461 28.5734C28.1748 28.6378 28.5154 28.6049 28.825 28.4788C29.1346 28.3527 29.3992 28.1392 29.5853 27.8652C29.7715 27.5912 29.8709 27.2691 29.8709 26.9396C29.8718 26.7207 29.8288 26.5039 29.7443 26.3014C29.6599 26.099 29.5356 25.9149 29.3786 25.7598C29.2216 25.6047 29.0351 25.4816 28.8296 25.3976C28.6242 25.3135 28.4039 25.2702 28.1814 25.2701L28.1778 25.2736ZM36.1979 39H5.045C3.91833 39 2.8378 38.5598 2.04112 37.7763C1.24444 36.9928 0.796875 35.9301 0.796875 34.822L0.796875 4.18346C0.796875 3.07539 1.24444 2.0127 2.04112 1.22918C2.8378 0.445652 3.91833 0.00547409 5.045 0.00547409H36.1979C37.3246 0.00547409 38.4051 0.445652 39.2018 1.22918C39.9985 2.0127 40.4461 3.07539 40.4461 4.18346V34.822C40.4461 35.9301 39.9985 36.9928 39.2018 37.7763C38.4051 38.5598 37.3246 39 36.1979 39ZM34.6828 13.758C34.5686 11.5271 34.0509 9.55043 32.395 7.92624C30.7391 6.30204 28.731 5.78241 26.4653 5.67622C24.1279 5.54652 17.1203 5.54652 14.7829 5.67622C12.5146 5.7885 10.5118 6.29856 8.85327 7.92624C7.19473 9.55391 6.67345 11.5315 6.56548 13.758C6.43361 16.0576 6.43361 22.9504 6.56548 25.2475C6.67965 27.4783 7.19119 29.455 8.85327 31.0792C10.5154 32.7034 12.5235 33.217 14.7829 33.3232C17.1203 33.4529 24.1279 33.4529 26.4653 33.3232C28.7336 33.2109 30.7426 32.7008 32.395 31.0731C34.0473 29.4455 34.5748 27.4679 34.6828 25.237C34.8146 22.9461 34.8146 16.0594 34.6828 13.758Z" fill="#E3F8F5"/>
</svg>
