<svg width="145" height="117" viewBox="0 0 145 117" fill="none" xmlns="http://www.w3.org/2000/svg">
<path fill-rule="evenodd" clip-rule="evenodd" d="M49.682 85.2617L49.668 85.2493L60.0152 73.5209L64.3087 77.3088L57.269 85.2882L49.682 85.2617Z" fill="#267A95"/>
<path fill-rule="evenodd" clip-rule="evenodd" d="M96.3955 85.3157L86.2629 73.6553L82.3012 77.0979L89.4179 85.2877L96.3955 85.3157Z" fill="#267A95"/>
<path fill-rule="evenodd" clip-rule="evenodd" d="M72.5381 76.689C72.8564 76.7719 73.1908 76.7712 73.5087 76.6868L107.925 67.5524L135.701 62.67C139.09 62.0742 140.022 57.6492 137.16 55.7369L135.976 54.9457L143.089 59.0519C146.125 60.8042 145.392 65.3784 141.961 66.0943L111.161 72.5208L73.5566 83.5766C73.2083 83.679 72.838 83.6799 72.4891 83.5793L34.1662 72.5208L4.02567 66.1184C0.603795 65.3915 -0.119219 60.8277 2.91044 59.0788L10.0763 54.9421L8.85189 55.7603C5.99486 57.6694 6.91778 62.0861 10.3002 62.6914L37.4636 67.5524L72.5381 76.689Z" fill="#267A95"/>
<path fill-rule="evenodd" clip-rule="evenodd" d="M72.2358 62.5288C72.5899 62.711 73.0077 62.722 73.3709 62.5587L84.7912 57.4211C93.4613 53.5207 103.099 52.2993 112.468 53.9135L135.144 57.8205L135.552 58.0472L102.952 65.6447L73.207 74.6227C72.9386 74.7037 72.6523 74.7045 72.3834 74.6248L42.0698 65.6447L10.543 58.1757L11.4833 57.6476L35.268 53.8799C45.2876 52.2926 55.5522 53.9402 64.5718 58.5834L72.2358 62.5288Z" fill="#9CC7D6"/>
<path fill-rule="evenodd" clip-rule="evenodd" d="M71.9849 61.7061C72.3534 61.9073 72.796 61.9193 73.1749 61.7385L82.4841 57.2963C91.5437 52.9732 101.736 51.6176 111.611 53.4222L131.352 57.0301L131.736 57.2562L101.003 63.8993L72.9857 72.399C72.716 72.4808 72.4283 72.4816 72.1582 72.4012L43.6056 63.8993L13.8838 57.3846L14.7702 56.8566L35.4481 53.3821C45.9962 51.6097 56.834 53.4329 66.2216 58.559L71.9849 61.7061Z" fill="#267A95"/>
<path fill-rule="evenodd" clip-rule="evenodd" d="M110.983 51.0204C109.18 32.8534 92.6655 18.626 72.5594 18.626C52.4534 18.626 35.939 32.8534 34.1357 51.0204C34.0276 49.9316 33.9724 48.8286 33.9724 47.7137C33.9724 27.9966 51.2484 12.0127 72.5594 12.0127C93.8705 12.0127 111.146 27.9966 111.146 47.7137C111.146 48.8286 111.091 49.9316 110.983 51.0204Z" fill="url(#paint0_linear_321_453)"/>
<path fill-rule="evenodd" clip-rule="evenodd" d="M108.571 30.486C108.666 29.4346 109.253 27.9548 110.179 26.5991C111.103 25.2449 112.125 24.3653 112.862 24.1971C112.844 24.1632 112.823 24.1311 112.801 24.1008C112.228 23.3122 110.801 24.0831 109.613 25.8228C108.425 27.5625 107.927 29.6121 108.5 30.4007C108.523 30.4315 108.546 30.4599 108.571 30.486Z" fill="url(#paint1_linear_321_453)"/>
<path fill-rule="evenodd" clip-rule="evenodd" d="M101.271 21.208C101.328 20.1489 101.862 18.6166 102.738 17.1771C103.613 15.7388 104.602 14.7656 105.332 14.5297C105.311 14.4969 105.289 14.4661 105.266 14.4374C104.667 13.7024 103.27 14.6043 102.146 16.452C101.022 18.2997 100.596 20.3934 101.196 21.1285C101.22 21.1575 101.244 21.184 101.271 21.208Z" fill="url(#paint2_linear_321_453)"/>
<path fill-rule="evenodd" clip-rule="evenodd" d="M92.7185 14.079C92.7076 13.0123 93.1392 11.3935 93.9151 9.8103C94.6902 8.22898 95.6081 7.09275 96.316 6.73525C96.2938 6.70597 96.2702 6.67892 96.2452 6.6542C95.6039 6.02053 94.2767 7.15391 93.2809 9.18567C92.2851 11.2174 91.9977 13.3782 92.639 14.0119C92.6644 14.037 92.691 14.0594 92.7185 14.079Z" fill="url(#paint3_linear_321_453)"/>
<path fill-rule="evenodd" clip-rule="evenodd" d="M113.616 42.9051C113.749 41.8646 114.389 40.4447 115.361 39.1806C116.334 37.9156 117.386 37.1345 118.128 37.0376C118.11 37.0006 118.09 36.9653 118.069 36.9318C117.525 36.0898 116.073 36.7236 114.824 38.3475C113.576 39.9714 113.004 41.9704 113.547 42.8124C113.569 42.8456 113.592 42.8765 113.616 42.9051Z" fill="url(#paint4_linear_321_453)"/>
<path fill-rule="evenodd" clip-rule="evenodd" d="M83.2795 10.4559C82.989 9.45213 82.9489 7.65661 83.226 5.6853C83.503 3.71545 84.0249 2.08038 84.5641 1.31114C84.5365 1.2969 84.5083 1.28563 84.4793 1.27743C83.7389 1.06758 82.8503 2.94874 82.4945 5.47912C82.1388 8.00951 82.4507 10.2309 83.1911 10.4408C83.2203 10.449 83.2498 10.4541 83.2795 10.4559Z" fill="url(#paint5_linear_321_453)"/>
<path fill-rule="evenodd" clip-rule="evenodd" d="M73.568 9.21777C73.0449 8.42569 72.5564 6.76566 72.3196 4.78034C72.083 2.79705 72.1589 1.00284 72.4683 0.00977334C72.4389 0.010421 72.4097 0.0141986 72.3806 0.0211943C71.6375 0.199876 71.2815 2.41035 71.5855 4.95842C71.8894 7.5065 72.7382 9.42727 73.4812 9.24859C73.5108 9.24149 73.5397 9.23118 73.568 9.21777Z" fill="url(#paint6_linear_321_453)"/>
<path fill-rule="evenodd" clip-rule="evenodd" d="M37.1241 29.8995C36.3855 29.7506 35.3543 28.8964 34.4163 27.5647C33.4788 26.2336 32.8774 24.7702 32.772 23.7216C32.7473 23.7484 32.7237 23.7775 32.7015 23.809C32.1361 24.6119 32.6539 26.6487 33.858 28.3584C35.0622 30.0681 36.4967 30.8032 37.0621 30.0004C37.0845 29.9687 37.1051 29.935 37.1241 29.8995Z" fill="url(#paint7_linear_321_453)"/>
<path fill-rule="evenodd" clip-rule="evenodd" d="M32.6875 42.0323C31.949 41.8831 30.9181 41.029 29.9803 39.6975C29.0427 38.3662 28.4411 36.9027 28.3359 35.8541C28.3109 35.881 28.2872 35.9103 28.2649 35.9421C27.6995 36.7448 28.2174 38.7815 29.4215 40.4912C30.6256 42.2009 32.0601 42.9361 32.6254 42.1334C32.6478 42.1016 32.6685 42.0679 32.6875 42.0323Z" fill="url(#paint8_linear_321_453)"/>
<path fill-rule="evenodd" clip-rule="evenodd" d="M43.9378 21.1112C43.2148 20.8343 42.2473 19.8022 41.404 18.3102C40.5632 16.8227 40.0634 15.263 40.0269 14.2011C40.0005 14.2234 39.9752 14.2483 39.9511 14.2758C39.3374 14.9751 39.7165 17.093 40.7979 19.0062C41.8794 20.9195 43.2536 21.9036 43.8673 21.2042C43.8924 21.1756 43.9159 21.1445 43.9378 21.1112Z" fill="url(#paint9_linear_321_453)"/>
<path fill-rule="evenodd" clip-rule="evenodd" d="M52.5103 14.7343C51.7874 14.4571 50.82 13.4241 49.9771 11.9312C49.1368 10.4432 48.6375 8.88327 48.6012 7.82134C48.5749 7.8436 48.5496 7.86841 48.5256 7.8958C47.9117 8.59462 48.2903 10.7128 49.3711 12.6269C50.452 14.541 51.8258 15.5262 52.4397 14.8274C52.4649 14.7987 52.4884 14.7676 52.5103 14.7343Z" fill="url(#paint10_linear_321_453)"/>
<path fill-rule="evenodd" clip-rule="evenodd" d="M63.5386 10.5386C62.8752 10.0223 62.0764 8.67821 61.4592 6.921C60.8427 5.16592 60.5672 3.45327 60.6748 2.38999C60.6462 2.40328 60.6183 2.41948 60.5913 2.43864C59.9028 2.92611 59.9869 5.14947 60.779 7.40465C61.5711 9.65983 62.7713 11.0928 63.4597 10.6054C63.4872 10.5859 63.5135 10.5636 63.5386 10.5386Z" fill="url(#paint11_linear_321_453)"/>
<path d="M4.47736 106.978L3.96205 105.455C3.92388 105.359 3.88316 105.245 3.8399 105.116C3.79664 104.983 3.75338 104.841 3.71012 104.688C3.67195 104.843 3.63124 104.987 3.58798 105.119C3.54472 105.252 3.504 105.366 3.46583 105.463L2.95434 106.978H4.47736ZM6.52712 109.104H5.52705C5.41508 109.104 5.32475 109.079 5.25604 109.028C5.18733 108.975 5.13516 108.907 5.09954 108.826L4.77127 107.856H2.65661L2.32834 108.826C2.30035 108.897 2.24946 108.962 2.17566 109.021C2.10441 109.077 2.01534 109.104 1.90846 109.104H0.900756L3.05359 103.543H4.37429L6.52712 109.104ZM11.4621 108.074V109.104H8.11073V103.543H9.4009V108.074H11.4621ZM18.1463 108.131C18.3168 108.131 18.4555 108.11 18.5624 108.066C18.6718 108.023 18.757 107.967 18.8181 107.898C18.8792 107.83 18.9212 107.752 18.9441 107.665C18.967 107.579 18.9784 107.491 18.9784 107.402C18.9784 107.3 18.9644 107.209 18.9364 107.127C18.911 107.046 18.8652 106.977 18.799 106.921C18.7354 106.865 18.6502 106.822 18.5433 106.791C18.4364 106.761 18.3015 106.746 18.1387 106.746H17.2378V108.131H18.1463ZM17.2378 104.509V105.883H17.9096C18.0521 105.883 18.1807 105.873 18.2952 105.852C18.4097 105.832 18.5064 105.796 18.5853 105.745C18.6667 105.695 18.7278 105.625 18.7685 105.536C18.8117 105.446 18.8334 105.334 18.8334 105.2C18.8334 105.067 18.8168 104.958 18.7838 104.871C18.7507 104.782 18.6998 104.711 18.6311 104.658C18.5624 104.604 18.4746 104.566 18.3677 104.543C18.2634 104.52 18.1387 104.509 17.9936 104.509H17.2378ZM17.9936 103.543C18.3779 103.543 18.7049 103.579 18.9746 103.65C19.2443 103.721 19.4645 103.822 19.635 103.951C19.8055 104.081 19.9289 104.239 20.0052 104.425C20.0841 104.611 20.1235 104.818 20.1235 105.047C20.1235 105.172 20.1057 105.293 20.0701 105.41C20.0345 105.524 19.9785 105.632 19.9022 105.734C19.8258 105.833 19.7278 105.925 19.6082 106.009C19.4886 106.093 19.3449 106.165 19.1769 106.226C19.5433 106.315 19.8144 106.459 19.9899 106.658C20.1655 106.856 20.2533 107.113 20.2533 107.429C20.2533 107.665 20.2075 107.886 20.1159 108.089C20.0243 108.293 19.8894 108.471 19.7113 108.624C19.5357 108.774 19.3181 108.892 19.0586 108.979C18.799 109.063 18.5026 109.104 18.1692 109.104H15.9477V103.543H17.9936ZM25.0493 106.978L24.534 105.455C24.4958 105.359 24.4551 105.245 24.4118 105.116C24.3686 104.983 24.3253 104.841 24.2821 104.688C24.2439 104.843 24.2032 104.987 24.1599 105.119C24.1167 105.252 24.0759 105.366 24.0378 105.463L23.5263 106.978H25.0493ZM27.0991 109.104H26.099C25.987 109.104 25.8967 109.079 25.828 109.028C25.7593 108.975 25.7071 108.907 25.6715 108.826L25.3432 107.856H23.2286L22.9003 108.826C22.8723 108.897 22.8214 108.962 22.7476 109.021C22.6764 109.077 22.5873 109.104 22.4804 109.104H21.4727L23.6255 103.543H24.9462L27.0991 109.104ZM31.6218 106.978L31.1065 105.455C31.0683 105.359 31.0276 105.245 30.9844 105.116C30.9411 104.983 30.8979 104.841 30.8546 104.688C30.8164 104.843 30.7757 104.987 30.7324 105.119C30.6892 105.252 30.6485 105.366 30.6103 105.463L30.0988 106.978H31.6218ZM33.6716 109.104H32.6715C32.5596 109.104 32.4692 109.079 32.4005 109.028C32.3318 108.975 32.2796 108.907 32.244 108.826L31.9157 107.856H29.8011L29.4728 108.826C29.4448 108.897 29.3939 108.962 29.3201 109.021C29.2489 109.077 29.1598 109.104 29.0529 109.104H28.0452L30.1981 103.543H31.5188L33.6716 109.104ZM40.1105 103.543V109.104H38.8127V106.753H36.553V109.104H35.2552V103.543H36.553V105.868H38.8127V103.543H40.1105ZM43.6325 109.104H42.3347V103.543H43.6325V109.104ZM49.847 104.566H48.282V109.104H46.9919V104.566H45.4269V103.543H49.847V104.566ZM56.5031 103.543V109.104H55.2053V106.753H52.9456V109.104H51.6478V103.543H52.9456V105.868H55.2053V103.543H56.5031ZM67.0977 106.322C67.0977 106.724 67.0277 107.098 66.8877 107.444C66.7503 107.79 66.5556 108.092 66.3037 108.349C66.0518 108.603 65.7477 108.803 65.3914 108.948C65.0377 109.093 64.6446 109.166 64.212 109.166C63.7794 109.166 63.3849 109.093 63.0287 108.948C62.6724 108.803 62.367 108.603 62.1126 108.349C61.8606 108.092 61.6647 107.79 61.5247 107.444C61.3873 107.098 61.3186 106.724 61.3186 106.322C61.3186 105.92 61.3873 105.546 61.5247 105.2C61.6647 104.854 61.8606 104.553 62.1126 104.299C62.367 104.044 62.6724 103.845 63.0287 103.7C63.3849 103.554 63.7794 103.482 64.212 103.482C64.6446 103.482 65.0377 103.556 65.3914 103.703C65.7477 103.848 66.0518 104.048 66.3037 104.303C66.5556 104.557 66.7503 104.857 66.8877 105.203C67.0277 105.55 67.0977 105.922 67.0977 106.322ZM65.777 106.322C65.777 106.047 65.7413 105.8 65.6701 105.581C65.5988 105.36 65.4958 105.173 65.3609 105.02C65.2286 104.868 65.0657 104.75 64.8723 104.669C64.6789 104.588 64.4588 104.547 64.212 104.547C63.9626 104.547 63.7399 104.588 63.544 104.669C63.3506 104.75 63.1864 104.868 63.0516 105.02C62.9192 105.173 62.8174 105.36 62.7462 105.581C62.6749 105.8 62.6393 106.047 62.6393 106.322C62.6393 106.599 62.6749 106.849 62.7462 107.07C62.8174 107.289 62.9192 107.475 63.0516 107.627C63.1864 107.78 63.3506 107.897 63.544 107.978C63.7399 108.057 63.9626 108.097 64.212 108.097C64.4588 108.097 64.6789 108.057 64.8723 107.978C65.0657 107.897 65.2286 107.78 65.3609 107.627C65.4958 107.475 65.5988 107.289 65.6701 107.07C65.7413 106.849 65.777 106.599 65.777 106.322ZM73.8573 103.543V109.104H73.1855C73.0863 109.104 73.0023 109.089 72.9336 109.059C72.8674 109.026 72.8013 108.97 72.7351 108.891L70.1128 105.574C70.123 105.673 70.1293 105.77 70.1319 105.864C70.137 105.955 70.1395 106.042 70.1395 106.123V109.104H69.002V103.543H69.6815C69.7374 103.543 69.7845 103.546 69.8227 103.551C69.8609 103.556 69.8952 103.566 69.9258 103.581C69.9563 103.594 69.9856 103.613 70.0135 103.638C70.0415 103.664 70.0733 103.698 70.109 103.742L72.7542 107.081C72.7415 106.975 72.7326 106.872 72.7275 106.772C72.7224 106.67 72.7199 106.575 72.7199 106.486V103.543H73.8573ZM79.4329 108.074V109.104H76.0815V103.543H77.3717V108.074H79.4329ZM82.5353 109.104H81.2375V103.543H82.5353V109.104ZM89.6087 103.543V109.104H88.9369C88.8377 109.104 88.7537 109.089 88.685 109.059C88.6188 109.026 88.5527 108.97 88.4865 108.891L85.8642 105.574C85.8744 105.673 85.8807 105.77 85.8833 105.864C85.8884 105.955 85.8909 106.042 85.8909 106.123V109.104H84.7534V103.543H85.4329C85.4888 103.543 85.5359 103.546 85.5741 103.551C85.6123 103.556 85.6466 103.566 85.6771 103.581C85.7077 103.594 85.737 103.613 85.7649 103.638C85.7929 103.664 85.8247 103.698 85.8604 103.742L88.5056 107.081C88.4929 106.975 88.484 106.872 88.4789 106.772C88.4738 106.67 88.4712 106.575 88.4712 106.486V103.543H89.6087ZM93.1307 104.535V105.833H94.8789V106.788H93.1307V108.112H95.4133V109.104H91.8329V103.543H95.4133V104.535H93.1307ZM102.944 106.978L102.429 105.455C102.391 105.359 102.35 105.245 102.307 105.116C102.264 104.983 102.22 104.841 102.177 104.688C102.139 104.843 102.098 104.987 102.055 105.119C102.012 105.252 101.971 105.366 101.933 105.463L101.421 106.978H102.944ZM104.994 109.104H103.994C103.882 109.104 103.792 109.079 103.723 109.028C103.654 108.975 103.602 108.907 103.567 108.826L103.238 107.856H101.124L100.795 108.826C100.767 108.897 100.717 108.962 100.643 109.021C100.572 109.077 100.482 109.104 100.376 109.104H99.3679L101.521 103.543H102.841L104.994 109.104ZM110.14 107.665C110.17 107.665 110.201 107.672 110.231 107.685C110.262 107.695 110.291 107.714 110.319 107.742L110.831 108.28C110.607 108.573 110.326 108.794 109.987 108.944C109.651 109.092 109.253 109.166 108.792 109.166C108.37 109.166 107.991 109.094 107.655 108.952C107.322 108.807 107.038 108.608 106.804 108.356C106.572 108.102 106.394 107.802 106.269 107.456C106.145 107.107 106.082 106.729 106.082 106.322C106.082 105.907 106.15 105.527 106.285 105.181C106.419 104.832 106.609 104.532 106.853 104.28C107.098 104.028 107.39 103.832 107.731 103.692C108.072 103.552 108.448 103.482 108.857 103.482C109.066 103.482 109.262 103.501 109.445 103.539C109.631 103.575 109.804 103.626 109.964 103.692C110.125 103.755 110.272 103.833 110.407 103.925C110.542 104.016 110.661 104.116 110.766 104.222L110.331 104.806C110.303 104.842 110.27 104.875 110.231 104.906C110.193 104.934 110.14 104.948 110.071 104.948C110.025 104.948 109.982 104.938 109.941 104.917C109.901 104.897 109.857 104.873 109.812 104.845C109.766 104.814 109.715 104.782 109.659 104.749C109.605 104.714 109.541 104.682 109.464 104.654C109.39 104.623 109.303 104.598 109.201 104.577C109.102 104.557 108.985 104.547 108.85 104.547C108.636 104.547 108.44 104.586 108.262 104.665C108.086 104.744 107.934 104.86 107.804 105.013C107.677 105.163 107.577 105.348 107.506 105.57C107.437 105.789 107.403 106.039 107.403 106.322C107.403 106.607 107.441 106.86 107.518 107.081C107.596 107.303 107.702 107.49 107.834 107.643C107.969 107.793 108.126 107.907 108.304 107.986C108.482 108.065 108.673 108.104 108.876 108.104C108.993 108.104 109.1 108.099 109.197 108.089C109.294 108.076 109.384 108.057 109.468 108.032C109.552 108.004 109.631 107.968 109.705 107.925C109.778 107.879 109.854 107.822 109.93 107.753C109.96 107.728 109.994 107.707 110.029 107.692C110.065 107.674 110.102 107.665 110.14 107.665ZM115.478 106.978L114.963 105.455C114.925 105.359 114.884 105.245 114.841 105.116C114.797 104.983 114.754 104.841 114.711 104.688C114.673 104.843 114.632 104.987 114.589 105.119C114.546 105.252 114.505 105.366 114.467 105.463L113.955 106.978H115.478ZM117.528 109.104H116.528C116.416 109.104 116.326 109.079 116.257 109.028C116.188 108.975 116.136 108.907 116.1 108.826L115.772 107.856H113.657L113.329 108.826C113.301 108.897 113.25 108.962 113.176 109.021C113.105 109.077 113.016 109.104 112.909 109.104H111.902L114.054 103.543H115.375L117.528 109.104ZM124.158 106.322C124.158 106.724 124.088 107.095 123.948 107.436C123.81 107.775 123.616 108.069 123.364 108.318C123.112 108.565 122.808 108.758 122.452 108.898C122.098 109.036 121.705 109.104 121.272 109.104H119.112V103.543H121.272C121.705 103.543 122.098 103.613 122.452 103.753C122.808 103.893 123.112 104.086 123.364 104.333C123.616 104.58 123.81 104.874 123.948 105.215C124.088 105.553 124.158 105.922 124.158 106.322ZM122.837 106.322C122.837 106.047 122.801 105.799 122.73 105.578C122.659 105.356 122.556 105.169 122.421 105.016C122.289 104.861 122.126 104.743 121.932 104.661C121.739 104.577 121.519 104.535 121.272 104.535H120.409V108.112H121.272C121.519 108.112 121.739 108.071 121.932 107.99C122.126 107.906 122.289 107.788 122.421 107.635C122.556 107.48 122.659 107.291 122.73 107.07C122.801 106.849 122.837 106.599 122.837 106.322ZM127.362 104.535V105.833H129.11V106.788H127.362V108.112H129.645V109.104H126.064V103.543H129.645V104.535H127.362ZM137.838 103.543V109.104H136.701V105.906C136.701 105.832 136.702 105.752 136.704 105.665C136.709 105.579 136.717 105.491 136.727 105.402L135.25 108.261C135.204 108.35 135.142 108.417 135.063 108.463C134.987 108.509 134.899 108.532 134.8 108.532H134.624C134.525 108.532 134.436 108.509 134.357 108.463C134.281 108.417 134.219 108.35 134.174 108.261L132.696 105.394C132.704 105.486 132.71 105.576 132.716 105.665C132.721 105.752 132.723 105.832 132.723 105.906V109.104H131.586V103.543H132.57C132.626 103.543 132.675 103.544 132.716 103.547C132.759 103.549 132.797 103.557 132.83 103.57C132.863 103.582 132.892 103.603 132.918 103.631C132.946 103.656 132.973 103.693 132.998 103.742L134.429 106.562C134.48 106.659 134.529 106.76 134.574 106.864C134.623 106.968 134.669 107.075 134.712 107.185C134.755 107.073 134.8 106.963 134.845 106.856C134.894 106.749 134.945 106.648 134.998 106.551L136.426 103.742C136.451 103.693 136.477 103.656 136.502 103.631C136.53 103.603 136.561 103.582 136.594 103.57C136.627 103.557 136.664 103.549 136.704 103.547C136.748 103.544 136.797 103.543 136.853 103.543H137.838ZM142.724 106.99V109.104H141.433V106.99L139.418 103.543H140.555C140.667 103.543 140.755 103.57 140.819 103.623C140.885 103.674 140.94 103.74 140.983 103.822L141.769 105.44C141.835 105.567 141.895 105.687 141.949 105.799C142.002 105.908 142.049 106.016 142.09 106.123C142.128 106.014 142.171 105.905 142.22 105.795C142.271 105.683 142.329 105.565 142.395 105.44L143.174 103.822C143.192 103.789 143.213 103.755 143.239 103.722C143.264 103.689 143.294 103.66 143.327 103.635C143.362 103.607 143.402 103.585 143.445 103.57C143.491 103.552 143.54 103.543 143.594 103.543H144.739L142.724 106.99Z" fill="#28741C"/>
<path d="M16.3041 113.853C16.4138 113.853 16.5069 113.839 16.5832 113.812C16.6612 113.783 16.7248 113.744 16.7741 113.695C16.8234 113.646 16.8592 113.589 16.8814 113.523C16.9037 113.457 16.9148 113.385 16.9148 113.309C16.9148 113.156 16.8647 113.037 16.7645 112.951C16.6659 112.865 16.5125 112.822 16.3041 112.822H15.9797V113.853H16.3041ZM18.017 115.694H17.287C17.1518 115.694 17.0548 115.643 16.9959 115.542L16.4186 114.533C16.3916 114.49 16.3614 114.459 16.328 114.439C16.2946 114.419 16.2468 114.408 16.1848 114.408H15.9797V115.694H15.1733V112.218H16.3041C16.5554 112.218 16.7693 112.245 16.9458 112.297C17.124 112.348 17.2687 112.42 17.38 112.512C17.493 112.604 17.5749 112.713 17.6258 112.839C17.6767 112.964 17.7021 113.101 17.7021 113.249C17.7021 113.362 17.687 113.469 17.6568 113.569C17.6266 113.669 17.582 113.762 17.5232 113.848C17.4643 113.932 17.3912 114.008 17.3037 114.074C17.2178 114.141 17.1184 114.196 17.0055 114.239C17.058 114.266 17.1073 114.3 17.1534 114.342C17.1995 114.381 17.2409 114.429 17.2775 114.485L18.017 115.694ZM20.1476 114.16C20.1476 114.102 20.1397 114.044 20.1238 113.989C20.1095 113.933 20.0848 113.884 20.0498 113.841C20.0164 113.796 19.9719 113.76 19.9162 113.733C19.8606 113.706 19.793 113.693 19.7135 113.693C19.5735 113.693 19.4638 113.733 19.3842 113.814C19.3047 113.894 19.2522 114.009 19.2268 114.16H20.1476ZM19.2172 114.59C19.2411 114.797 19.3039 114.947 19.4057 115.041C19.5075 115.133 19.6387 115.179 19.7993 115.179C19.8852 115.179 19.9592 115.169 20.0212 115.148C20.0832 115.127 20.1381 115.104 20.1858 115.079C20.2351 115.053 20.2797 115.03 20.3194 115.01C20.3608 114.989 20.4037 114.979 20.4482 114.979C20.5071 114.979 20.5516 115 20.5818 115.043L20.7965 115.308C20.7202 115.395 20.6375 115.467 20.5484 115.523C20.461 115.577 20.3703 115.62 20.2765 115.651C20.1842 115.682 20.0912 115.702 19.9973 115.713C19.9051 115.726 19.8168 115.733 19.7325 115.733C19.5592 115.733 19.3962 115.705 19.2435 115.649C19.0924 115.592 18.9596 115.507 18.8451 115.396C18.7321 115.285 18.6423 115.146 18.5755 114.981C18.5103 114.816 18.4777 114.623 18.4777 114.404C18.4777 114.238 18.5055 114.082 18.5612 113.934C18.6184 113.786 18.6995 113.656 18.8045 113.545C18.9111 113.434 19.0391 113.345 19.1886 113.28C19.3397 113.215 19.5099 113.182 19.6991 113.182C19.863 113.182 20.0125 113.208 20.1476 113.259C20.2844 113.309 20.4013 113.383 20.4983 113.48C20.5969 113.577 20.6733 113.697 20.7274 113.838C20.783 113.978 20.8109 114.137 20.8109 114.315C20.8109 114.371 20.8085 114.416 20.8037 114.451C20.7989 114.486 20.7902 114.514 20.7775 114.535C20.7647 114.556 20.7472 114.57 20.725 114.578C20.7043 114.586 20.6773 114.59 20.6439 114.59H19.2172ZM23.3018 113.762C23.2827 113.792 23.262 113.814 23.2398 113.826C23.2191 113.839 23.1921 113.845 23.1587 113.845C23.1237 113.845 23.0887 113.838 23.0537 113.824C23.0187 113.808 22.9805 113.791 22.9392 113.774C22.8994 113.756 22.8541 113.74 22.8032 113.726C22.7523 113.71 22.6942 113.702 22.629 113.702C22.5352 113.702 22.4628 113.721 22.4119 113.757C22.3626 113.792 22.338 113.841 22.338 113.905C22.338 113.951 22.3539 113.989 22.3857 114.02C22.4191 114.05 22.4628 114.077 22.5169 114.101C22.571 114.123 22.6322 114.144 22.7006 114.165C22.769 114.186 22.839 114.209 22.9105 114.234C22.9821 114.26 23.0521 114.29 23.1205 114.325C23.1889 114.358 23.2501 114.401 23.3042 114.451C23.3583 114.501 23.4012 114.561 23.433 114.633C23.4664 114.704 23.4831 114.79 23.4831 114.89C23.4831 115.013 23.4608 115.126 23.4163 115.229C23.3718 115.333 23.305 115.422 23.2159 115.496C23.1284 115.571 23.0195 115.629 22.8891 115.67C22.7603 115.712 22.6115 115.733 22.443 115.733C22.3587 115.733 22.2744 115.725 22.1901 115.709C22.1058 115.693 22.0239 115.671 21.9444 115.644C21.8664 115.617 21.7941 115.585 21.7273 115.549C21.6605 115.511 21.6032 115.47 21.5555 115.427L21.7273 115.155C21.7463 115.123 21.7702 115.099 21.7988 115.081C21.829 115.062 21.8672 115.053 21.9133 115.053C21.9563 115.053 21.9945 115.062 22.0279 115.081C22.0628 115.1 22.1002 115.121 22.14 115.143C22.1797 115.166 22.2259 115.186 22.2783 115.205C22.3324 115.224 22.4 115.234 22.4811 115.234C22.5384 115.234 22.5869 115.228 22.6267 115.217C22.6664 115.204 22.6982 115.188 22.7221 115.167C22.7459 115.146 22.7634 115.123 22.7746 115.098C22.7857 115.072 22.7913 115.046 22.7913 115.019C22.7913 114.97 22.7746 114.929 22.7412 114.898C22.7078 114.866 22.664 114.839 22.61 114.816C22.5559 114.793 22.4939 114.771 22.4239 114.752C22.3555 114.731 22.2855 114.708 22.2139 114.683C22.1424 114.657 22.0716 114.627 22.0016 114.592C21.9332 114.556 21.872 114.51 21.8179 114.456C21.7638 114.401 21.7201 114.333 21.6867 114.253C21.6533 114.174 21.6366 114.078 21.6366 113.965C21.6366 113.86 21.6565 113.76 21.6962 113.667C21.7376 113.571 21.7988 113.488 21.8799 113.416C21.9611 113.344 22.0628 113.288 22.1853 113.247C22.3078 113.204 22.4509 113.182 22.6147 113.182C22.7038 113.182 22.7897 113.19 22.8724 113.206C22.9567 113.222 23.0354 113.244 23.1086 113.273C23.1817 113.302 23.2485 113.336 23.309 113.375C23.3694 113.414 23.4227 113.456 23.4688 113.502L23.3018 113.762ZM25.2882 115.733C25.1705 115.733 25.0663 115.716 24.9756 115.682C24.8866 115.647 24.811 115.599 24.749 115.537C24.6886 115.473 24.6424 115.397 24.6106 115.308C24.5788 115.219 24.5629 115.119 24.5629 115.01V113.731H24.353C24.3148 113.731 24.2822 113.719 24.2552 113.695C24.2281 113.67 24.2146 113.633 24.2146 113.585V113.297L24.6083 113.22L24.7538 112.617C24.7729 112.54 24.8269 112.502 24.916 112.502H25.3025V113.225H25.9156V113.731H25.3025V114.96C25.3025 115.017 25.316 115.065 25.343 115.103C25.3717 115.139 25.4122 115.158 25.4647 115.158C25.4917 115.158 25.514 115.155 25.5315 115.15C25.5506 115.144 25.5665 115.138 25.5792 115.131C25.5935 115.123 25.6063 115.117 25.6174 115.112C25.6301 115.106 25.6444 115.103 25.6603 115.103C25.6826 115.103 25.7001 115.108 25.7128 115.119C25.7271 115.129 25.7414 115.145 25.7558 115.167L25.98 115.518C25.8846 115.589 25.7772 115.643 25.6579 115.68C25.5387 115.715 25.4154 115.733 25.2882 115.733ZM27.9 113.182C28.0877 113.182 28.2587 113.212 28.413 113.27C28.5672 113.329 28.6992 113.414 28.809 113.523C28.9203 113.633 29.0062 113.767 29.0666 113.924C29.1287 114.08 29.1597 114.256 29.1597 114.451C29.1597 114.649 29.1287 114.827 29.0666 114.986C29.0062 115.143 28.9203 115.278 28.809 115.389C28.6992 115.499 28.5672 115.584 28.413 115.644C28.2587 115.703 28.0877 115.733 27.9 115.733C27.7108 115.733 27.5382 115.703 27.3823 115.644C27.2281 115.584 27.0945 115.499 26.9815 115.389C26.8702 115.278 26.7835 115.143 26.7215 114.986C26.6611 114.827 26.6309 114.649 26.6309 114.451C26.6309 114.256 26.6611 114.08 26.7215 113.924C26.7835 113.767 26.8702 113.633 26.9815 113.523C27.0945 113.414 27.2281 113.329 27.3823 113.27C27.5382 113.212 27.7108 113.182 27.9 113.182ZM27.9 115.184C28.0702 115.184 28.1951 115.124 28.2746 115.005C28.3557 114.884 28.3963 114.701 28.3963 114.456C28.3963 114.211 28.3557 114.029 28.2746 113.91C28.1951 113.791 28.0702 113.731 27.9 113.731C27.7251 113.731 27.5971 113.791 27.5159 113.91C27.4348 114.029 27.3943 114.211 27.3943 114.456C27.3943 114.701 27.4348 114.884 27.5159 115.005C27.5971 115.124 27.7251 115.184 27.9 115.184ZM30.7726 113.602C30.849 113.469 30.9365 113.364 31.0351 113.287C31.1353 113.211 31.2498 113.173 31.3786 113.173C31.4899 113.173 31.5806 113.199 31.6506 113.251L31.6029 113.795C31.5949 113.83 31.5814 113.854 31.5623 113.867C31.5448 113.88 31.5202 113.886 31.4883 113.886C31.4756 113.886 31.4589 113.885 31.4382 113.884C31.4176 113.882 31.3961 113.88 31.3738 113.879C31.3516 113.876 31.3285 113.873 31.3046 113.872C31.2824 113.869 31.2617 113.867 31.2426 113.867C31.1345 113.867 31.0478 113.896 30.9826 113.953C30.919 114.01 30.8649 114.09 30.8204 114.191V115.694H30.0808V113.22H30.5198C30.5563 113.22 30.5866 113.224 30.6104 113.23C30.6359 113.236 30.6565 113.247 30.6724 113.261C30.6899 113.274 30.7027 113.291 30.7106 113.313C30.7202 113.336 30.7281 113.363 30.7345 113.395L30.7726 113.602ZM33.2076 113.22V115.694H32.4681V113.22H33.2076ZM33.284 112.543C33.284 112.602 33.272 112.657 33.2482 112.71C33.2243 112.761 33.1917 112.806 33.1504 112.846C33.109 112.884 33.0605 112.915 33.0048 112.939C32.9508 112.961 32.8927 112.972 32.8307 112.972C32.7703 112.972 32.7138 112.961 32.6613 112.939C32.6088 112.915 32.5619 112.884 32.5206 112.846C32.4808 112.806 32.449 112.761 32.4251 112.71C32.4029 112.657 32.3917 112.602 32.3917 112.543C32.3917 112.482 32.4029 112.426 32.4251 112.373C32.449 112.321 32.4808 112.275 32.5206 112.235C32.5619 112.195 32.6088 112.164 32.6613 112.142C32.7138 112.12 32.7703 112.109 32.8307 112.109C32.8927 112.109 32.9508 112.12 33.0048 112.142C33.0605 112.164 33.109 112.195 33.1504 112.235C33.1917 112.275 33.2243 112.321 33.2482 112.373C33.272 112.426 33.284 112.482 33.284 112.543ZM34.9544 113.488C35.0021 113.443 35.0514 113.402 35.1023 113.364C35.1532 113.325 35.2073 113.294 35.2646 113.268C35.3234 113.241 35.3862 113.22 35.453 113.206C35.5214 113.19 35.5954 113.182 35.6749 113.182C35.8101 113.182 35.9294 113.206 36.0328 113.254C36.1377 113.3 36.226 113.365 36.2976 113.449C36.3691 113.532 36.4232 113.632 36.4598 113.748C36.4964 113.862 36.5147 113.987 36.5147 114.122V115.694H35.7751V114.122C35.7751 114.001 35.7473 113.907 35.6916 113.841C35.6359 113.772 35.554 113.738 35.4459 113.738C35.3648 113.738 35.2884 113.756 35.2169 113.791C35.1469 113.824 35.0785 113.87 35.0117 113.929V115.694H34.2721V113.22H34.7302C34.8224 113.22 34.8829 113.262 34.9115 113.344L34.9544 113.488ZM38.4843 114.327C38.6068 114.327 38.6951 114.297 38.7491 114.237C38.8048 114.175 38.8326 114.095 38.8326 113.998C38.8326 113.898 38.8048 113.819 38.7491 113.762C38.6951 113.705 38.6068 113.676 38.4843 113.676C38.3619 113.676 38.2728 113.705 38.2171 113.762C38.1631 113.819 38.136 113.898 38.136 113.998C38.136 114.046 38.1424 114.09 38.1551 114.129C38.1694 114.169 38.1909 114.204 38.2195 114.234C38.2481 114.263 38.2839 114.286 38.3269 114.303C38.3714 114.319 38.4239 114.327 38.4843 114.327ZM39.0569 115.785C39.0569 115.726 39.0306 115.684 38.9782 115.659C38.9257 115.632 38.8573 115.612 38.773 115.601C38.6887 115.59 38.5941 115.584 38.4891 115.582C38.3857 115.579 38.2823 115.573 38.179 115.563C38.1328 115.595 38.0947 115.631 38.0644 115.67C38.0358 115.709 38.0215 115.752 38.0215 115.802C38.0215 115.837 38.0287 115.868 38.043 115.897C38.0589 115.926 38.0859 115.95 38.1241 115.971C38.1623 115.992 38.2132 116.008 38.2768 116.019C38.342 116.032 38.4239 116.038 38.5225 116.038C38.6291 116.038 38.7165 116.032 38.7849 116.019C38.8533 116.006 38.9074 115.989 38.9471 115.966C38.9885 115.944 39.0171 115.917 39.033 115.885C39.0489 115.855 39.0569 115.822 39.0569 115.785ZM39.7869 113.297V113.566C39.7869 113.608 39.775 113.64 39.7511 113.664C39.7289 113.688 39.6899 113.706 39.6342 113.719L39.4553 113.76C39.4648 113.795 39.472 113.83 39.4768 113.867C39.4831 113.903 39.4863 113.942 39.4863 113.981C39.4863 114.105 39.4601 114.217 39.4076 114.315C39.3567 114.414 39.2859 114.498 39.1953 114.568C39.1062 114.637 39.0004 114.69 38.878 114.728C38.7555 114.765 38.6243 114.783 38.4843 114.783C38.4462 114.783 38.4088 114.782 38.3722 114.781C38.3356 114.777 38.2998 114.773 38.2648 114.766C38.2108 114.8 38.1837 114.837 38.1837 114.878C38.1837 114.92 38.206 114.95 38.2505 114.969C38.2951 114.987 38.3539 114.999 38.4271 115.007C38.5002 115.014 38.5829 115.018 38.6752 115.022C38.769 115.023 38.8644 115.029 38.9615 115.038C39.0585 115.046 39.1531 115.061 39.2454 115.081C39.3392 115.102 39.4227 115.135 39.4959 115.181C39.569 115.228 39.6279 115.29 39.6724 115.367C39.7169 115.444 39.7392 115.542 39.7392 115.661C39.7392 115.772 39.7122 115.881 39.6581 115.988C39.604 116.094 39.5245 116.189 39.4195 116.272C39.3145 116.354 39.1857 116.42 39.033 116.47C38.8803 116.521 38.7054 116.546 38.5082 116.546C38.3141 116.546 38.1464 116.528 38.0048 116.491C37.8648 116.455 37.7479 116.406 37.6541 116.346C37.5619 116.287 37.4935 116.218 37.4489 116.14C37.4044 116.063 37.3821 115.981 37.3821 115.897C37.3821 115.787 37.414 115.696 37.4776 115.623C37.5412 115.55 37.6303 115.491 37.7448 115.446C37.6843 115.41 37.6366 115.363 37.6016 115.305C37.5666 115.248 37.5491 115.174 37.5491 115.084C37.5491 115.047 37.5555 115.009 37.5682 114.969C37.581 114.928 37.6008 114.888 37.6279 114.85C37.6565 114.81 37.6915 114.773 37.7328 114.738C37.7742 114.703 37.8235 114.672 37.8808 114.645C37.7519 114.576 37.6501 114.486 37.5754 114.375C37.5006 114.262 37.4633 114.131 37.4633 113.981C37.4633 113.857 37.4895 113.746 37.542 113.647C37.5945 113.547 37.666 113.463 37.7567 113.395C37.8489 113.325 37.9571 113.271 38.0811 113.235C38.2052 113.197 38.3396 113.177 38.4843 113.177C38.6943 113.177 38.8803 113.217 39.0426 113.297H39.7869ZM44.5259 113.22L43.2042 116.336C43.1819 116.385 43.1549 116.421 43.1231 116.443C43.0913 116.467 43.0404 116.479 42.9704 116.479H42.4169L42.8941 115.477L41.9064 113.22H42.5601C42.6173 113.22 42.6611 113.233 42.6913 113.259C42.7231 113.284 42.7461 113.314 42.7605 113.349L43.166 114.416C43.2042 114.513 43.2352 114.612 43.2591 114.714C43.2766 114.663 43.2941 114.612 43.3115 114.561C43.329 114.51 43.3473 114.46 43.3664 114.411L43.7338 113.349C43.7481 113.313 43.7736 113.282 43.8102 113.259C43.8467 113.233 43.8865 113.22 43.9294 113.22H44.5259ZM46.3485 113.182C46.5362 113.182 46.7072 113.212 46.8615 113.27C47.0157 113.329 47.1477 113.414 47.2575 113.523C47.3688 113.633 47.4547 113.767 47.5151 113.924C47.5772 114.08 47.6082 114.256 47.6082 114.451C47.6082 114.649 47.5772 114.827 47.5151 114.986C47.4547 115.143 47.3688 115.278 47.2575 115.389C47.1477 115.499 47.0157 115.584 46.8615 115.644C46.7072 115.703 46.5362 115.733 46.3485 115.733C46.1593 115.733 45.9867 115.703 45.8309 115.644C45.6766 115.584 45.543 115.499 45.4301 115.389C45.3187 115.278 45.2321 115.143 45.17 114.986C45.1096 114.827 45.0794 114.649 45.0794 114.451C45.0794 114.256 45.1096 114.08 45.17 113.924C45.2321 113.767 45.3187 113.633 45.4301 113.523C45.543 113.414 45.6766 113.329 45.8309 113.27C45.9867 113.212 46.1593 113.182 46.3485 113.182ZM46.3485 115.184C46.5187 115.184 46.6436 115.124 46.7231 115.005C46.8042 114.884 46.8448 114.701 46.8448 114.456C46.8448 114.211 46.8042 114.029 46.7231 113.91C46.6436 113.791 46.5187 113.731 46.3485 113.731C46.1736 113.731 46.0456 113.791 45.9645 113.91C45.8833 114.029 45.8428 114.211 45.8428 114.456C45.8428 114.701 45.8833 114.884 45.9645 115.005C46.0456 115.124 46.1736 115.184 46.3485 115.184ZM50.748 113.22V115.694H50.2899C50.1977 115.694 50.1373 115.653 50.1086 115.57L50.0657 115.427C50.018 115.473 49.9687 115.515 49.9178 115.554C49.8669 115.59 49.812 115.622 49.7532 115.649C49.6959 115.674 49.6331 115.694 49.5647 115.709C49.4979 115.725 49.4247 115.733 49.3452 115.733C49.21 115.733 49.0899 115.709 48.985 115.663C48.8816 115.616 48.7941 115.55 48.7226 115.465C48.651 115.381 48.5969 115.282 48.5603 115.167C48.5237 115.053 48.5055 114.927 48.5055 114.79V113.22H49.245V114.79C49.245 114.913 49.2728 115.007 49.3285 115.074C49.3842 115.141 49.4661 115.174 49.5742 115.174C49.6553 115.174 49.7309 115.158 49.8009 115.124C49.8724 115.089 49.9416 115.042 50.0084 114.983V113.22H50.748ZM52.491 113.602C52.5674 113.469 52.6548 113.364 52.7534 113.287C52.8536 113.211 52.9682 113.173 53.097 113.173C53.2083 113.173 53.299 113.199 53.3689 113.251L53.3212 113.795C53.3133 113.83 53.2998 113.854 53.2807 113.867C53.2632 113.88 53.2385 113.886 53.2067 113.886C53.194 113.886 53.1773 113.885 53.1566 113.884C53.1359 113.882 53.1145 113.88 53.0922 113.879C53.0699 113.876 53.0469 113.873 53.023 113.872C53.0008 113.869 52.9801 113.867 52.961 113.867C52.8528 113.867 52.7662 113.896 52.701 113.953C52.6373 114.01 52.5833 114.09 52.5387 114.191V115.694H51.7992V113.22H52.2381C52.2747 113.22 52.3049 113.224 52.3288 113.23C52.3542 113.236 52.3749 113.247 52.3908 113.261C52.4083 113.274 52.421 113.291 52.429 113.313C52.4385 113.336 52.4465 113.363 52.4528 113.395L52.491 113.602ZM55.7249 115.694V113.22H56.183C56.2752 113.22 56.3356 113.262 56.3643 113.344L56.4048 113.478C56.4462 113.435 56.4891 113.396 56.5336 113.361C56.5782 113.325 56.6259 113.294 56.6768 113.268C56.7293 113.241 56.7849 113.22 56.8438 113.206C56.9042 113.19 56.9702 113.182 57.0418 113.182C57.1913 113.182 57.3146 113.221 57.4116 113.299C57.5102 113.375 57.5849 113.478 57.6358 113.607C57.6772 113.531 57.7273 113.465 57.7861 113.411C57.8466 113.357 57.911 113.313 57.9794 113.28C58.0493 113.247 58.1225 113.222 58.1988 113.206C58.2768 113.19 58.3539 113.182 58.4303 113.182C58.5718 113.182 58.6975 113.204 58.8072 113.247C58.9169 113.288 59.0084 113.349 59.0815 113.43C59.1563 113.51 59.2128 113.608 59.2509 113.726C59.2891 113.842 59.3082 113.974 59.3082 114.122V115.694H58.5686V114.122C58.5686 113.866 58.4589 113.738 58.2394 113.738C58.1392 113.738 58.0557 113.771 57.9889 113.838C57.9237 113.903 57.8911 113.998 57.8911 114.122V115.694H57.1515V114.122C57.1515 113.981 57.1237 113.881 57.068 113.824C57.0124 113.767 56.9305 113.738 56.8223 113.738C56.7555 113.738 56.6919 113.753 56.6315 113.783C56.5726 113.814 56.5169 113.854 56.4645 113.905V115.694H55.7249ZM61.8708 114.16C61.8708 114.102 61.8629 114.044 61.847 113.989C61.8326 113.933 61.808 113.884 61.773 113.841C61.7396 113.796 61.6951 113.76 61.6394 113.733C61.5837 113.706 61.5161 113.693 61.4366 113.693C61.2967 113.693 61.1869 113.733 61.1074 113.814C61.0279 113.894 60.9754 114.009 60.9499 114.16H61.8708ZM60.9404 114.59C60.9643 114.797 61.0271 114.947 61.1289 115.041C61.2307 115.133 61.3619 115.179 61.5225 115.179C61.6084 115.179 61.6823 115.169 61.7444 115.148C61.8064 115.127 61.8613 115.104 61.909 115.079C61.9583 115.053 62.0028 115.03 62.0426 115.01C62.0839 114.989 62.1269 114.979 62.1714 114.979C62.2302 114.979 62.2748 115 62.305 115.043L62.5197 115.308C62.4434 115.395 62.3607 115.467 62.2716 115.523C62.1841 115.577 62.0935 115.62 61.9996 115.651C61.9074 115.682 61.8143 115.702 61.7205 115.713C61.6283 115.726 61.54 115.733 61.4557 115.733C61.2823 115.733 61.1193 115.705 60.9666 115.649C60.8155 115.592 60.6827 115.507 60.5682 115.396C60.4553 115.285 60.3654 115.146 60.2987 114.981C60.2334 114.816 60.2008 114.623 60.2008 114.404C60.2008 114.238 60.2287 114.082 60.2843 113.934C60.3416 113.786 60.4227 113.656 60.5277 113.545C60.6342 113.434 60.7623 113.345 60.9118 113.28C61.0629 113.215 61.233 113.182 61.4223 113.182C61.5861 113.182 61.7356 113.208 61.8708 113.259C62.0076 113.309 62.1245 113.383 62.2215 113.48C62.3201 113.577 62.3965 113.697 62.4505 113.838C62.5062 113.978 62.534 114.137 62.534 114.315C62.534 114.371 62.5316 114.416 62.5269 114.451C62.5221 114.486 62.5133 114.514 62.5006 114.535C62.4879 114.556 62.4704 114.57 62.4481 114.578C62.4275 114.586 62.4004 114.59 62.367 114.59H60.9404ZM63.4528 115.694V113.22H63.9109C64.0031 113.22 64.0635 113.262 64.0922 113.344L64.1327 113.478C64.1741 113.435 64.217 113.396 64.2615 113.361C64.3061 113.325 64.3538 113.294 64.4047 113.268C64.4572 113.241 64.5128 113.22 64.5717 113.206C64.6321 113.19 64.6981 113.182 64.7697 113.182C64.9192 113.182 65.0425 113.221 65.1395 113.299C65.2381 113.375 65.3128 113.478 65.3637 113.607C65.4051 113.531 65.4552 113.465 65.514 113.411C65.5745 113.357 65.6389 113.313 65.7073 113.28C65.7772 113.247 65.8504 113.222 65.9267 113.206C66.0047 113.19 66.0818 113.182 66.1582 113.182C66.2997 113.182 66.4254 113.204 66.5351 113.247C66.6448 113.288 66.7363 113.349 66.8094 113.43C66.8842 113.51 66.9407 113.608 66.9788 113.726C67.017 113.842 67.0361 113.974 67.0361 114.122V115.694H66.2965V114.122C66.2965 113.866 66.1868 113.738 65.9673 113.738C65.8671 113.738 65.7836 113.771 65.7168 113.838C65.6516 113.903 65.619 113.998 65.619 114.122V115.694H64.8794V114.122C64.8794 113.981 64.8516 113.881 64.7959 113.824C64.7403 113.767 64.6584 113.738 64.5502 113.738C64.4834 113.738 64.4198 113.753 64.3594 113.783C64.3005 113.814 64.2448 113.854 64.1924 113.905V115.694H63.4528ZM69.2003 113.182C69.388 113.182 69.5589 113.212 69.7132 113.27C69.8675 113.329 69.9995 113.414 70.1092 113.523C70.2206 113.633 70.3065 113.767 70.3669 113.924C70.4289 114.08 70.4599 114.256 70.4599 114.451C70.4599 114.649 70.4289 114.827 70.3669 114.986C70.3065 115.143 70.2206 115.278 70.1092 115.389C69.9995 115.499 69.8675 115.584 69.7132 115.644C69.5589 115.703 69.388 115.733 69.2003 115.733C69.011 115.733 68.8385 115.703 68.6826 115.644C68.5283 115.584 68.3947 115.499 68.2818 115.389C68.1705 115.278 68.0838 115.143 68.0218 114.986C67.9613 114.827 67.9311 114.649 67.9311 114.451C67.9311 114.256 67.9613 114.08 68.0218 113.924C68.0838 113.767 68.1705 113.633 68.2818 113.523C68.3947 113.414 68.5283 113.329 68.6826 113.27C68.8385 113.212 69.011 113.182 69.2003 113.182ZM69.2003 115.184C69.3705 115.184 69.4953 115.124 69.5748 115.005C69.656 114.884 69.6965 114.701 69.6965 114.456C69.6965 114.211 69.656 114.029 69.5748 113.91C69.4953 113.791 69.3705 113.731 69.2003 113.731C69.0253 113.731 68.8973 113.791 68.8162 113.91C68.7351 114.029 68.6945 114.211 68.6945 114.456C68.6945 114.701 68.7351 114.884 68.8162 115.005C68.8973 115.124 69.0253 115.184 69.2003 115.184ZM72.0729 113.602C72.1493 113.469 72.2367 113.364 72.3353 113.287C72.4355 113.211 72.55 113.173 72.6789 113.173C72.7902 113.173 72.8809 113.199 72.9508 113.251L72.9031 113.795C72.8952 113.83 72.8817 113.854 72.8626 113.867C72.8451 113.88 72.8204 113.886 72.7886 113.886C72.7759 113.886 72.7592 113.885 72.7385 113.884C72.7178 113.882 72.6964 113.88 72.6741 113.879C72.6518 113.876 72.6288 113.873 72.6049 113.872C72.5826 113.869 72.562 113.867 72.5429 113.867C72.4347 113.867 72.3481 113.896 72.2828 113.953C72.2192 114.01 72.1652 114.09 72.1206 114.191V115.694H71.3811V113.22H71.82C71.8566 113.22 71.8868 113.224 71.9107 113.23C71.9361 113.236 71.9568 113.247 71.9727 113.261C71.9902 113.274 72.0029 113.291 72.0109 113.313C72.0204 113.336 72.0284 113.363 72.0347 113.395L72.0729 113.602ZM76.1015 113.22L74.7799 116.336C74.7576 116.385 74.7306 116.421 74.6988 116.443C74.6669 116.467 74.616 116.479 74.5461 116.479H73.9926L74.4697 115.477L73.4821 113.22H74.1357C74.193 113.22 74.2367 113.233 74.2669 113.259C74.2988 113.284 74.3218 113.314 74.3361 113.349L74.7417 114.416C74.7799 114.513 74.8109 114.612 74.8347 114.714C74.8522 114.663 74.8697 114.612 74.8872 114.561C74.9047 114.51 74.923 114.46 74.9421 114.411L75.3095 113.349C75.3238 113.313 75.3492 113.282 75.3858 113.259C75.4224 113.233 75.4622 113.22 75.5051 113.22H76.1015ZM81.9469 113.22L81.1788 115.694H80.5776C80.5458 115.694 80.5187 115.685 80.4965 115.666C80.4742 115.647 80.4567 115.615 80.444 115.57L80.0909 114.337C80.0734 114.281 80.0575 114.226 80.0432 114.172C80.0305 114.118 80.0185 114.063 80.0074 114.008C79.9963 114.063 79.9835 114.119 79.9692 114.175C79.9565 114.23 79.9414 114.286 79.9239 114.342L79.566 115.57C79.5422 115.653 79.4897 115.694 79.4086 115.694H78.836L78.0678 113.22H78.6595C78.712 113.22 78.7557 113.233 78.7907 113.259C78.8273 113.282 78.8519 113.313 78.8647 113.349L79.1128 114.459C79.1334 114.543 79.1517 114.625 79.1676 114.704C79.1835 114.782 79.1979 114.861 79.2106 114.94C79.2313 114.861 79.2527 114.782 79.275 114.704C79.2988 114.625 79.3243 114.543 79.3513 114.459L79.6615 113.347C79.6742 113.31 79.698 113.28 79.733 113.256C79.768 113.231 79.8094 113.218 79.8571 113.218H80.1863C80.2388 113.218 80.2825 113.231 80.3175 113.256C80.3541 113.28 80.3788 113.31 80.3915 113.347L80.6873 114.459C80.7112 114.543 80.7342 114.625 80.7565 114.704C80.7803 114.784 80.8018 114.864 80.8209 114.945C80.8336 114.866 80.8487 114.786 80.8662 114.707C80.8837 114.627 80.9036 114.544 80.9259 114.459L81.1883 113.349C81.201 113.313 81.2249 113.282 81.2599 113.259C81.2949 113.233 81.3362 113.22 81.3839 113.22H81.9469ZM83.516 113.22V115.694H82.7765V113.22H83.516ZM83.5924 112.543C83.5924 112.602 83.5805 112.657 83.5566 112.71C83.5327 112.761 83.5001 112.806 83.4588 112.846C83.4174 112.884 83.3689 112.915 83.3133 112.939C83.2592 112.961 83.2011 112.972 83.1391 112.972C83.0787 112.972 83.0222 112.961 82.9697 112.939C82.9172 112.915 82.8703 112.884 82.829 112.846C82.7892 112.806 82.7574 112.761 82.7335 112.71C82.7113 112.657 82.7001 112.602 82.7001 112.543C82.7001 112.482 82.7113 112.426 82.7335 112.373C82.7574 112.321 82.7892 112.275 82.829 112.235C82.8703 112.195 82.9172 112.164 82.9697 112.142C83.0222 112.12 83.0787 112.109 83.1391 112.109C83.2011 112.109 83.2592 112.12 83.3133 112.142C83.3689 112.164 83.4174 112.195 83.4588 112.235C83.5001 112.275 83.5327 112.321 83.5566 112.373C83.5805 112.426 83.5924 112.482 83.5924 112.543ZM85.4656 115.733C85.3479 115.733 85.2438 115.716 85.1531 115.682C85.064 115.647 84.9885 115.599 84.9265 115.537C84.866 115.473 84.8199 115.397 84.7881 115.308C84.7563 115.219 84.7404 115.119 84.7404 115.01V113.731H84.5304C84.4923 113.731 84.4597 113.719 84.4326 113.695C84.4056 113.67 84.3921 113.633 84.3921 113.585V113.297L84.7857 113.22L84.9312 112.617C84.9503 112.54 85.0044 112.502 85.0935 112.502H85.4799V113.225H86.0931V113.731H85.4799V114.96C85.4799 115.017 85.4935 115.065 85.5205 115.103C85.5491 115.139 85.5897 115.158 85.6422 115.158C85.6692 115.158 85.6915 115.155 85.709 115.15C85.728 115.144 85.7439 115.138 85.7567 115.131C85.771 115.123 85.7837 115.117 85.7948 115.112C85.8076 115.106 85.8219 115.103 85.8378 115.103C85.8601 115.103 85.8775 115.108 85.8903 115.119C85.9046 115.129 85.9189 115.145 85.9332 115.167L86.1575 115.518C86.062 115.589 85.9547 115.643 85.8354 115.68C85.7161 115.715 85.5929 115.733 85.4656 115.733ZM87.7 113.437C87.7891 113.361 87.8853 113.3 87.9887 113.254C88.0936 113.206 88.2185 113.182 88.3632 113.182C88.4984 113.182 88.6177 113.206 88.7211 113.254C88.826 113.3 88.9143 113.365 88.9859 113.449C89.0574 113.532 89.1115 113.632 89.1481 113.748C89.1847 113.862 89.203 113.987 89.203 114.122V115.694H88.4634V114.122C88.4634 114.001 88.4356 113.907 88.3799 113.841C88.3242 113.772 88.2423 113.738 88.1342 113.738C88.0531 113.738 87.9767 113.756 87.9052 113.791C87.8352 113.824 87.7668 113.87 87.7 113.929V115.694H86.9604V112.123H87.7V113.437ZM92.7684 115.733C92.6507 115.733 92.5465 115.716 92.4559 115.682C92.3668 115.647 92.2913 115.599 92.2292 115.537C92.1688 115.473 92.1227 115.397 92.0909 115.308C92.0591 115.219 92.0431 115.119 92.0431 115.01V113.731H91.8332C91.795 113.731 91.7624 113.719 91.7354 113.695C91.7084 113.67 91.6948 113.633 91.6948 113.585V113.297L92.0885 113.22L92.234 112.617C92.2531 112.54 92.3072 112.502 92.3962 112.502H92.7827V113.225H93.3958V113.731H92.7827V114.96C92.7827 115.017 92.7962 115.065 92.8233 115.103C92.8519 115.139 92.8924 115.158 92.9449 115.158C92.972 115.158 92.9942 115.155 93.0117 115.15C93.0308 115.144 93.0467 115.138 93.0594 115.131C93.0738 115.123 93.0865 115.117 93.0976 115.112C93.1103 115.106 93.1247 115.103 93.1406 115.103C93.1628 115.103 93.1803 115.108 93.193 115.119C93.2074 115.129 93.2217 115.145 93.236 115.167L93.4602 115.518C93.3648 115.589 93.2575 115.643 93.1382 115.68C93.0189 115.715 92.8956 115.733 92.7684 115.733ZM95.0028 113.437C95.0918 113.361 95.188 113.3 95.2914 113.254C95.3964 113.206 95.5212 113.182 95.666 113.182C95.8012 113.182 95.9204 113.206 96.0238 113.254C96.1288 113.3 96.2171 113.365 96.2886 113.449C96.3602 113.532 96.4143 113.632 96.4509 113.748C96.4874 113.862 96.5057 113.987 96.5057 114.122V115.694H95.7662V114.122C95.7662 114.001 95.7383 113.907 95.6827 113.841C95.627 113.772 95.5451 113.738 95.4369 113.738C95.3558 113.738 95.2795 113.756 95.2079 113.791C95.1379 113.824 95.0696 113.87 95.0028 113.929V115.694H94.2632V112.123H95.0028V113.437ZM99.0718 114.16C99.0718 114.102 99.0639 114.044 99.048 113.989C99.0336 113.933 99.009 113.884 98.974 113.841C98.9406 113.796 98.8961 113.76 98.8404 113.733C98.7847 113.706 98.7171 113.693 98.6376 113.693C98.4977 113.693 98.3879 113.733 98.3084 113.814C98.2289 113.894 98.1764 114.009 98.1509 114.16H99.0718ZM98.1414 114.59C98.1653 114.797 98.2281 114.947 98.3299 115.041C98.4317 115.133 98.5629 115.179 98.7235 115.179C98.8094 115.179 98.8833 115.169 98.9454 115.148C99.0074 115.127 99.0623 115.104 99.11 115.079C99.1593 115.053 99.2038 115.03 99.2436 115.01C99.2849 114.989 99.3279 114.979 99.3724 114.979C99.4313 114.979 99.4758 115 99.506 115.043L99.7207 115.308C99.6444 115.395 99.5617 115.467 99.4726 115.523C99.3851 115.577 99.2945 115.62 99.2006 115.651C99.1084 115.682 99.0154 115.702 98.9215 115.713C98.8293 115.726 98.741 115.733 98.6567 115.733C98.4834 115.733 98.3203 115.705 98.1676 115.649C98.0166 115.592 97.8838 115.507 97.7692 115.396C97.6563 115.285 97.5665 115.146 97.4997 114.981C97.4345 114.816 97.4018 114.623 97.4018 114.404C97.4018 114.238 97.4297 114.082 97.4853 113.934C97.5426 113.786 97.6237 113.656 97.7287 113.545C97.8352 113.434 97.9633 113.345 98.1128 113.28C98.2639 113.215 98.434 113.182 98.6233 113.182C98.7871 113.182 98.9366 113.208 99.0718 113.259C99.2086 113.309 99.3255 113.383 99.4225 113.48C99.5211 113.577 99.5975 113.697 99.6515 113.838C99.7072 113.978 99.735 114.137 99.735 114.315C99.735 114.371 99.7326 114.416 99.7279 114.451C99.7231 114.486 99.7144 114.514 99.7016 114.535C99.6889 114.556 99.6714 114.57 99.6491 114.578C99.6285 114.586 99.6014 114.59 99.568 114.59H98.1414ZM102.989 113.488C103.037 113.443 103.086 113.402 103.137 113.364C103.188 113.325 103.242 113.294 103.299 113.268C103.358 113.241 103.421 113.22 103.488 113.206C103.556 113.19 103.63 113.182 103.71 113.182C103.845 113.182 103.964 113.206 104.067 113.254C104.172 113.3 104.261 113.365 104.332 113.449C104.404 113.532 104.458 113.632 104.494 113.748C104.531 113.862 104.549 113.987 104.549 114.122V115.694H103.81V114.122C103.81 114.001 103.782 113.907 103.726 113.841C103.671 113.772 103.589 113.738 103.481 113.738C103.399 113.738 103.323 113.756 103.252 113.791C103.182 113.824 103.113 113.87 103.046 113.929V115.694H102.307V113.22H102.765C102.857 113.22 102.918 113.262 102.946 113.344L102.989 113.488ZM106.717 113.182C106.905 113.182 107.076 113.212 107.23 113.27C107.384 113.329 107.516 113.414 107.626 113.523C107.737 113.633 107.823 113.767 107.884 113.924C107.946 114.08 107.977 114.256 107.977 114.451C107.977 114.649 107.946 114.827 107.884 114.986C107.823 115.143 107.737 115.278 107.626 115.389C107.516 115.499 107.384 115.584 107.23 115.644C107.076 115.703 106.905 115.733 106.717 115.733C106.528 115.733 106.355 115.703 106.199 115.644C106.045 115.584 105.911 115.499 105.799 115.389C105.687 115.278 105.601 115.143 105.539 114.986C105.478 114.827 105.448 114.649 105.448 114.451C105.448 114.256 105.478 114.08 105.539 113.924C105.601 113.767 105.687 113.633 105.799 113.523C105.911 113.414 106.045 113.329 106.199 113.27C106.355 113.212 106.528 113.182 106.717 113.182ZM106.717 115.184C106.887 115.184 107.012 115.124 107.092 115.005C107.173 114.884 107.213 114.701 107.213 114.456C107.213 114.211 107.173 114.029 107.092 113.91C107.012 113.791 106.887 113.731 106.717 113.731C106.542 113.731 106.414 113.791 106.333 113.91C106.252 114.029 106.211 114.211 106.211 114.456C106.211 114.701 106.252 114.884 106.333 115.005C106.414 115.124 106.542 115.184 106.717 115.184ZM109.637 115.022C109.693 115.082 109.753 115.125 109.819 115.15C109.884 115.176 109.95 115.189 110.017 115.189C110.087 115.189 110.151 115.176 110.21 115.15C110.269 115.123 110.319 115.08 110.36 115.022C110.403 114.961 110.437 114.882 110.46 114.785C110.484 114.687 110.496 114.566 110.496 114.423C110.496 114.299 110.487 114.194 110.468 114.108C110.45 114.02 110.423 113.95 110.386 113.896C110.351 113.84 110.307 113.8 110.253 113.776C110.2 113.751 110.14 113.738 110.072 113.738C109.981 113.738 109.902 113.758 109.835 113.798C109.769 113.837 109.703 113.896 109.637 113.972V115.022ZM109.637 113.483C109.733 113.392 109.837 113.32 109.95 113.266C110.064 113.21 110.192 113.182 110.332 113.182C110.472 113.182 110.599 113.211 110.713 113.268C110.828 113.325 110.926 113.407 111.007 113.514C111.088 113.619 111.15 113.746 111.193 113.896C111.237 114.045 111.26 114.212 111.26 114.397C111.26 114.597 111.234 114.779 111.183 114.943C111.132 115.107 111.06 115.247 110.966 115.365C110.874 115.481 110.763 115.572 110.635 115.637C110.506 115.701 110.363 115.733 110.208 115.733C110.133 115.733 110.066 115.725 110.007 115.711C109.948 115.697 109.894 115.677 109.845 115.651C109.796 115.624 109.75 115.593 109.709 115.556C109.669 115.519 109.63 115.48 109.592 115.437L109.566 115.561C109.553 115.612 109.532 115.647 109.504 115.666C109.475 115.685 109.437 115.694 109.389 115.694H108.898V112.123H109.637V113.483ZM112.926 112.123V115.694H112.186V112.123H112.926ZM115.513 114.16C115.513 114.102 115.505 114.044 115.489 113.989C115.475 113.933 115.45 113.884 115.415 113.841C115.382 113.796 115.337 113.76 115.282 113.733C115.226 113.706 115.159 113.693 115.079 113.693C114.939 113.693 114.829 113.733 114.75 113.814C114.67 113.894 114.618 114.009 114.592 114.16H115.513ZM114.583 114.59C114.607 114.797 114.669 114.947 114.771 115.041C114.873 115.133 115.004 115.179 115.165 115.179C115.251 115.179 115.325 115.169 115.387 115.148C115.449 115.127 115.504 115.104 115.551 115.079C115.601 115.053 115.645 115.03 115.685 115.01C115.726 114.989 115.769 114.979 115.814 114.979C115.873 114.979 115.917 115 115.947 115.043L116.162 115.308C116.086 115.395 116.003 115.467 115.914 115.523C115.827 115.577 115.736 115.62 115.642 115.651C115.55 115.682 115.457 115.702 115.363 115.713C115.271 115.726 115.182 115.733 115.098 115.733C114.925 115.733 114.762 115.705 114.609 115.649C114.458 115.592 114.325 115.507 114.211 115.396C114.098 115.285 114.008 115.146 113.941 114.981C113.876 114.816 113.843 114.623 113.843 114.404C113.843 114.238 113.871 114.082 113.927 113.934C113.984 113.786 114.065 113.656 114.17 113.545C114.277 113.434 114.405 113.345 114.554 113.28C114.705 113.215 114.875 113.182 115.065 113.182C115.229 113.182 115.378 113.208 115.513 113.259C115.65 113.309 115.767 113.383 115.864 113.48C115.963 113.577 116.039 113.697 116.093 113.838C116.149 113.978 116.176 114.137 116.176 114.315C116.176 114.371 116.174 114.416 116.169 114.451C116.164 114.486 116.156 114.514 116.143 114.535C116.13 114.556 116.113 114.57 116.091 114.578C116.07 114.586 116.043 114.59 116.009 114.59H114.583ZM119.488 115.022C119.543 115.082 119.604 115.125 119.669 115.15C119.734 115.176 119.8 115.189 119.867 115.189C119.937 115.189 120.001 115.176 120.06 115.15C120.119 115.123 120.169 115.08 120.211 115.022C120.254 114.961 120.287 114.882 120.311 114.785C120.335 114.687 120.347 114.566 120.347 114.423C120.347 114.299 120.337 114.194 120.318 114.108C120.3 114.02 120.273 113.95 120.237 113.896C120.202 113.84 120.157 113.8 120.103 113.776C120.051 113.751 119.99 113.738 119.922 113.738C119.831 113.738 119.753 113.758 119.686 113.798C119.619 113.837 119.553 113.896 119.488 113.972V115.022ZM119.488 113.483C119.583 113.392 119.687 113.32 119.8 113.266C119.915 113.21 120.042 113.182 120.182 113.182C120.322 113.182 120.449 113.211 120.564 113.268C120.678 113.325 120.776 113.407 120.857 113.514C120.938 113.619 121 113.746 121.043 113.896C121.088 114.045 121.11 114.212 121.11 114.397C121.11 114.597 121.085 114.779 121.034 114.943C120.983 115.107 120.91 115.247 120.817 115.365C120.724 115.481 120.614 115.572 120.485 115.637C120.356 115.701 120.214 115.733 120.058 115.733C119.983 115.733 119.916 115.725 119.858 115.711C119.799 115.697 119.745 115.677 119.695 115.651C119.646 115.624 119.601 115.593 119.559 115.556C119.52 115.519 119.481 115.48 119.442 115.437L119.416 115.561C119.403 115.612 119.383 115.647 119.354 115.666C119.326 115.685 119.287 115.694 119.24 115.694H118.748V112.123H119.488V113.483ZM123.177 113.182C123.365 113.182 123.536 113.212 123.69 113.27C123.844 113.329 123.976 113.414 124.086 113.523C124.197 113.633 124.283 113.767 124.344 113.924C124.406 114.08 124.437 114.256 124.437 114.451C124.437 114.649 124.406 114.827 124.344 114.986C124.283 115.143 124.197 115.278 124.086 115.389C123.976 115.499 123.844 115.584 123.69 115.644C123.536 115.703 123.365 115.733 123.177 115.733C122.988 115.733 122.815 115.703 122.659 115.644C122.505 115.584 122.371 115.499 122.259 115.389C122.147 115.278 122.061 115.143 121.999 114.986C121.938 114.827 121.908 114.649 121.908 114.451C121.908 114.256 121.938 114.08 121.999 113.924C122.061 113.767 122.147 113.633 122.259 113.523C122.371 113.414 122.505 113.329 122.659 113.27C122.815 113.212 122.988 113.182 123.177 113.182ZM123.177 115.184C123.347 115.184 123.472 115.124 123.552 115.005C123.633 114.884 123.673 114.701 123.673 114.456C123.673 114.211 123.633 114.029 123.552 113.91C123.472 113.791 123.347 113.731 123.177 113.731C123.002 113.731 122.874 113.791 122.793 113.91C122.712 114.029 122.671 114.211 122.671 114.456C122.671 114.701 122.712 114.884 122.793 115.005C122.874 115.124 123.002 115.184 123.177 115.184ZM126.498 113.182C126.686 113.182 126.857 113.212 127.011 113.27C127.165 113.329 127.297 113.414 127.407 113.523C127.518 113.633 127.604 113.767 127.665 113.924C127.727 114.08 127.758 114.256 127.758 114.451C127.758 114.649 127.727 114.827 127.665 114.986C127.604 115.143 127.518 115.278 127.407 115.389C127.297 115.499 127.165 115.584 127.011 115.644C126.857 115.703 126.686 115.733 126.498 115.733C126.309 115.733 126.136 115.703 125.98 115.644C125.826 115.584 125.693 115.499 125.58 115.389C125.468 115.278 125.382 115.143 125.32 114.986C125.259 114.827 125.229 114.649 125.229 114.451C125.229 114.256 125.259 114.08 125.32 113.924C125.382 113.767 125.468 113.633 125.58 113.523C125.693 113.414 125.826 113.329 125.98 113.27C126.136 113.212 126.309 113.182 126.498 113.182ZM126.498 115.184C126.668 115.184 126.793 115.124 126.873 115.005C126.954 114.884 126.994 114.701 126.994 114.456C126.994 114.211 126.954 114.029 126.873 113.91C126.793 113.791 126.668 113.731 126.498 113.731C126.323 113.731 126.195 113.791 126.114 113.91C126.033 114.029 125.992 114.211 125.992 114.456C125.992 114.701 126.033 114.884 126.114 115.005C126.195 115.124 126.323 115.184 126.498 115.184ZM129.418 112.123V114.125H129.528C129.574 114.125 129.609 114.118 129.633 114.105C129.657 114.091 129.681 114.068 129.705 114.036L130.172 113.34C130.201 113.3 130.234 113.27 130.27 113.251C130.307 113.231 130.354 113.22 130.411 113.22H131.088L130.449 114.101C130.389 114.18 130.317 114.245 130.234 114.296C130.271 114.323 130.304 114.355 130.335 114.392C130.365 114.427 130.393 114.467 130.42 114.511L131.117 115.694H130.449C130.393 115.694 130.346 115.686 130.306 115.668C130.266 115.649 130.233 115.616 130.206 115.57L129.738 114.695C129.716 114.655 129.693 114.63 129.669 114.618C129.645 114.606 129.609 114.599 129.562 114.599H129.418V115.694H128.679V112.123H129.418Z" fill="#28741C" fill-opacity="0.6"/>
<path d="M49.2863 100.608V99.7333H49.9877V100.608H49.2863ZM46.4807 100.608C45.746 100.608 45.1826 100.461 44.7907 100.168C44.4033 99.8692 44.2096 99.4372 44.2096 98.8716C44.2096 98.7648 44.2163 98.6534 44.2296 98.5376C44.243 98.4219 44.2586 98.3105 44.2764 98.2036C44.2942 98.0968 44.312 98.0032 44.3298 97.9231C44.3476 97.8385 44.361 97.7739 44.3699 97.7294L45.3652 97.9231C45.3518 97.9899 45.334 98.0767 45.3118 98.1836C45.2895 98.2905 45.2695 98.404 45.2516 98.5243C45.2383 98.6401 45.2316 98.7514 45.2316 98.8583C45.2316 99.0898 45.2828 99.2702 45.3852 99.3993C45.4877 99.524 45.6346 99.6109 45.8261 99.6599C46.0221 99.7088 46.2603 99.7333 46.5409 99.7333H48.2643V97.2484H49.2863V100.608H46.4807ZM49.9877 100.608V99.7333C50.0367 99.7333 50.0701 99.7734 50.0879 99.8536C50.1101 99.9293 50.1213 100.034 50.1213 100.168C50.1213 100.301 50.1101 100.408 50.0879 100.488C50.0701 100.568 50.0367 100.608 49.9877 100.608ZM46.3204 95.9726V95.2645H47.1955V95.9726H46.3204ZM45.6124 97.0347V96.2197H46.5876V97.0347H45.6124ZM46.9283 97.0347V96.2197H47.9036V97.0347H46.9283ZM50.7911 100.608V99.7333H53.6367L53.2827 100.007V98.9251C53.2827 98.6668 53.2025 98.4708 53.0422 98.3372C52.8819 98.1992 52.6236 98.1302 52.2673 98.1302C52.1694 98.1302 52.038 98.1368 51.8732 98.1502C51.7085 98.1636 51.5281 98.1836 51.3322 98.2103L51.2386 97.4087C51.4257 97.3642 51.6149 97.3264 51.8064 97.2952C52.0024 97.264 52.1916 97.2484 52.3742 97.2484C52.7483 97.2484 53.0801 97.3174 53.3695 97.4555C53.659 97.5891 53.8861 97.7806 54.0509 98.03C54.2201 98.2749 54.3047 98.5733 54.3047 98.9251V100.608H50.7911ZM50.7911 100.608C50.7421 100.608 50.7087 100.568 50.6909 100.488C50.6686 100.408 50.6575 100.301 50.6575 100.168C50.6575 100.034 50.6686 99.9293 50.6909 99.8536C50.7087 99.7734 50.7421 99.7333 50.7911 99.7333V100.608ZM57.1098 100.608V99.7333H57.8513V100.608H57.1098ZM56.0945 100.608V95.9124H57.1098V100.608H56.0945ZM57.8513 100.608V99.7333C57.9047 99.7333 57.9404 99.7734 57.9582 99.8536C57.976 99.9293 57.9849 100.034 57.9849 100.168C57.9849 100.301 57.976 100.408 57.9582 100.488C57.9404 100.568 57.9047 100.608 57.8513 100.608ZM60.3669 100.608V99.7333H61.0682V100.608H60.3669ZM58.6501 100.608V99.7333H59.9661L59.3448 100.248V97.2484H60.3669V100.608H58.6501ZM58.6501 100.608C58.6011 100.608 58.5677 100.568 58.5499 100.488C58.5277 100.408 58.5165 100.301 58.5165 100.168C58.5165 100.034 58.5277 99.9293 58.5499 99.8536C58.5677 99.7734 58.6011 99.7333 58.6501 99.7333V100.608ZM61.0682 100.608V99.7333C61.1172 99.7333 61.1506 99.7734 61.1684 99.8536C61.1907 99.9293 61.2018 100.034 61.2018 100.168C61.2018 100.301 61.1907 100.408 61.1684 100.488C61.1506 100.568 61.1172 100.608 61.0682 100.608ZM59.3448 102.105V101.29H60.3735V102.105H59.3448ZM62.6133 100.608V95.9124H63.6354V100.608H62.6133ZM61.8719 100.608V99.7333H62.6133V100.608H61.8719ZM61.8719 100.608C61.8229 100.608 61.7895 100.568 61.7717 100.488C61.7494 100.408 61.7383 100.301 61.7383 100.168C61.7383 100.034 61.7494 99.9293 61.7717 99.8536C61.7895 99.7734 61.8229 99.7333 61.8719 99.7333V100.608ZM65.4727 100.608V95.9124H66.488V100.608H65.4727ZM72.1053 100.608C71.7312 100.608 71.415 100.548 71.1567 100.428C70.9029 100.308 70.7114 100.125 70.5823 99.8803C70.4576 99.6354 70.3952 99.3281 70.3952 98.9585C70.3952 98.5844 70.4576 98.2704 70.5823 98.0166C70.7114 97.7628 70.9029 97.5713 71.1567 97.4421C71.415 97.313 71.7312 97.2484 72.1053 97.2484H73.6617V100.134H72.6397V97.9498L72.8468 98.1235H72.1053C71.9539 98.1235 71.827 98.1435 71.7245 98.1836C71.6221 98.2192 71.5442 98.2972 71.4907 98.4174C71.4417 98.5332 71.4173 98.7135 71.4173 98.9585C71.4173 99.1856 71.4395 99.3548 71.4841 99.4661C71.5286 99.5775 71.6021 99.6509 71.7045 99.6866C71.8069 99.7177 71.9405 99.7333 72.1053 99.7333H74.3564V100.608H72.1053ZM74.3564 100.608V99.7333C74.4098 99.7333 74.4455 99.7734 74.4633 99.8536C74.4811 99.9293 74.49 100.034 74.49 100.168C74.49 100.301 74.4811 100.408 74.4633 100.488C74.4455 100.568 74.4098 100.608 74.3564 100.608ZM71.2369 96.9144V96.0995H72.2656V96.9144H71.2369ZM72.152 96.9144V96.0995H73.1807V96.9144H72.152ZM77.3544 100.608V99.7333H78.2228V100.608H77.3544ZM78.2228 100.608V99.7333C78.2762 99.7333 78.3119 99.7734 78.3297 99.8536C78.3475 99.9293 78.3564 100.034 78.3564 100.168C78.3564 100.301 78.3475 100.408 78.3297 100.488C78.3119 100.568 78.2762 100.608 78.2228 100.608ZM75.1567 100.608V99.7333H76.9536L76.3324 100.248V97.2484H77.3544V100.608H75.1567ZM75.1567 100.608C75.1078 100.608 75.0744 100.568 75.0565 100.488C75.0343 100.408 75.0231 100.301 75.0231 100.168C75.0231 100.034 75.0343 99.9293 75.0565 99.8536C75.0744 99.7734 75.1078 99.7333 75.1567 99.7333V100.608ZM75.4239 102.058V101.243H76.4526V102.058H75.4239ZM76.3391 102.058V101.243H77.3678V102.058H76.3391ZM79.0176 100.608V99.7333H82.4243L82.0102 100.101V98.9451C82.0102 98.7269 81.9857 98.5577 81.9367 98.4374C81.8922 98.3172 81.8098 98.2326 81.6896 98.1836C81.5738 98.1346 81.4112 98.1101 81.2019 98.1101C81.0193 98.1101 80.8412 98.1213 80.6675 98.1435C80.4983 98.1658 80.3647 98.197 80.2667 98.237L80.9013 97.6492C80.8746 97.7472 80.8479 97.8741 80.8212 98.03C80.7989 98.1858 80.7789 98.3506 80.7611 98.5243C80.7477 98.6935 80.741 98.8583 80.741 99.0186C80.741 99.1655 80.7477 99.3214 80.7611 99.4862C80.7789 99.6509 80.7967 99.7979 80.8145 99.9271C80.8368 100.052 80.8523 100.136 80.8613 100.181L79.8927 100.455C79.8704 100.388 79.8459 100.283 79.8192 100.141C79.7925 99.9983 79.7702 99.8313 79.7524 99.6398C79.7346 99.4439 79.7257 99.2368 79.7257 99.0186C79.7257 98.8004 79.7346 98.5888 79.7524 98.384C79.7747 98.1747 79.8014 97.9854 79.8326 97.8162C79.8637 97.647 79.8927 97.5134 79.9194 97.4154C80.0263 97.3753 80.1955 97.3353 80.4271 97.2952C80.6631 97.2551 80.9214 97.2351 81.2019 97.2351C81.6116 97.2351 81.9501 97.2907 82.2173 97.4021C82.4889 97.5134 82.6915 97.6937 82.8251 97.9431C82.9632 98.1925 83.0322 98.5287 83.0322 98.9518V100.608H79.0176ZM79.0243 100.608C78.9753 100.608 78.9419 100.568 78.9241 100.488C78.9018 100.408 78.8907 100.301 78.8907 100.168C78.8907 100.034 78.9018 99.9293 78.9241 99.8536C78.9419 99.7734 78.9753 99.7333 79.0243 99.7333V100.608ZM84.5485 100.608V99.7333H86.9532L86.2853 100.308V99.2991C86.2853 98.9919 86.2541 98.7536 86.1917 98.5844C86.1294 98.4152 86.027 98.2972 85.8845 98.2304C85.742 98.1591 85.546 98.1235 85.2966 98.1235H84.7556V97.2484H85.2966C85.7286 97.2484 86.0938 97.3197 86.3921 97.4622C86.6905 97.6047 86.9176 97.8273 87.0735 98.1302C87.2294 98.4285 87.3073 98.8182 87.3073 99.2991V100.608H84.5485ZM90.026 100.608V99.7333H90.7675V100.608H90.026ZM89.0107 100.608V95.9124H90.026V100.608H89.0107ZM90.7675 100.608V99.7333C90.8209 99.7333 90.8565 99.7734 90.8743 99.8536C90.8922 99.9293 90.9011 100.034 90.9011 100.168C90.9011 100.301 90.8922 100.408 90.8743 100.488C90.8565 100.568 90.8209 100.608 90.7675 100.608ZM91.5663 100.608V99.7333H94.9196L94.5989 99.9938V99.1856C94.5989 98.9585 94.5745 98.7781 94.5255 98.6445C94.4809 98.5109 94.4141 98.4152 94.3251 98.3573C94.236 98.2994 94.1224 98.2704 93.9844 98.2704H92.5148L91.907 97.3954L92.261 96.7207C92.2966 96.6539 92.3367 96.5804 92.3812 96.5003C92.4302 96.4157 92.4926 96.3132 92.5683 96.193C92.6484 96.0683 92.7486 95.9124 92.8689 95.7254L93.7306 96.2064C93.6192 96.3667 93.5302 96.5025 93.4634 96.6138C93.3966 96.7252 93.3387 96.8209 93.2897 96.9011C93.2452 96.9812 93.2029 97.0614 93.1628 97.1415L92.9223 97.5958L92.7887 97.3954H93.9844C94.2739 97.3954 94.521 97.4421 94.7259 97.5357C94.9307 97.6292 95.0977 97.7605 95.2269 97.9298C95.3605 98.0945 95.4584 98.2838 95.5208 98.4976C95.5831 98.7113 95.6143 98.9407 95.6143 99.1856V100.608H91.5663ZM91.5663 100.608C91.5173 100.608 91.4839 100.568 91.4661 100.488C91.4438 100.408 91.4327 100.301 91.4327 100.168C91.4327 100.034 91.4438 99.9293 91.4661 99.8536C91.4839 99.7734 91.5173 99.7333 91.5663 99.7333V100.608ZM97.4568 100.608V95.9124H98.4721V100.608H97.4568ZM97.5303 95.338C97.4412 95.2311 97.3722 95.1287 97.3232 95.0307C97.2787 94.9327 97.2564 94.8303 97.2564 94.7234C97.2564 94.5587 97.2987 94.4139 97.3833 94.2892C97.4679 94.1601 97.5793 94.0599 97.7173 93.9886C97.8554 93.9129 98.0068 93.8751 98.1715 93.8751C98.2651 93.8751 98.3586 93.8884 98.4521 93.9152C98.5456 93.9374 98.6235 93.9708 98.6859 94.0154L98.4454 94.4629C98.4053 94.4406 98.363 94.4251 98.3185 94.4161C98.2784 94.4072 98.2383 94.4028 98.1983 94.4028C98.0914 94.4028 98.009 94.4317 97.9511 94.4896C97.8932 94.5475 97.8643 94.621 97.8643 94.7101C97.8643 94.7635 97.8754 94.8147 97.8977 94.8637C97.9199 94.9127 97.9533 94.9617 97.9979 95.0107L97.5303 95.338ZM97.1028 95.4048V94.8837H98.8262V95.4048H97.1028Z" fill="url(#paint12_linear_321_453)"/>
<defs>
<linearGradient id="paint0_linear_321_453" x1="111.146" y1="30.8519" x2="33.9724" y2="30.8519" gradientUnits="userSpaceOnUse">
<stop stop-color="#FFD700"/>
<stop offset="0.425071" stop-color="#FFD700" stop-opacity="0.26"/>
<stop offset="1" stop-color="#FFD700" stop-opacity="0.9"/>
</linearGradient>
<linearGradient id="paint1_linear_321_453" x1="112.316" y1="23.4327" x2="106.505" y2="27.6546" gradientUnits="userSpaceOnUse">
<stop stop-color="#FFD700"/>
<stop offset="0.425071" stop-color="#FFD700" stop-opacity="0.26"/>
<stop offset="1" stop-color="#FFD700" stop-opacity="0.9"/>
</linearGradient>
<linearGradient id="paint2_linear_321_453" x1="104.759" y1="13.8151" x2="99.0368" y2="18.4809" gradientUnits="userSpaceOnUse">
<stop stop-color="#FFD700"/>
<stop offset="0.425071" stop-color="#FFD700" stop-opacity="0.26"/>
<stop offset="1" stop-color="#FFD700" stop-opacity="0.9"/>
</linearGradient>
<linearGradient id="paint3_linear_321_453" x1="95.7025" y1="6.11795" x2="90.2424" y2="11.6438" gradientUnits="userSpaceOnUse">
<stop stop-color="#FFD700"/>
<stop offset="0.425071" stop-color="#FFD700" stop-opacity="0.26"/>
<stop offset="1" stop-color="#FFD700" stop-opacity="0.9"/>
</linearGradient>
<linearGradient id="paint4_linear_321_453" x1="117.609" y1="36.2193" x2="111.738" y2="40.0074" gradientUnits="userSpaceOnUse">
<stop stop-color="#FFD700"/>
<stop offset="0.425071" stop-color="#FFD700" stop-opacity="0.26"/>
<stop offset="1" stop-color="#FFD700" stop-opacity="0.9"/>
</linearGradient>
<linearGradient id="paint5_linear_321_453" x1="83.8525" y1="1.09978" x2="81.3528" y2="9.91974" gradientUnits="userSpaceOnUse">
<stop stop-color="#FFD700"/>
<stop offset="0.425071" stop-color="#FFD700" stop-opacity="0.26"/>
<stop offset="1" stop-color="#FFD700" stop-opacity="0.9"/>
</linearGradient>
<linearGradient id="paint6_linear_321_453" x1="71.7517" y1="0.172418" x2="73.9095" y2="9.14561" gradientUnits="userSpaceOnUse">
<stop stop-color="#FFD700"/>
<stop offset="0.425071" stop-color="#FFD700" stop-opacity="0.26"/>
<stop offset="1" stop-color="#FFD700" stop-opacity="0.9"/>
</linearGradient>
<linearGradient id="paint7_linear_321_453" x1="32.2229" y1="24.4886" x2="38.0524" y2="28.5943" gradientUnits="userSpaceOnUse">
<stop stop-color="#FFD700"/>
<stop offset="0.425071" stop-color="#FFD700" stop-opacity="0.26"/>
<stop offset="1" stop-color="#FFD700" stop-opacity="0.9"/>
</linearGradient>
<linearGradient id="paint8_linear_321_453" x1="27.7863" y1="36.6216" x2="33.6158" y2="40.7273" gradientUnits="userSpaceOnUse">
<stop stop-color="#FFD700"/>
<stop offset="0.425071" stop-color="#FFD700" stop-opacity="0.26"/>
<stop offset="1" stop-color="#FFD700" stop-opacity="0.9"/>
</linearGradient>
<linearGradient id="paint9_linear_321_453" x1="39.4328" y1="14.8663" x2="45.0801" y2="19.8222" gradientUnits="userSpaceOnUse">
<stop stop-color="#FFD700"/>
<stop offset="0.425071" stop-color="#FFD700" stop-opacity="0.26"/>
<stop offset="1" stop-color="#FFD700" stop-opacity="0.9"/>
</linearGradient>
<linearGradient id="paint10_linear_321_453" x1="48.0073" y1="8.48581" x2="53.6535" y2="13.4456" gradientUnits="userSpaceOnUse">
<stop stop-color="#FFD700"/>
<stop offset="0.425071" stop-color="#FFD700" stop-opacity="0.26"/>
<stop offset="1" stop-color="#FFD700" stop-opacity="0.9"/>
</linearGradient>
<linearGradient id="paint11_linear_321_453" x1="60.009" y1="2.85095" x2="64.8185" y2="9.64323" gradientUnits="userSpaceOnUse">
<stop stop-color="#FFD700"/>
<stop offset="0.425071" stop-color="#FFD700" stop-opacity="0.26"/>
<stop offset="1" stop-color="#FFD700" stop-opacity="0.9"/>
</linearGradient>
<linearGradient id="paint12_linear_321_453" x1="46.3688" y1="108.22" x2="106.181" y2="108.22" gradientUnits="userSpaceOnUse">
<stop stop-color="#267A95"/>
<stop offset="0.931375" stop-color="#50CA3D"/>
</linearGradient>
</defs>
</svg>
