<svg width="28" height="21" viewBox="0 0 28 21" fill="none" xmlns="http://www.w3.org/2000/svg">
<rect x="0.0742188" y="0.263184" width="26.6153" height="19.831" rx="2.08747" fill="white"/>
<path d="M6.15816 20.0552V9.87937L2.91142 6.99228L0 5.39014V18.2594C0 19.253 0.828222 20.0552 1.84749 20.0552H6.15816Z" fill="#4285F4"/>
<path d="M20.9365 20.0551H25.2472C26.2695 20.0551 27.0947 19.2499 27.0947 18.2593V5.39014L23.797 7.22519L20.9365 9.87927V20.0551Z" fill="#34A853"/>
<path d="M6.15859 9.87952L5.7168 5.90354L6.15859 2.09814L13.5483 7.48531L20.9381 2.09814L21.4323 5.69809L20.9381 9.87952L13.5483 15.2667L6.15859 9.87952Z" fill="#EA4335"/>
<path d="M20.9365 2.09813V9.8795L27.0947 5.39026V2.99596C27.0947 0.775308 24.4867 -0.49062 22.6609 0.841151L20.9365 2.09813Z" fill="#FBBC04"/>
<path d="M0 5.39031L2.83225 7.4551L6.15816 9.87955V2.09818L4.43376 0.841198C2.6048 -0.490676 0 0.775355 0 2.9959V5.39021V5.39031Z" fill="#C5221F"/>
</svg>
