<svg width="53" height="52" viewBox="0 0 53 52" fill="none" xmlns="http://www.w3.org/2000/svg">
<path d="M26.104 0C11.6946 0 0 11.648 0 26C0 40.352 11.6946 52 26.104 52C40.5134 52 52.208 40.352 52.208 26C52.208 11.648 40.5134 0 26.104 0ZM26.104 7.8C30.4373 7.8 33.9352 11.284 33.9352 15.6C33.9352 19.916 30.4373 23.4 26.104 23.4C21.7707 23.4 18.2728 19.916 18.2728 15.6C18.2728 11.284 21.7707 7.8 26.104 7.8ZM26.104 44.72C19.578 44.72 13.809 41.392 10.4416 36.348C10.5199 31.174 20.8832 28.34 26.104 28.34C31.2987 28.34 41.6881 31.174 41.7664 36.348C38.399 41.392 32.63 44.72 26.104 44.72Z" fill="#267A95"/>
</svg>
