<svg width="30" height="35" viewBox="0 0 30 35" fill="none" xmlns="http://www.w3.org/2000/svg">
<path d="M6.77637 20.1639H17.6176V22.5872H6.77637V20.1639ZM6.77637 14.1055H23.0382V16.5288H6.77637V14.1055ZM6.77637 26.2223H13.5521V28.6456H6.77637V26.2223Z" fill="#0D6784"/>
<path d="M27.1031 4.41238H23.0376V3.2007C23.0376 2.55799 22.7521 1.9416 22.2438 1.48713C21.7355 1.03266 21.0461 0.777344 20.3273 0.777344H9.48608C8.76726 0.777344 8.07788 1.03266 7.5696 1.48713C7.06132 1.9416 6.77577 2.55799 6.77577 3.2007V4.41238H2.71031C1.99149 4.41238 1.30211 4.6677 0.793831 5.12216C0.285549 5.57663 0 6.19302 0 6.83573V32.281C0 32.9237 0.285549 33.5401 0.793831 33.9945C1.30211 34.449 1.99149 34.7043 2.71031 34.7043H27.1031C27.8219 34.7043 28.5113 34.449 29.0195 33.9945C29.5278 33.5401 29.8134 32.9237 29.8134 32.281V6.83573C29.8134 6.19302 29.5278 5.57663 29.0195 5.12216C28.5113 4.6677 27.8219 4.41238 27.1031 4.41238ZM9.48608 3.2007H20.3273V8.04741H9.48608V3.2007ZM27.1031 32.281H2.71031V6.83573H6.77577V10.4708H23.0376V6.83573H27.1031V32.281Z" fill="#0D6784"/>
</svg>
