<svg width="86" height="14" viewBox="0 0 86 14" fill="none" xmlns="http://www.w3.org/2000/svg">
<path d="M6.91809 10.939L3.67063 13.3486C3.50972 13.4766 3.33418 13.5368 3.14401 13.5294C2.95385 13.5226 2.78562 13.4694 2.63934 13.3699C2.49306 13.2704 2.37984 13.1354 2.29968 12.9648C2.21893 12.7942 2.21513 12.6094 2.28827 12.4104L3.53898 8.46549L0.357346 6.26916C0.181807 6.15543 0.072096 6.00617 0.0282115 5.82136C-0.0156731 5.63655 -0.00835891 5.46597 0.0501538 5.30959C0.108667 5.15322 0.211064 5.01447 0.357346 4.89335C0.503627 4.7728 0.679166 4.71253 0.88396 4.71253H4.81163L6.08428 0.618386C6.15742 0.419365 6.27094 0.266404 6.42482 0.159501C6.57813 0.0531672 6.74255 0 6.91809 0C7.09362 0 7.25805 0.0531672 7.41135 0.159501C7.56524 0.266404 7.67875 0.419365 7.75189 0.618386L9.02454 4.71253H12.9522C13.157 4.71253 13.3325 4.7728 13.4788 4.89335C13.6251 5.01447 13.7275 5.15322 13.786 5.30959C13.8445 5.46597 13.8518 5.63655 13.808 5.82136C13.7641 6.00617 13.6544 6.15543 13.4788 6.26916L10.2972 8.46549L11.5479 12.4104C11.621 12.6094 11.6175 12.7942 11.5374 12.9648C11.4566 13.1354 11.3431 13.2704 11.1968 13.3699C11.0505 13.4694 10.8823 13.5226 10.6922 13.5294C10.502 13.5368 10.3265 13.4766 10.1655 13.3486L6.91809 10.939Z" fill="#DFCD26"/>
<path d="M24.754 10.939L21.5066 13.3486C21.3457 13.4766 21.1701 13.5368 20.98 13.5294C20.7898 13.5226 20.6216 13.4694 20.4753 13.3699C20.329 13.2704 20.2158 13.1354 20.1356 12.9648C20.0549 12.7942 20.0511 12.6094 20.1242 12.4104L21.3749 8.46549L18.1933 6.26916C18.0177 6.15543 17.908 6.00617 17.8641 5.82136C17.8203 5.63655 17.8276 5.46597 17.8861 5.30959C17.9446 5.15322 18.047 5.01447 18.1933 4.89335C18.3396 4.7728 18.5151 4.71253 18.7199 4.71253H22.6476L23.9202 0.618386C23.9934 0.419365 24.1069 0.266404 24.2608 0.159501C24.4141 0.0531672 24.5785 0 24.754 0C24.9296 0 25.094 0.0531672 25.2473 0.159501C25.4012 0.266404 25.5147 0.419365 25.5878 0.618386L26.8605 4.71253H30.7882C30.9929 4.71253 31.1685 4.7728 31.3148 4.89335C31.461 5.01447 31.5634 5.15322 31.622 5.30959C31.6805 5.46597 31.6878 5.63655 31.6439 5.82136C31.6 6.00617 31.4903 6.15543 31.3148 6.26916L28.1331 8.46549L29.3838 12.4104C29.457 12.6094 29.4535 12.7942 29.3733 12.9648C29.2926 13.1354 29.1791 13.2704 29.0328 13.3699C28.8865 13.4694 28.7183 13.5226 28.5281 13.5294C28.3379 13.5368 28.1624 13.4766 28.0015 13.3486L24.754 10.939Z" fill="#DFCD26"/>
<path d="M42.59 10.939L39.3425 13.3486C39.1816 13.4766 39.0061 13.5368 38.8159 13.5294C38.6257 13.5226 38.4575 13.4694 38.3112 13.3699C38.1649 13.2704 38.0517 13.1354 37.9716 12.9648C37.8908 12.7942 37.887 12.6094 37.9601 12.4104L39.2109 8.46549L36.0292 6.26916C35.8537 6.15543 35.744 6.00617 35.7001 5.82136C35.6562 5.63655 35.6635 5.46597 35.722 5.30959C35.7805 5.15322 35.8829 5.01447 36.0292 4.89335C36.1755 4.7728 36.351 4.71253 36.5558 4.71253H40.4835L41.7562 0.618386C41.8293 0.419365 41.9428 0.266404 42.0967 0.159501C42.25 0.0531672 42.4144 0 42.59 0C42.7655 0 42.9299 0.0531672 43.0832 0.159501C43.2371 0.266404 43.3506 0.419365 43.4238 0.618386L44.6964 4.71253H48.6241C48.8289 4.71253 49.0044 4.7728 49.1507 4.89335C49.297 5.01447 49.3994 5.15322 49.4579 5.30959C49.5164 5.46597 49.5237 5.63655 49.4798 5.82136C49.436 6.00617 49.3262 6.15543 49.1507 6.26916L45.9691 8.46549L47.2198 12.4104C47.2929 12.6094 47.2894 12.7942 47.2093 12.9648C47.1285 13.1354 47.015 13.2704 46.8687 13.3699C46.7224 13.4694 46.5542 13.5226 46.364 13.5294C46.1739 13.5368 45.9983 13.4766 45.8374 13.3486L42.59 10.939Z" fill="#DFCD26"/>
<path d="M60.4259 10.939L57.1784 13.3486C57.0175 13.4766 56.842 13.5368 56.6518 13.5294C56.4617 13.5226 56.2934 13.4694 56.1472 13.3699C56.0009 13.2704 55.8877 13.1354 55.8075 12.9648C55.7267 12.7942 55.7229 12.6094 55.7961 12.4104L57.0468 8.46549L53.8652 6.26916C53.6896 6.15543 53.5799 6.00617 53.536 5.82136C53.4921 5.63655 53.4995 5.46597 53.558 5.30959C53.6165 5.15322 53.7189 5.01447 53.8652 4.89335C54.0114 4.7728 54.187 4.71253 54.3918 4.71253H58.3194L59.5921 0.618386C59.6652 0.419365 59.7787 0.266404 59.9326 0.159501C60.0859 0.0531672 60.2504 0 60.4259 0C60.6014 0 60.7659 0.0531672 60.9192 0.159501C61.0731 0.266404 61.1866 0.419365 61.2597 0.618386L62.5324 4.71253H66.46C66.6648 4.71253 66.8404 4.7728 66.9866 4.89335C67.1329 5.01447 67.2353 5.15322 67.2938 5.30959C67.3523 5.46597 67.3597 5.63655 67.3158 5.82136C67.2719 6.00617 67.1622 6.15543 66.9866 6.26916L63.805 8.46549L65.0557 12.4104C65.1289 12.6094 65.1253 12.7942 65.0452 12.9648C64.9644 13.1354 64.8509 13.2704 64.7046 13.3699C64.5584 13.4694 64.3901 13.5226 64.2 13.5294C64.0098 13.5368 63.8343 13.4766 63.6734 13.3486L60.4259 10.939Z" fill="#DFCD26"/>
<path d="M78.2618 10.939L75.0144 13.3486C74.8535 13.4766 74.6779 13.5368 74.4878 13.5294C74.2976 13.5226 74.1294 13.4694 73.9831 13.3699C73.8368 13.2704 73.7236 13.1354 73.6434 12.9648C73.5627 12.7942 73.5589 12.6094 73.632 12.4104L74.8827 8.46549L71.7011 6.26916C71.5256 6.15543 71.4158 6.00617 71.372 5.82136C71.3281 5.63655 71.3354 5.46597 71.3939 5.30959C71.4524 5.15322 71.5548 5.01447 71.7011 4.89335C71.8474 4.7728 72.0229 4.71253 72.2277 4.71253H76.1554L77.428 0.618386C77.5012 0.419365 77.6147 0.266404 77.7686 0.159501C77.9219 0.0531672 78.0863 0 78.2618 0C78.4374 0 78.6018 0.0531672 78.7551 0.159501C78.909 0.266404 79.0225 0.419365 79.0956 0.618386L80.3683 4.71253H84.296C84.5008 4.71253 84.6763 4.7728 84.8226 4.89335C84.9689 5.01447 85.0713 5.15322 85.1298 5.30959C85.1883 5.46597 85.1956 5.63655 85.1517 5.82136C85.1078 6.00617 84.9981 6.15543 84.8226 6.26916L81.6409 8.46549L82.8917 12.4104C82.9648 12.6094 82.9613 12.7942 82.8811 12.9648C82.8004 13.1354 82.6869 13.2704 82.5406 13.3699C82.3943 13.4694 82.2261 13.5226 82.0359 13.5294C81.8457 13.5368 81.6702 13.4766 81.5093 13.3486L78.2618 10.939Z" fill="#DFCD26"/>
</svg>
