<svg width="98" height="387" viewBox="0 0 98 387" fill="none" xmlns="http://www.w3.org/2000/svg">
<path d="M-130.931 3.71898C-117.326 -0.648513 -102.674 -0.648514 -89.0689 3.71898C-81.9499 6.00431 -74.4987 7.1077 -67.0229 6.98179L-66.2921 6.96948C-52.3224 6.73418 -38.6143 10.948 -27.1791 18.9757C-21.1372 23.2171 -14.413 26.4208 -7.31137 28.436L-6.15619 28.7638C6.93509 32.4788 18.4697 40.4068 26.6458 51.2851C30.9955 57.0725 36.3363 62.0673 42.405 66.0152L43.431 66.6826C54.6089 73.9542 62.9757 84.8515 67.1301 97.5228C69.3434 104.273 72.7765 110.576 77.2516 116.093L77.7357 116.69C86.0902 126.991 90.5312 139.925 90.2732 153.185C90.1365 160.21 91.3205 167.204 93.7639 173.792C98.4326 186.38 98.4326 200.224 93.7639 212.812C91.3205 219.4 90.1365 226.393 90.2732 233.419C90.5312 246.679 86.0902 259.613 77.7357 269.913L77.2516 270.51C72.7765 276.028 69.3434 282.33 67.1301 289.081C62.9757 301.752 54.6089 312.649 43.4309 319.921L42.405 320.589C36.3363 324.536 30.9955 329.531 26.6458 335.319C18.4698 346.197 6.93512 354.125 -6.15616 357.84L-7.31137 358.168C-14.413 360.183 -21.1372 363.387 -27.1791 367.628C-38.6143 375.656 -52.3224 379.87 -66.2921 379.634L-67.0229 379.622C-74.4987 379.496 -81.9499 380.599 -89.0689 382.885C-102.674 387.252 -117.326 387.252 -130.931 382.885C-138.05 380.599 -145.501 379.496 -152.977 379.622L-153.708 379.634C-167.677 379.87 -181.386 375.656 -192.821 367.628C-198.863 363.387 -205.587 360.183 -212.689 358.168L-213.844 357.84C-226.935 354.125 -238.47 346.197 -246.646 335.319C-250.995 329.531 -256.336 324.536 -262.405 320.589L-263.431 319.921C-274.609 312.649 -282.976 301.752 -287.13 289.081C-289.343 282.33 -292.776 276.028 -297.251 270.51L-297.736 269.913C-306.09 259.613 -310.531 246.679 -310.273 233.419C-310.136 226.393 -311.32 219.4 -313.764 212.812C-318.433 200.224 -318.433 186.38 -313.764 173.792C-311.32 167.204 -310.136 160.21 -310.273 153.185C-310.531 139.925 -306.09 126.991 -297.736 116.69L-297.251 116.093C-292.776 110.576 -289.343 104.273 -287.13 97.5228C-282.976 84.8514 -274.609 73.9542 -263.431 66.6826L-262.405 66.0152C-256.336 62.0673 -250.995 57.0725 -246.646 51.2851C-238.47 40.4068 -226.935 32.4788 -213.844 28.7638L-212.689 28.436C-205.587 26.4208 -198.863 23.2171 -192.821 18.9756C-181.386 10.948 -167.677 6.73418 -153.708 6.96948L-152.977 6.98179C-145.501 7.1077 -138.05 6.00431 -130.931 3.71898Z" fill="url(#paint0_linear_633_947)"/>
<path d="M-97.1023 84.8848C-89.2358 82.3595 -80.7641 82.3595 -72.8976 84.8848C-68.7814 86.2062 -64.4732 86.8441 -60.1507 86.7713L-59.7281 86.7642C-51.6509 86.6282 -43.7248 89.0646 -37.113 93.7062C-33.6196 96.1586 -29.7317 98.0109 -25.6255 99.1762L-24.9576 99.3657C-17.3882 101.514 -10.7189 106.098 -5.99155 112.387C-3.4765 115.734 -0.388458 118.622 3.12045 120.904L3.71368 121.29C10.1768 125.495 15.0144 131.796 17.4165 139.122C18.6962 143.025 20.6812 146.669 23.2687 149.86L23.5486 150.205C28.3792 156.16 30.947 163.639 30.7978 171.306C30.7188 175.368 31.4034 179.412 32.8161 183.221C35.5156 190.499 35.5156 198.504 32.8161 205.782C31.4034 209.591 30.7188 213.635 30.7978 217.697C30.947 225.364 28.3792 232.842 23.5486 238.798L23.2687 239.143C20.6812 242.334 18.6962 245.978 17.4165 249.881C15.0144 257.207 10.1768 263.508 3.71368 267.713L3.12045 268.098C-0.388458 270.381 -3.4765 273.269 -5.99155 276.615C-10.7189 282.905 -17.3882 287.489 -24.9576 289.637L-25.6255 289.827C-29.7316 290.992 -33.6196 292.844 -37.113 295.297C-43.7248 299.938 -51.6509 302.375 -59.7281 302.239L-60.1507 302.232C-64.4732 302.159 -68.7814 302.797 -72.8976 304.118C-80.7641 306.643 -89.2358 306.643 -97.1023 304.118C-101.218 302.797 -105.527 302.159 -109.849 302.232L-110.272 302.239C-118.349 302.375 -126.275 299.938 -132.887 295.297C-136.38 292.844 -140.268 290.992 -144.374 289.827L-145.042 289.637C-152.612 287.489 -159.281 282.905 -164.008 276.615C-166.523 273.269 -169.611 270.381 -173.12 268.098L-173.714 267.713C-180.177 263.508 -185.014 257.207 -187.416 249.881C-188.696 245.978 -190.681 242.334 -193.269 239.143L-193.549 238.798C-198.379 232.842 -200.947 225.364 -200.798 217.697C-200.719 213.635 -201.403 209.591 -202.816 205.782C-205.515 198.504 -205.515 190.499 -202.816 183.221C-201.403 179.412 -200.719 175.368 -200.798 171.306C-200.947 163.639 -198.379 156.16 -193.549 150.205L-193.269 149.86C-190.681 146.669 -188.696 143.025 -187.416 139.122C-185.014 131.796 -180.177 125.495 -173.714 121.29L-173.12 120.904C-169.611 118.622 -166.523 115.734 -164.008 112.387C-159.281 106.098 -152.612 101.514 -145.042 99.3657L-144.374 99.1762C-140.268 98.011 -136.38 96.1586 -132.887 93.7062C-126.275 89.0646 -118.349 86.6282 -110.272 86.7642L-109.849 86.7713C-105.527 86.8441 -101.218 86.2062 -97.1023 84.8848Z" fill="url(#paint1_linear_633_947)"/>
<defs>
<linearGradient id="paint0_linear_633_947" x1="66.323" y1="88.0144" x2="-106.255" y2="183.305" gradientUnits="userSpaceOnUse">
<stop stop-color="#4ED0DE"/>
<stop offset="1" stop-color="#99CCD1"/>
</linearGradient>
<linearGradient id="paint1_linear_633_947" x1="-42.5932" y1="93.782" x2="-37.7755" y2="308.115" gradientUnits="userSpaceOnUse">
<stop offset="0.378263" stop-color="#C8EFF3"/>
<stop offset="0.857005" stop-color="#DBF2F3"/>
</linearGradient>
</defs>
</svg>
