<svg width="30" height="30" viewBox="0 0 30 30" fill="none" xmlns="http://www.w3.org/2000/svg">
<path d="M0.631799 14.4951C0.631105 16.9603 1.28606 19.3674 2.53145 21.4891L0.512695 28.7382L8.05579 26.793C10.1421 27.91 12.4797 28.4953 14.8551 28.4955H14.8614C22.7031 28.4955 29.0865 22.2198 29.0899 14.5061C29.0914 10.7683 27.6127 7.25346 24.926 4.60911C22.2398 1.96499 18.6673 0.508054 14.8608 0.506348C7.01809 0.506348 0.635153 6.78173 0.631915 14.4951" fill="url(#paint0_linear_825_1281)"/>
<path d="M0.123729 14.4905C0.12292 17.0444 0.80135 19.5376 2.09114 21.7352L0 29.2442L7.81357 27.2293C9.96646 28.3838 12.3904 28.9924 14.8569 28.9933H14.8632C22.9864 28.9933 29.5991 22.4919 29.6025 14.5021C29.6039 10.6299 28.072 6.98878 25.2894 4.2497C22.5064 1.51096 18.8061 0.00159216 14.8632 0C6.73874 0 0.127083 6.50056 0.123845 14.4905H0.123729ZM4.77688 21.3568L4.48513 20.9013C3.25871 18.9834 2.61138 16.7671 2.61231 14.4914C2.61497 7.85037 8.1104 2.44738 14.8679 2.44738C18.1403 2.44874 21.2158 3.70336 23.5289 5.97969C25.842 8.25625 27.1148 11.2825 27.114 14.5012C27.111 21.1422 21.6154 26.5458 14.8632 26.5458H14.8584C12.6598 26.5447 10.5036 25.964 8.62313 24.8667L8.17562 24.6057L3.53889 25.8013L4.77688 21.3566V21.3568Z" fill="url(#paint1_linear_825_1281)"/>
<path d="M11.1786 8.4326C10.9027 7.82951 10.6123 7.81734 10.35 7.80677C10.1351 7.79767 9.88949 7.79835 9.64412 7.79835C9.39851 7.79835 8.99945 7.88922 8.66214 8.25143C8.32449 8.61399 7.37305 9.49013 7.37305 11.2721C7.37305 13.0542 8.69279 14.7763 8.87676 15.0182C9.06097 15.2597 11.4245 19.0335 15.1679 20.4854C18.2789 21.6919 18.912 21.4519 19.5872 21.3914C20.2625 21.3311 21.7662 20.5155 22.073 19.6697C22.38 18.824 22.38 18.0992 22.288 17.9477C22.1959 17.7968 21.9503 17.7061 21.582 17.5251C21.2136 17.3439 19.403 16.4677 19.0655 16.3468C18.7278 16.226 18.4823 16.1657 18.2367 16.5284C17.9911 16.8905 17.2858 17.7061 17.0709 17.9477C16.8562 18.1898 16.6412 18.2199 16.273 18.0388C15.9045 17.857 14.7184 17.475 13.3112 16.2412C12.2164 15.2812 11.4773 14.0956 11.2624 13.7329C11.0476 13.3708 11.2394 13.1745 11.4241 12.994C11.5896 12.8317 11.7925 12.5711 11.9768 12.3597C12.1604 12.1481 12.2217 11.9972 12.3445 11.7557C12.4675 11.5139 12.4059 11.3024 12.314 11.1212C12.2217 10.94 11.5061 9.14884 11.1786 8.43271" fill="white"/>
<defs>
<linearGradient id="paint0_linear_825_1281" x1="14.8013" y1="28.7382" x2="14.8013" y2="0.506348" gradientUnits="userSpaceOnUse">
<stop stop-color="#1FAF38"/>
<stop offset="1" stop-color="#60D669"/>
</linearGradient>
<linearGradient id="paint1_linear_825_1281" x1="14.8013" y1="29.2442" x2="14.8013" y2="0" gradientUnits="userSpaceOnUse">
<stop stop-color="#F9F9F9"/>
<stop offset="1" stop-color="white"/>
</linearGradient>
</defs>
</svg>
