<svg width="40" height="39" viewBox="0 0 40 39" fill="none" xmlns="http://www.w3.org/2000/svg">
<path d="M19.8274 7.90446C13.3923 7.90446 8.16109 13.0493 8.15224 19.3781C8.15224 21.5458 8.77184 23.6612 9.94024 25.4806L10.2146 25.9158L9.03739 30.1467L13.4543 29.0063L13.8792 29.2587C15.6672 30.3034 17.7207 30.8605 19.8185 30.8605H19.8274C26.2536 30.8605 31.6264 25.7156 31.6264 19.3868C31.6264 16.3225 30.281 13.4411 28.077 11.2734C25.8641 9.0971 22.9431 7.90446 19.8274 7.90446ZM26.6873 24.3054C26.3952 25.115 24.9967 25.8462 24.3239 25.942C23.2087 26.1074 22.3412 26.0203 20.1195 25.0801C16.6054 23.5828 14.304 20.1007 14.127 19.8743C13.95 19.648 12.6931 18.0027 12.6931 16.3051C12.6931 14.6076 13.5959 13.7719 13.9234 13.4237C14.2421 13.0754 14.6227 12.9884 14.8617 12.9884C15.0918 12.9884 15.3308 12.9884 15.5344 12.9971C15.7468 13.0058 16.0389 12.9188 16.3222 13.5891C16.6143 14.2768 17.3136 15.9743 17.4021 16.1484C17.4906 16.3225 17.5525 16.5228 17.4286 16.7491C16.7559 18.0723 16.0389 18.0201 16.4018 18.6295C17.7561 20.919 19.1104 21.7112 21.1728 22.7297C21.5269 22.9038 21.7305 22.8777 21.934 22.6426C22.1376 22.4163 22.8103 21.6328 23.0405 21.2933C23.2706 20.9451 23.5096 21.006 23.8283 21.1192C24.1469 21.2324 25.873 22.0681 26.227 22.2422C26.5811 22.4163 26.8112 22.5033 26.8997 22.6426C26.9794 22.808 26.9794 23.5045 26.6873 24.3054ZM35.406 0H4.24872C1.90307 0 0 1.87165 0 4.17857V34.8214C0 37.1283 1.90307 39 4.24872 39H35.406C37.7517 39 39.6548 37.1283 39.6548 34.8214V4.17857C39.6548 1.87165 37.7517 0 35.406 0ZM19.8185 33.1848C17.464 33.1848 15.1538 32.6016 13.1091 31.5047L5.66497 33.4286L7.65655 26.2728C6.42619 24.1835 5.78004 21.8069 5.78004 19.3694C5.78889 11.7609 12.0823 5.57143 19.8185 5.57143C23.5716 5.57143 27.0945 7.00781 29.7499 9.61942C32.3965 12.231 33.9898 15.6958 33.9898 19.3868C33.9898 26.9953 27.5547 33.1848 19.8185 33.1848Z" fill="#E3F8F5"/>
</svg>
