<svg width="40" height="40" viewBox="0 0 40 40" fill="none" xmlns="http://www.w3.org/2000/svg">
<path d="M30.5041 19.8885C30.4989 18.217 30.3198 16.5507 29.9696 14.9163H34.4446C34.2141 14.2345 33.9358 13.5699 33.6117 12.9274H29.4475C28.6647 10.3121 27.4505 7.84589 25.8551 5.63065C24.8357 5.20205 23.7729 4.88529 22.6853 4.68593C24.871 7.03436 26.5208 9.8293 27.5208 12.8777H20.8207V4.47461H18.9561V12.8901H12.256C13.258 9.83621 14.9122 7.03679 17.104 4.68593C16.021 4.88196 14.9624 5.19454 13.9466 5.61822C12.3449 7.82417 11.1223 10.2819 10.3293 12.8901H6.1402C5.81025 13.5444 5.52776 14.2215 5.29492 14.9163H9.80721C9.45703 16.5507 9.27789 18.217 9.2727 19.8885C9.27614 21.7168 9.48461 23.5389 9.89423 25.3207H5.49381C5.75097 26.0174 6.0584 26.6946 6.41367 27.3468H10.4287C11.1898 29.7283 12.3179 31.9763 13.7726 34.0096C14.8142 34.4564 15.9024 34.7858 17.0169 34.9916C14.9882 32.7787 13.4279 30.1783 12.4301 27.3468H18.9685V35.2278H20.8331V27.3468H27.3467C26.3455 30.1795 24.7809 32.78 22.7474 34.9916C23.8672 34.7787 24.9596 34.4409 26.0042 33.9848C27.4565 31.959 28.5847 29.7196 29.3481 27.3468H33.3258C33.6795 26.7066 33.9869 26.042 34.2457 25.3579H29.8328C30.262 23.5659 30.4872 21.7311 30.5041 19.8885ZM18.9561 25.3207H11.821C10.9458 21.8996 10.9074 18.318 11.7091 14.879H18.9561V25.3207ZM27.9558 25.3207H20.8207V14.9163H28.0677C28.4248 16.5493 28.5999 18.2169 28.5898 19.8885C28.5999 21.7182 28.387 23.5424 27.9558 25.3207Z" fill="#0D6784"/>
<path d="M19.8889 0C15.9553 0 12.1099 1.16646 8.83922 3.35188C5.56851 5.5373 3.0193 8.64352 1.51396 12.2777C0.00861748 15.912 -0.385249 19.911 0.382168 23.769C1.14959 27.6271 3.04382 31.171 5.82533 33.9525C8.60684 36.734 12.1507 38.6282 16.0088 39.3956C19.8668 40.163 23.8658 39.7692 27.5001 38.2638C31.1343 36.7585 34.2405 34.2093 36.4259 30.9386C38.6113 27.6679 39.7778 23.8225 39.7778 19.8889C39.7778 14.614 37.6824 9.55521 33.9525 5.82532C30.2226 2.09543 25.1638 0 19.8889 0ZM19.8889 37.2917C16.447 37.2917 13.0823 36.271 10.2204 34.3588C7.35856 32.4465 5.128 29.7286 3.81083 26.5487C2.49365 23.3687 2.14902 19.8696 2.82051 16.4938C3.492 13.118 5.14945 10.0171 7.58328 7.58327C10.0171 5.14945 13.118 3.49199 16.4938 2.8205C19.8696 2.14901 23.3687 2.49364 26.5487 3.81082C29.7286 5.128 32.4465 7.35855 34.3588 10.2204C36.271 13.0823 37.2917 16.4469 37.2917 19.8889C37.2917 24.5044 35.4582 28.9309 32.1945 32.1945C28.9309 35.4582 24.5044 37.2917 19.8889 37.2917Z" fill="#0D6784"/>
</svg>
